SplineFontDB: 3.0
FontName: Garuda-BoldOblique
FullName: Garuda Bold Oblique
FamilyName: Garuda
Weight: Bold
Copyright: Generated by NECTEC for Public Domain\n\nModified under GNU General Public License by TLWG
Version: 003.011
ItalicAngle: -12
UnderlinePosition: -27
UnderlineWidth: 20
Ascent: 872
Descent: 128
InvalidEm: 0
LayerCount: 3
Layer: 0 0 "Back" 1
Layer: 1 0 "Fore" 0
Layer: 2 1 "Quad" 0
FSType: 0
OS2Version: 4
OS2_WeightWidthSlopeOnly: 0
OS2_UseTypoMetrics: 0
CreationTime: 1153661423
ModificationTime: 1537505992
PfmFamily: 33
TTFWeight: 700
TTFWidth: 5
LineGap: 0
VLineGap: 0
Panose: 2 11 7 4 2 2 2 2 2 4
OS2TypoAscent: 0
OS2TypoAOffset: 1
OS2TypoDescent: 0
OS2TypoDOffset: 1
OS2TypoLinegap: 0
OS2WinAscent: 1284
OS2WinAOffset: 0
OS2WinDescent: 591
OS2WinDOffset: 0
HheadAscent: 1284
HheadAOffset: 0
HheadDescent: -591
HheadDOffset: 0
OS2Vendor: 'PfEd'
Lookup: 6 0 0 "'ccmp' Thai Tone Tilde Reordering" { "'ccmp' Thai Tone Tilde Reordering"  } ['ccmp' ('DFLT' <'dflt' > 'latn' <'dflt' > 'thai' <'KUY ' 'MLY ' 'PAL ' 'SAN ' 'THA ' 'dflt' > ) ]
Lookup: 6 0 0 "'ccmp' Thai Tone Macron Reordering" { "'ccmp' Thai Tone Macron Reordering"  } ['ccmp' ('DFLT' <'dflt' > 'latn' <'dflt' > 'thai' <'KUY ' 'MLY ' 'PAL ' 'SAN ' 'THA ' 'dflt' > ) ]
Lookup: 6 0 0 "'ccmp' Thai Below Vowel Macron Reordering" { "'ccmp' Thai Below Vowel Macron Reordering"  } ['ccmp' ('DFLT' <'dflt' > 'latn' <'dflt' > 'thai' <'KUY ' 'MLY ' 'PAL ' 'SAN ' 'THA ' 'dflt' > ) ]
Lookup: 4 0 0 "'ccmp' Patani Malay Ligatures" { "'ccmp' Patani Malay Ligatures"  } ['ccmp' ('DFLT' <'dflt' > 'thai' <'KUY ' 'MLY ' 'PAL ' 'SAN ' 'THA ' 'dflt' > ) ]
Lookup: 6 0 0 "'ccmp' Thai Conditional Descender Removal" { "'ccmp' Thai Conditional Descender Removal"  } ['ccmp' ('DFLT' <'dflt' > 'thai' <'KUY ' 'MLY ' 'THA ' 'dflt' > ) ]
Lookup: 1 0 0 "'ccmp' Pali-Sanskrit Descender Removal" { "'ccmp' Pali-Sanskrit Descender Removal" ("descless") } ['ccmp' ('thai' <'PAL ' 'SAN ' > ) ]

StartChar: .notdef
Encoding: 65536 -1 0
Width: 766
VWidth: 2048
Flags: W
HStem: 0 95<212 595> 1242 95<455 838>
DStem2: 95 0 191.807 0 0.207912 0.978148<117.25 1289.71> 574.807 0 671 0 0.207912 0.978148<97.1224 1269.58>
LayerCount: 3
Fore
SplineSet
95 0 m 1
 379 1337 l 1
 955 1337 l 1
 671 0 l 1
 95 0 l 1
212 95 m 1
 595 95 l 1
 838 1242 l 1
 455 1242 l 1
 212 95 l 1
EndSplineSet
Validated: 1
Layer: 2
SplineSet
95 0 m 1,0,-1
 379 1337 l 1,1,-1
 955 1337 l 1,2,-1
 671 0 l 1,3,-1
 95 0 l 1,0,-1
212 95 m 1,4,-1
 595 95 l 1,5,-1
 838 1242 l 1,6,-1
 455 1242 l 1,7,-1
 212 95 l 1,4,-1
EndSplineSet
EndChar

StartChar: exclam
Encoding: 33 33 2
Width: 308
Flags: W
HStem: 2 145<138.19 213.668> 680 20G<246.738 369>
VStem: 108 137<34.1785 115.616>
DStem2: 102.363 2 220.363 2 0.207912 0.978148<239.225 713.65>
LayerCount: 3
Fore
SplineSet
265 212 m 1
 147 212 l 1
 251 700 l 1
 369 700 l 1
 265 212 l 1
245 93 m 0
 245 53 213 2 161 2 c 0
 123 2 108 28 108 57 c 0
 108 99 141 147 192 147 c 0
 230 147 245 121 245 93 c 0
EndSplineSet
Validated: 1
Layer: 2
SplineSet
265 212 m 1,0,-1
 147 212 l 1,1,-1
 251 700 l 1,2,-1
 369 700 l 1,3,-1
 265 212 l 1,0,-1
245 93 m 0,4,5
 245 60 245 60 221.5 31 c 128,-1,6
 198 2 198 2 161 2 c 0,7,8
 134 2 134 2 121 17.5 c 128,-1,9
 108 33 108 33 108 57 c 0,10,11
 108 91 108 91 132 119 c 128,-1,12
 156 147 156 147 192 147 c 0,13,14
 219 147 219 147 232 131.5 c 128,-1,15
 245 116 245 116 245 93 c 0,4,5
EndSplineSet
EndChar

StartChar: quotedbl
Encoding: 34 34 3
Width: 458
Flags: W
HStem: 455 242<209 221 444 457>
LayerCount: 3
Fore
SplineSet
457 455 m 1
 431 455 l 1
 419 578 l 1
 444 697 l 1
 545 697 l 1
 520 578 l 1
 457 455 l 1
221 455 m 1
 195 455 l 1
 184 578 l 1
 209 697 l 1
 310 697 l 1
 285 578 l 1
 221 455 l 1
EndSplineSet
Validated: 1
Layer: 2
SplineSet
457 455 m 1,0,-1
 431 455 l 1,1,-1
 419 578 l 1,2,-1
 444 697 l 1,3,-1
 545 697 l 1,4,-1
 520 578 l 1,5,-1
 457 455 l 1,0,-1
221 455 m 1,6,-1
 195 455 l 1,7,-1
 184 578 l 1,8,-1
 209 697 l 1,9,-1
 310 697 l 1,10,-1
 285 578 l 1,11,-1
 221 455 l 1,6,-1
EndSplineSet
EndChar

StartChar: numbersign
Encoding: 35 35 4
Width: 597
Flags: W
HStem: 0 21G<86 192.313 290 394.554> 166 99<87 155 294 360 497 575> 412 103<181 254 391 462 593 655> 680 20G<357 465 566.568 670>
DStem2: 86 0 184 0 0.372533 0.928019<36.5083 179.756 323.412 444.929 591.552 753.55> 290 0 386 0 0.377087 0.926178<36.2003 180.142 323.494 446.444 591.239 755.794>
LayerCount: 3
Fore
SplineSet
497 265 m 1
 596 265 l 1
 575 166 l 1
 457 166 l 1
 386 0 l 1
 290 0 l 1
 360 166 l 1
 253 166 l 1
 184 0 l 1
 86 0 l 1
 155 166 l 1
 66 166 l 1
 87 265 l 1
 195 265 l 1
 254 412 l 1
 160 412 l 1
 181 515 l 1
 291 515 l 1
 365 700 l 1
 465 700 l 1
 391 515 l 1
 497 515 l 1
 575 700 l 1
 670 700 l 1
 593 515 l 1
 676 515 l 1
 655 412 l 1
 557 412 l 1
 497 265 l 1
294 265 m 1
 399 265 l 1
 462 412 l 1
 352 412 l 1
 294 265 l 1
EndSplineSet
Validated: 1
Layer: 2
SplineSet
497 265 m 1,0,-1
 596 265 l 1,1,-1
 575 166 l 1,2,-1
 457 166 l 1,3,-1
 386 0 l 1,4,-1
 290 0 l 1,5,-1
 360 166 l 1,6,-1
 253 166 l 1,7,-1
 184 0 l 1,8,-1
 86 0 l 1,9,-1
 155 166 l 1,10,-1
 66 166 l 1,11,-1
 87 265 l 1,12,-1
 195 265 l 1,13,-1
 254 412 l 1,14,-1
 160 412 l 1,15,-1
 181 515 l 1,16,-1
 291 515 l 1,17,-1
 365 700 l 1,18,-1
 465 700 l 1,19,-1
 391 515 l 1,20,-1
 497 515 l 1,21,-1
 575 700 l 1,22,-1
 670 700 l 1,23,-1
 593 515 l 1,24,-1
 676 515 l 1,25,-1
 655 412 l 1,26,-1
 557 412 l 1,27,-1
 497 265 l 1,0,-1
294 265 m 1,28,-1
 399 265 l 1,29,-1
 462 412 l 1,30,-1
 352 412 l 1,31,-1
 294 265 l 1,28,-1
EndSplineSet
EndChar

StartChar: dollar
Encoding: 36 36 5
Width: 574
Flags: W
HStem: 532 104<330.302 379 494 497.363> 680 20G<408.625 508>
VStem: 128 112<118.941 208.542> 185 114<371 500.901> 456 116<142.303 250.184> 506 116<437.357 526.379>
DStem2: 248 -75 343 -75 0.207912 0.978148<19.7516 78.644 202.741 366.313 485.827 623.906 746.609 792.37>
LayerCount: 3
Fore
SplineSet
185 415 m 0xd0
 185 536 293 636 399 636 c 1
 413 700 l 1
 508 700 l 1
 494 636 l 1
 566 626 622 575 622 504 c 0
 622 484 616 434 589 434 c 2
 518 434 l 2
 506 434 503 442 503 452 c 0
 503 462 506 473 506 481 c 0xd4
 506 505 497 524 472 532 c 1
 439 377 l 1
 496 356 572 321 572 228 c 0
 572 101 456 2 359 2 c 1
 343 -75 l 1
 248 -75 l 1
 264 2 l 1
 157 2 128 84 128 146 c 0
 128 167 131 210 158 210 c 2
 227 210 l 2
 242 210 243 197 243 189 c 0
 243 183 240 174 240 159 c 0xe8
 240 134 252 117 287 106 c 1
 325 285 l 1
 267 299 185 327 185 415 c 0xd0
379 535 m 1
 321 525 299 474 299 453 c 0
 299 425 333 403 350 400 c 1
 379 535 l 1
381 104 m 1
 436 116 456 175 456 205 c 0xc8
 456 237 436 254 415 264 c 1
 381 104 l 1
EndSplineSet
Validated: 1
Layer: 2
SplineSet
185 415 m 0,0,1
 185 504 185 504 251.5 570 c 128,-1,2
 318 636 318 636 399 636 c 1,3,-1
 413 700 l 1,4,-1
 508 700 l 1,5,-1
 494 636 l 1,6,7
 549 628 549 628 585.5 592 c 128,-1,8
 622 556 622 556 622 504 c 0,9,10
 622 481 622 481 614.5 457.5 c 128,-1,11
 607 434 607 434 589 434 c 2,12,-1
 518 434 l 2,13,14
 503 434 503 434 503 452 c 0,15,16
 503 457 503 457 504.5 467 c 128,-1,17
 506 477 506 477 506 481 c 0,18,19
 506 521 506 521 472 532 c 1,20,-1
 439 377 l 1,21,22
 466 367 466 367 485 357 c 128,-1,23
 504 347 504 347 526 330 c 128,-1,24
 548 313 548 313 560 287 c 128,-1,25
 572 261 572 261 572 228 c 0,26,27
 572 137 572 137 504 69.5 c 128,-1,28
 436 2 436 2 359 2 c 1,29,-1
 343 -75 l 1,30,-1
 248 -75 l 1,31,-1
 264 2 l 1,32,33
 214 2 214 2 182 26 c 128,-1,34
 150 50 150 50 139 80.5 c 128,-1,35
 128 111 128 111 128 146 c 0,36,37
 128 210 128 210 158 210 c 2,38,-1
 227 210 l 2,39,40
 243 210 243 210 243 189 c 0,41,42
 243 187 243 187 241.5 177.5 c 128,-1,43
 240 168 240 168 240 159 c 0,44,45
 240 121 240 121 287 106 c 1,46,-1
 325 285 l 1,47,48
 298 291 298 291 277.5 299 c 128,-1,49
 257 307 257 307 234 321.5 c 128,-1,50
 211 336 211 336 198 360 c 128,-1,51
 185 384 185 384 185 415 c 0,0,1
379 535 m 1,52,53
 340 528 340 528 319.5 501 c 128,-1,54
 299 474 299 474 299 453 c 0,55,56
 299 434 299 434 316.5 418.5 c 128,-1,57
 334 403 334 403 350 400 c 1,58,-1
 379 535 l 1,52,53
381 104 m 1,59,60
 418 112 418 112 437 144 c 128,-1,61
 456 176 456 176 456 205 c 0,62,63
 456 244 456 244 415 264 c 1,64,-1
 381 104 l 1,59,60
EndSplineSet
EndChar

StartChar: percent
Encoding: 37 37 6
Width: 697
Flags: W
HStem: -8 61<527.011 594.794> 0 21G<95 230.943> 308 61<572.089 639.207> 322 61<230.914 297.837> 638 61<277.466 346.8>
VStem: 143 83<386.096 557.163> 352 83<468.782 634.706> 438 83<56.4729 229.105> 645 85<133.116 304.484>
DStem2: 95 0 215 0 0.625375 0.780325<75.0449 897.062>
LayerCount: 3
Fore
SplineSet
143 450 m 0x1f80
 143 541 200 699 329 699 c 0
 405 699 435 644 435 574 c 0
 435 470 372 322 248 322 c 0
 172 322 143 380 143 450 c 0x1f80
261 383 m 0
 334 383 352 566 352 587 c 0
 352 616 344 638 316 638 c 0
 244 638 226 462 226 439 c 0
 226 409 233 383 261 383 c 0
438 118 m 0
 438 224 501 369 622 369 c 0
 698 369 730 314 730 244 c 0
 730 138 663 -8 542 -8 c 0xaf80
 466 -8 438 48 438 118 c 0
555 53 m 0
 627 53 645 223 645 251 c 0
 645 282 637 308 609 308 c 0
 538 308 521 131 521 108 c 0
 521 79 528 53 555 53 c 0
656 700 m 1
 773 700 l 1
 215 0 l 1
 95 0 l 1x4f80
 656 700 l 1
EndSplineSet
Validated: 1
Layer: 2
SplineSet
143 450 m 0,0,1
 143 500 143 500 161.5 555 c 128,-1,2
 180 610 180 610 224.5 654.5 c 128,-1,3
 269 699 269 699 329 699 c 0,4,5
 383 699 383 699 409 664.5 c 128,-1,6
 435 630 435 630 435 574 c 0,7,8
 435 519 435 519 415 462.5 c 128,-1,9
 395 406 395 406 350.5 364 c 128,-1,10
 306 322 306 322 248 322 c 0,11,12
 194 322 194 322 168.5 357.5 c 128,-1,13
 143 393 143 393 143 450 c 0,0,1
261 383 m 0,14,15
 286 383 286 383 305.5 411 c 128,-1,16
 325 439 325 439 334 478 c 128,-1,17
 343 517 343 517 347.5 545.5 c 128,-1,18
 352 574 352 574 352 587 c 0,19,20
 352 638 352 638 316 638 c 0,21,22
 291 638 291 638 272 611 c 128,-1,23
 253 584 253 584 244 546.5 c 128,-1,24
 235 509 235 509 230.5 480.5 c 128,-1,25
 226 452 226 452 226 439 c 0,26,27
 226 383 226 383 261 383 c 0,14,15
438 118 m 0,28,29
 438 174 438 174 458 230 c 128,-1,30
 478 286 478 286 521.5 327.5 c 128,-1,31
 565 369 565 369 622 369 c 0,32,33
 676 369 676 369 703 334.5 c 128,-1,34
 730 300 730 300 730 244 c 128,-1,35
 730 188 730 188 709 131.5 c 128,-1,36
 688 75 688 75 643.5 33.5 c 128,-1,37
 599 -8 599 -8 542 -8 c 0,38,39
 488 -8 488 -8 463 26.5 c 128,-1,40
 438 61 438 61 438 118 c 0,28,29
555 53 m 0,41,42
 580 53 580 53 599 79.5 c 128,-1,43
 618 106 618 106 627 142.5 c 128,-1,44
 636 179 636 179 640.5 207.5 c 128,-1,45
 645 236 645 236 645 251 c 0,46,47
 645 308 645 308 609 308 c 0,48,49
 584 308 584 308 565.5 281 c 128,-1,50
 547 254 547 254 538 216 c 128,-1,51
 529 178 529 178 525 149.5 c 128,-1,52
 521 121 521 121 521 108 c 0,53,54
 521 53 521 53 555 53 c 0,41,42
656 700 m 1,55,-1
 773 700 l 1,56,-1
 215 0 l 1,57,-1
 95 0 l 1,58,-1
 656 700 l 1,55,-1
EndSplineSet
EndChar

StartChar: ampersand
Encoding: 38 38 7
Width: 717
Flags: W
HStem: -5 100<241.614 395.373 626.194 685.852> 616 100<400.943 506.869>
VStem: 70 124<139.947 260.764> 248 119<476.069 582.625> 525 122<498.668 597.945>
DStem2: 450 372 339 326 0.566045 -0.824374<0 169.544>
LayerCount: 3
Fore
SplineSet
70 156 m 0
 70 308 171 367 287 409 c 1
 272 438 248 476 248 523 c 0
 248 619 343 716 480 716 c 0
 572 716 647 665 647 577 c 0
 647 459 537 406 450 372 c 1
 550 235 l 1
 605 288 636 342 656 389 c 1
 758 374 l 1
 724 299 671 228 599 155 c 1
 624 117 634 95 681 95 c 0
 688 95 704 96 704 96 c 1
 685 3 l 1
 667 -2 650 -5 634 -5 c 0
 575 -5 539 18 506 81 c 1
 415 14 352 -5 270 -5 c 0
 151 -5 70 44 70 156 c 0
412 444 m 1
 521 486 525 528 525 549 c 0
 525 590 493 616 462 616 c 0
 418 616 367 583 367 533 c 0
 367 494 399 465 412 444 c 1
339 326 m 1
 273 315 194 279 194 202 c 0
 194 141 245 95 311 95 c 0
 356 95 403 107 463 149 c 1
 339 326 l 1
EndSplineSet
Validated: 1
Layer: 2
SplineSet
70 156 m 0,0,1
 70 211 70 211 86.5 253 c 128,-1,2
 103 295 103 295 135.5 324.5 c 128,-1,3
 168 354 168 354 203 372.5 c 128,-1,4
 238 391 238 391 287 409 c 0,5,6
 286 412 286 412 279.5 424 c 128,-1,7
 273 436 273 436 270 441.5 c 128,-1,8
 267 447 267 447 262 459 c 128,-1,9
 257 471 257 471 254.5 479.5 c 128,-1,10
 252 488 252 488 250 500 c 128,-1,11
 248 512 248 512 248 523 c 0,12,13
 248 598 248 598 314.5 657 c 128,-1,14
 381 716 381 716 480 716 c 0,15,16
 552 716 552 716 599.5 678.5 c 128,-1,17
 647 641 647 641 647 577 c 0,18,19
 647 535 647 535 629.5 501 c 128,-1,20
 612 467 612 467 580 442.5 c 128,-1,21
 548 418 548 418 519 403 c 128,-1,22
 490 388 490 388 450 372 c 1,23,-1
 550 235 l 1,24,25
 619 301 619 301 656 389 c 1,26,-1
 758 374 l 1,27,28
 710 267 710 267 599 155 c 1,29,30
 625.490950727 114.733754895 625.490950727 114.733754895 636.995832185 106.557526008 c 0,31,32
 654.260656638 95.246223159 654.260656638 95.246223159 681 95 c 2,33,-1
 704 96 l 1,34,-1
 685 3 l 1,35,36
 656 -5 656 -5 634 -5 c 0,37,38
 589 -5 589 -5 560 14.5 c 128,-1,39
 531 34 531 34 506 81 c 1,40,41
 440 32 440 32 387 13.5 c 128,-1,42
 334 -5 334 -5 270 -5 c 0,43,44
 177 -5 177 -5 123.5 35 c 128,-1,45
 70 75 70 75 70 156 c 0,0,1
412 444 m 1,46,47
 450 459 450 459 475 474.5 c 128,-1,48
 500 490 500 490 509.5 505 c 128,-1,49
 519 520 519 520 522 529 c 128,-1,50
 525 538 525 538 525 549 c 0,51,52
 525 578 525 578 506 597 c 128,-1,53
 487 616 487 616 462 616 c 0,54,55
 427 616 427 616 397 592.5 c 128,-1,56
 367 569 367 569 367 533 c 0,57,58
 367 515 367 515 374.5 499.5 c 128,-1,59
 382 484 382 484 396 465.5 c 128,-1,60
 410 447 410 447 412 444 c 1,46,47
339 326 m 1,61,62
 280 316 280 316 237 285.5 c 128,-1,63
 194 255 194 255 194 202 c 0,64,65
 194 156 194 156 227.5 125.5 c 128,-1,66
 261 95 261 95 311 95 c 0,67,68
 386 95 386 95 463 149 c 1,69,-1
 339 326 l 1,61,62
EndSplineSet
EndChar

StartChar: quotesingle
Encoding: 39 39 8
Width: 298
Flags: W
HStem: 489 242<255 266>
VStem: 230 124
LayerCount: 3
Fore
SplineSet
266 489 m 1
 240 489 l 1
 230 612 l 1
 255 731 l 1
 354 731 l 1
 329 612 l 1
 266 489 l 1
EndSplineSet
Validated: 1
Layer: 2
SplineSet
266 489 m 1,0,-1
 240 489 l 1,1,-1
 230 612 l 1,2,-1
 255 731 l 1,3,-1
 354 731 l 1,4,-1
 329 612 l 1,5,-1
 266 489 l 1,0,-1
EndSplineSet
EndChar

StartChar: parenleft
Encoding: 40 40 9
Width: 378
Flags: W
VStem: 99 101<-62.9937 268.362>
LayerCount: 3
Fore
SplineSet
424 731 m 1
 266 514 200 265 200 64 c 0
 200 -17 211 -96 231 -167 c 1
 155 -167 l 1
 119 -83 99 13 99 114 c 0
 99 361 219 589 348 731 c 1
 424 731 l 1
EndSplineSet
Validated: 1
Layer: 2
SplineSet
424 731 m 1,0,1
 311 576 311 576 255.5 400.5 c 128,-1,2
 200 225 200 225 200 64 c 0,3,4
 200 -57 200 -57 231 -167 c 1,5,-1
 155 -167 l 1,6,7
 99 -36 99 -36 99 114 c 0,8,9
 99 288 99 288 170 451 c 128,-1,10
 241 614 241 614 348 731 c 1,11,-1
 424 731 l 1,0,1
EndSplineSet
EndChar

StartChar: parenright
Encoding: 41 41 10
Width: 378
Flags: W
VStem: 256 101<293.317 626.093>
LayerCount: 3
Fore
SplineSet
357 453 m 0
 357 205 242 -12 111 -167 c 1
 36 -167 l 1
 192 53 256 301 256 502 c 0
 256 582 245 659 223 731 c 1
 298 731 l 1
 337 650 357 554 357 453 c 0
EndSplineSet
Validated: 1
Layer: 2
SplineSet
357 453 m 0,0,1
 357 279 357 279 288.5 120.5 c 128,-1,2
 220 -38 220 -38 111 -167 c 1,3,-1
 36 -167 l 1,4,5
 147 -10 147 -10 201.5 165.5 c 128,-1,6
 256 341 256 341 256 502 c 0,7,8
 256 623 256 623 223 731 c 1,9,-1
 298 731 l 1,10,11
 357 608 357 608 357 453 c 0,0,1
EndSplineSet
EndChar

StartChar: asterisk
Encoding: 42 42 11
Width: 597
Flags: W
DStem2: 330.098 327 406.098 327 0.207912 0.978148<284.677 433.365>
LayerCount: 3
Fore
SplineSet
468 512 m 1
 532 382 l 1
 452 327 l 1
 397 463 l 1
 286 327 l 1
 228 382 l 1
 350 512 l 1
 213 558 l 1
 258 644 l 1
 386 590 l 1
 415 752 l 1
 502 752 l 1
 462 590 l 1
 615 647 l 1
 623 558 l 1
 468 512 l 1
EndSplineSet
Validated: 1
Layer: 2
SplineSet
468 512 m 1,0,-1
 532 382 l 1,1,-1
 452 327 l 1,2,-1
 397 463 l 1,3,-1
 286 327 l 1,4,-1
 228 382 l 1,5,-1
 350 512 l 1,6,-1
 213 558 l 1,7,-1
 258 644 l 1,8,-1
 386 590 l 1,9,-1
 415 752 l 1,10,-1
 502 752 l 1,11,-1
 462 590 l 1,12,-1
 615 647 l 1,13,-1
 623 558 l 1,14,-1
 468 512 l 1,0,-1
EndSplineSet
EndChar

StartChar: plus
Encoding: 43 43 12
Width: 565
Flags: W
HStem: 259 100<142 290 418 565>
DStem2: 249 64 356 64 0.207912 0.978148<22.2465 199.263 323.691 499.937>
LayerCount: 3
Fore
SplineSet
397 259 m 1
 356 64 l 1
 249 64 l 1
 290 259 l 1
 121 259 l 1
 142 359 l 1
 311 359 l 1
 353 553 l 1
 460 553 l 1
 418 359 l 1
 586 359 l 1
 565 259 l 1
 397 259 l 1
EndSplineSet
Validated: 1
Layer: 2
SplineSet
397 259 m 1,0,-1
 356 64 l 1,1,-1
 249 64 l 1,2,-1
 290 259 l 1,3,-1
 121 259 l 1,4,-1
 142 359 l 1,5,-1
 311 359 l 1,6,-1
 353 553 l 1,7,-1
 460 553 l 1,8,-1
 418 359 l 1,9,-1
 586 359 l 1,10,-1
 565 259 l 1,11,-1
 397 259 l 1,0,-1
EndSplineSet
EndChar

StartChar: comma
Encoding: 44 44 13
Width: 252
Flags: W
HStem: -161 51<29 81.3102>
VStem: 62 158<16.4136 120.448>
LayerCount: 3
Fore
SplineSet
62 60 m 0
 62 104 99 159 154 159 c 0
 204 159 220 122 220 83 c 0
 220 19 168 -139 18 -161 c 1
 29 -110 l 1
 126 -98 127 -25 132 0 c 1
 81 0 62 28 62 60 c 0
EndSplineSet
Validated: 1
Layer: 2
SplineSet
62 60 m 0,0,1
 62 96 62 96 88.5 127.5 c 128,-1,2
 115 159 115 159 154 159 c 0,3,4
 220 159 220 159 220 83 c 0,5,6
 220 56 220 56 209 20.5 c 128,-1,7
 198 -15 198 -15 176 -54 c 128,-1,8
 154 -93 154 -93 112.5 -123 c 128,-1,9
 71 -153 71 -153 18 -161 c 1,10,-1
 29 -110 l 1,11,12
 49 -108 49 -108 65 -102 c 128,-1,13
 81 -96 81 -96 91 -87 c 128,-1,14
 101 -78 101 -78 108.5 -70 c 128,-1,15
 116 -62 116 -62 120 -49.5 c 128,-1,16
 124 -37 124 -37 126 -31 c 128,-1,17
 128 -25 128 -25 130 -13 c 128,-1,18
 132 -1 132 -1 132 0 c 1,19,20
 96 0 96 0 79 17 c 128,-1,21
 62 34 62 34 62 60 c 0,0,1
EndSplineSet
EndChar

StartChar: hyphen
Encoding: 45 45 14
AltUni2: 002010.ffffffff.0
Width: 455
Flags: W
HStem: 232 100<111 461>
LayerCount: 3
Fore
SplineSet
89 232 m 1
 111 332 l 1
 483 332 l 1
 461 232 l 1
 89 232 l 1
EndSplineSet
Validated: 1
Layer: 2
SplineSet
89 232 m 1,0,-1
 111 332 l 1,1,-1
 483 332 l 1,2,-1
 461 232 l 1,3,-1
 89 232 l 1,0,-1
EndSplineSet
EndChar

StartChar: period
Encoding: 46 46 15
Width: 217
Flags: W
HStem: 0 147<95.1902 170.842>
VStem: 65 138<33.3692 115.993>
LayerCount: 3
Fore
SplineSet
203 92 m 0
 203 52 170 0 118 0 c 0
 80 0 65 28 65 57 c 0
 65 99 98 147 149 147 c 0
 187 147 203 120 203 92 c 0
EndSplineSet
Validated: 1
Layer: 2
SplineSet
203 92 m 0,0,1
 203 59 203 59 179 29.5 c 128,-1,2
 155 0 155 0 118 0 c 0,3,4
 91 0 91 0 78 16.5 c 128,-1,5
 65 33 65 33 65 57 c 0,6,7
 65 91 65 91 89 119 c 128,-1,8
 113 147 113 147 149 147 c 0,9,10
 176 147 176 147 189.5 131 c 128,-1,11
 203 115 203 115 203 92 c 0,0,1
EndSplineSet
EndChar

StartChar: slash
Encoding: 47 47 16
Width: 597
Flags: W
HStem: 0 21G<32 176.943> 680 20G<577.943 719>
DStem2: 32 0 161 0 0.626053 0.779781<80.7608 897.688>
LayerCount: 3
Fore
SplineSet
594 700 m 1
 719 700 l 1
 161 0 l 1
 32 0 l 1
 594 700 l 1
EndSplineSet
Validated: 1
Layer: 2
SplineSet
594 700 m 1,0,-1
 719 700 l 1,1,-1
 161 0 l 1,2,-1
 32 0 l 1,3,-1
 594 700 l 1,0,-1
EndSplineSet
EndChar

StartChar: zero
Encoding: 48 48 17
Width: 697
Flags: W
HStem: 0 86<315.281 465.797> 614 86<419.796 572.055>
VStem: 143 118<142.69 382.077> 626 117<316.157 555.71>
LayerCount: 3
Fore
SplineSet
743 456 m 0
 743 297 648 0 369 0 c 0
 202 0 143 105 143 236 c 0
 143 432 265 700 518 700 c 0
 686 700 743 584 743 456 c 0
500 614 m 0
 309 614 261 329 261 244 c 0
 261 159 291 86 387 86 c 0
 578 86 626 366 626 455 c 0
 626 540 597 614 500 614 c 0
EndSplineSet
Validated: 1
Layer: 2
SplineSet
743 456 m 0,0,1
 743 405 743 405 731.5 347.5 c 128,-1,2
 720 290 720 290 691.5 227 c 128,-1,3
 663 164 663 164 621.5 114.5 c 128,-1,4
 580 65 580 65 514.5 32.5 c 128,-1,5
 449 0 449 0 369 0 c 0,6,7
 251 0 251 0 197 64.5 c 128,-1,8
 143 129 143 129 143 236 c 0,9,10
 143 296 143 296 157.5 359.5 c 128,-1,11
 172 423 172 423 202.5 484 c 128,-1,12
 233 545 233 545 276 593 c 128,-1,13
 319 641 319 641 382 670.5 c 128,-1,14
 445 700 445 700 518 700 c 0,15,16
 579 700 579 700 624 680.5 c 128,-1,17
 669 661 669 661 694 626 c 128,-1,18
 719 591 719 591 731 548.5 c 128,-1,19
 743 506 743 506 743 456 c 0,0,1
500 614 m 0,20,21
 446 614 446 614 402 583.5 c 128,-1,22
 358 553 358 553 333 508.5 c 128,-1,23
 308 464 308 464 290.5 410.5 c 128,-1,24
 273 357 273 357 267 315.5 c 128,-1,25
 261 274 261 274 261 244 c 0,26,27
 261 86 261 86 387 86 c 0,28,29
 454 86 454 86 504 130 c 128,-1,30
 554 174 554 174 578.5 238.5 c 128,-1,31
 603 303 603 303 614.5 358.5 c 128,-1,32
 626 414 626 414 626 455 c 0,33,34
 626 614 626 614 500 614 c 0,20,21
EndSplineSet
EndChar

StartChar: one
Encoding: 49 49 18
Width: 697
Flags: W
HStem: 0 21G<376 498.257> 680 20G<471 643>
DStem2: 376 0 494 0 0.207912 0.978148<24.5336 635.852>
LayerCount: 3
Fore
SplineSet
508 622 m 1
 462 580 400 528 321 479 c 1
 276 538 l 1
 331 571 447 654 495 700 c 1
 643 700 l 1
 494 0 l 1
 376 0 l 1
 508 622 l 1
EndSplineSet
Validated: 1
Layer: 2
SplineSet
508 622 m 1,0,1
 416 538 416 538 321 479 c 1,2,-1
 276 538 l 1,3,4
 321 565 321 565 391 616 c 128,-1,5
 461 667 461 667 495 700 c 1,6,-1
 643 700 l 1,7,-1
 494 0 l 1,8,-1
 376 0 l 1,9,-1
 508 622 l 1,0,1
EndSplineSet
EndChar

StartChar: two
Encoding: 50 50 19
Width: 697
Flags: W
HStem: 0 86<285 668> 628 86<422.593 605.937>
VStem: 207 122<440.624 547.496> 665 119<479.091 580.372>
LayerCount: 3
Fore
SplineSet
207 460 m 0
 207 589 345 714 546 714 c 0
 712 714 784 625 784 541 c 0
 784 435 685 364 511 276 c 0
 447 244 380 205 315 144 c 0
 299 130 292 118 285 86 c 1
 686 86 l 1
 668 0 l 1
 116 0 l 1
 134 83 158 154 228 216 c 0
 312 290 393 328 488 372 c 0
 622 433 665 488 665 531 c 0
 665 587 592 628 515 628 c 0
 427 628 329 572 329 483 c 0
 329 469 331 455 335 441 c 1
 220 400 l 1
 210 421 207 440 207 460 c 0
EndSplineSet
Validated: 1
Layer: 2
SplineSet
207 460 m 0,0,1
 207 561 207 561 303.5 637.5 c 128,-1,2
 400 714 400 714 546 714 c 0,3,4
 662 714 662 714 723 662.5 c 128,-1,5
 784 611 784 611 784 541 c 0,6,7
 784 466 784 466 718.5 407 c 128,-1,8
 653 348 653 348 511 276 c 0,9,10
 393 217 393 217 315 144 c 0,11,12
 294 125 294 125 285 86 c 1,13,-1
 686 86 l 1,14,-1
 668 0 l 1,15,-1
 116 0 l 1,16,17
 132 72 132 72 156 122.5 c 128,-1,18
 180 173 180 173 228 216 c 0,19,20
 268 251 268 251 314.5 281 c 128,-1,21
 361 311 361 311 394 327.5 c 128,-1,22
 427 344 427 344 488 372 c 0,23,24
 665 453 665 453 665 531 c 0,25,26
 665 572 665 572 619.5 600 c 128,-1,27
 574 628 574 628 515 628 c 0,28,29
 444 628 444 628 386.5 587 c 128,-1,30
 329 546 329 546 329 483 c 0,31,32
 329 462 329 462 335 441 c 1,33,-1
 220 400 l 1,34,35
 207 427 207 427 207 460 c 0,0,1
EndSplineSet
EndChar

StartChar: three
Encoding: 51 51 20
Width: 697
Flags: W
HStem: -8 86<306.211 511.149> 326 82<410 558.593> 620 86<436.209 617.977>
VStem: 140 120<119.269 212> 608 116<161.823 285.117> 649 120<472.689 590.504>
LayerCount: 3
Fore
SplineSet
464 408 m 0xf8
 505 408 649 425 649 535 c 0
 649 574 627 620 528 620 c 0
 424 620 361 552 350 501 c 1
 232 501 l 1
 262 644 413 706 557 706 c 0
 715 706 769 623 769 548 c 0xf4
 769 445 678 396 604 377 c 1
 602 368 l 1
 661 359 724 313 724 232 c 0
 724 88 575 -8 390 -8 c 0
 256 -8 140 39 140 162 c 0
 140 177 142 194 146 212 c 1
 264 212 l 1
 262 201 260 190 260 180 c 0
 260 101 336 78 406 78 c 0
 515 78 608 139 608 231 c 0
 608 316 503 326 423 326 c 2
 391 326 l 1
 410 412 l 1
 431 412 448 408 464 408 c 0xf8
EndSplineSet
Validated: 1
Layer: 2
SplineSet
464 408 m 0,0,1
 485 408 485 408 511 413 c 128,-1,2
 537 418 537 418 571 430 c 128,-1,3
 605 442 605 442 627 469.5 c 128,-1,4
 649 497 649 497 649 535 c 0,5,6
 649 620 649 620 528 620 c 0,7,8
 456 620 456 620 407.5 582.5 c 128,-1,9
 359 545 359 545 350 501 c 1,10,-1
 232 501 l 1,11,12
 246 569 246 569 297.5 617 c 128,-1,13
 349 665 349 665 415.5 685.5 c 128,-1,14
 482 706 482 706 557 706 c 0,15,16
 666 706 666 706 717.5 659.5 c 128,-1,17
 769 613 769 613 769 548 c 0,18,19
 769 478 769 478 720.5 436 c 128,-1,20
 672 394 672 394 604 377 c 1,21,-1
 602 368 l 1,22,23
 651 361 651 361 687.5 325 c 128,-1,24
 724 289 724 289 724 232 c 0,25,26
 724 126 724 126 628 59 c 128,-1,27
 532 -8 532 -8 390 -8 c 0,28,29
 280 -8 280 -8 210 33.5 c 128,-1,30
 140 75 140 75 140 162 c 0,31,32
 140 185 140 185 146 212 c 1,33,-1
 264 212 l 1,34,35
 260 190 260 190 260 180 c 0,36,37
 260 126 260 126 302.5 102 c 128,-1,38
 345 78 345 78 406 78 c 0,39,40
 490 78 490 78 549 121 c 128,-1,41
 608 164 608 164 608 231 c 0,42,43
 608 326 608 326 423 326 c 2,44,-1
 391 326 l 1,45,-1
 410 412 l 1,46,47
 421 412 421 412 439 410 c 128,-1,48
 457 408 457 408 464 408 c 0,0,1
EndSplineSet
EndChar

StartChar: four
Encoding: 52 52 21
Width: 697
Flags: W
HStem: 0 21G<463 585.229> 175 86<244 500 635 737> 680 20G<551.254 729>
DStem2: 463 0 581 0 0.207912 0.978148<24.5336 178.869 291.057 620.348>
LayerCount: 3
Fore
SplineSet
618 175 m 1
 581 0 l 1
 463 0 l 1
 500 175 l 1
 106 175 l 1
 127 271 l 1
 572 700 l 1
 729 700 l 1
 635 261 l 1
 755 261 l 1
 737 175 l 1
 618 175 l 1
591 607 m 1
 244 261 l 1
 517 261 l 1
 591 607 l 1
EndSplineSet
Validated: 1
Layer: 2
SplineSet
618 175 m 1,0,-1
 581 0 l 1,1,-1
 463 0 l 1,2,-1
 500 175 l 1,3,-1
 106 175 l 1,4,-1
 127 271 l 1,5,-1
 572 700 l 1,6,-1
 729 700 l 1,7,-1
 635 261 l 1,8,-1
 755 261 l 1,9,-1
 737 175 l 1,10,-1
 618 175 l 1,0,-1
591 607 m 1,11,-1
 244 261 l 1,12,-1
 517 261 l 1,13,-1
 591 607 l 1,11,-1
EndSplineSet
EndChar

StartChar: five
Encoding: 53 53 22
Width: 697
Flags: W
HStem: -12 86<317.333 507.2> 404 86<415.131 565.572> 614 86<406 782>
VStem: 157 123<109.474 187> 620 119<190.049 351.748>
DStem2: 188 317 340 432 0.336804 0.941575<159.475 353.071>
LayerCount: 3
Fore
SplineSet
410 74 m 0
 586 74 620 226 620 281 c 0
 620 359 562 404 489 404 c 0
 429 404 358 370 306 317 c 1
 188 317 l 1
 325 700 l 1
 787 700 l 1
 782 614 l 1
 406 614 l 1
 340 432 l 1
 386 454 433 490 545 490 c 0
 680 490 739 417 739 308 c 0
 739 176 671 -12 400 -12 c 0
 174 -12 157 97 157 165 c 0
 157 173 158 180 158 187 c 1
 281 187 l 1
 281 183 280 179 280 175 c 0
 280 103 327 74 410 74 c 0
EndSplineSet
Validated: 1
Layer: 2
SplineSet
410 74 m 0,0,1
 472 74 472 74 516.5 98 c 128,-1,2
 561 122 561 122 581.5 158 c 128,-1,3
 602 194 602 194 611 224.5 c 128,-1,4
 620 255 620 255 620 281 c 0,5,6
 620 338 620 338 583 371 c 128,-1,7
 546 404 546 404 489 404 c 0,8,9
 444 404 444 404 394.5 380.5 c 128,-1,10
 345 357 345 357 306 317 c 1,11,-1
 188 317 l 1,12,-1
 325 700 l 1,13,-1
 787 700 l 1,14,-1
 782 614 l 1,15,-1
 406 614 l 1,16,-1
 340 432 l 1,17,18
 346 435 346 435 367 446 c 128,-1,19
 388 457 388 457 401 462.5 c 128,-1,20
 414 468 414 468 436.5 475.5 c 128,-1,21
 459 483 459 483 486 486.5 c 128,-1,22
 513 490 513 490 545 490 c 0,23,24
 643 490 643 490 691 441.5 c 128,-1,25
 739 393 739 393 739 308 c 0,26,27
 739 265 739 265 730 223.5 c 128,-1,28
 721 182 721 182 697 138.5 c 128,-1,29
 673 95 673 95 636.5 62.5 c 128,-1,30
 600 30 600 30 539 9 c 128,-1,31
 478 -12 478 -12 400 -12 c 0,32,33
 335 -12 335 -12 288 0.5 c 128,-1,34
 241 13 241 13 216.5 30.5 c 128,-1,35
 192 48 192 48 178 74 c 128,-1,36
 164 100 164 100 160.5 120 c 128,-1,37
 157 140 157 140 157 165 c 0,38,39
 157 169 157 169 157.5 176.5 c 128,-1,40
 158 184 158 184 158 187 c 2,41,-1
 281 187 l 2,42,43
 281 185 281 185 280.5 181 c 128,-1,44
 280 177 280 177 280 175 c 0,45,46
 280 74 280 74 410 74 c 0,0,1
EndSplineSet
EndChar

StartChar: six
Encoding: 54 54 23
Width: 697
Flags: W
HStem: -12 86<331.644 506.396> 379 86<410.953 561.741> 627 86<446.282 630.495>
VStem: 166 123<116.57 276.747> 608 121<179.393 335.428>
LayerCount: 3
Fore
SplineSet
729 287 m 0
 729 160 638 -12 410 -12 c 0
 223 -12 166 86 166 210 c 0
 166 249 172 290 181 332 c 0
 248 647 439 713 562 713 c 0
 679 713 771 672 782 553 c 1
 668 553 l 1
 652 610 603 627 536 627 c 0
 468 627 354 592 310 385 c 1
 366 427 434 465 523 465 c 0
 659 465 729 394 729 287 c 0
415 74 m 0
 548 74 608 178 608 266 c 0
 608 345 550 379 483 379 c 0
 363 379 289 288 289 186 c 0
 289 120 327 74 415 74 c 0
EndSplineSet
Validated: 1
Layer: 2
SplineSet
729 287 m 0,0,1
 729 237 729 237 710.5 186.5 c 128,-1,2
 692 136 692 136 655.5 90.5 c 128,-1,3
 619 45 619 45 555 16.5 c 128,-1,4
 491 -12 491 -12 410 -12 c 0,5,6
 166 -12 166 -12 166 210 c 0,7,8
 166 262 166 262 181 332 c 0,9,10
 200 422 200 422 234.5 492 c 128,-1,11
 269 562 269 562 308 602.5 c 128,-1,12
 347 643 347 643 394 669 c 128,-1,13
 441 695 441 695 481 704 c 128,-1,14
 521 713 521 713 562 713 c 0,15,16
 767 713 767 713 782 553 c 1,17,-1
 668 553 l 1,18,19
 647 627 647 627 536 627 c 0,20,21
 513 627 513 627 490.5 622 c 128,-1,22
 468 617 468 617 440 601 c 128,-1,23
 412 585 412 585 389 559.5 c 128,-1,24
 366 534 366 534 344.5 489 c 128,-1,25
 323 444 323 444 310 385 c 1,26,27
 417 465 417 465 523 465 c 0,28,29
 623 465 623 465 676 417 c 128,-1,30
 729 369 729 369 729 287 c 0,0,1
415 74 m 0,31,32
 508 74 508 74 558 133 c 128,-1,33
 608 192 608 192 608 266 c 0,34,35
 608 322 608 322 572.5 350.5 c 128,-1,36
 537 379 537 379 483 379 c 0,37,38
 396 379 396 379 342.5 322.5 c 128,-1,39
 289 266 289 266 289 186 c 0,40,41
 289 134 289 134 320 104 c 128,-1,42
 351 74 351 74 415 74 c 0,31,32
EndSplineSet
EndChar

StartChar: seven
Encoding: 55 55 24
Width: 697
Flags: W
HStem: 0 21G<231 386> 614 86<281 680>
VStem: 231 145<0 67.9238>
LayerCount: 3
Fore
SplineSet
477 253 m 1
 422 158 396 92 376 0 c 1
 231 0 l 1
 252 98 321 224 409 339 c 0
 483 435 576 529 680 614 c 1
 263 614 l 1
 281 700 l 1
 810 700 l 1
 790 607 l 1
 668 513 551 376 477 253 c 1
EndSplineSet
Validated: 1
Layer: 2
SplineSet
477 253 m 1,0,1
 403 126 403 126 376 0 c 1,2,-1
 231 0 l 1,3,4
 263 148 263 148 409 339 c 0,5,6
 520 484 520 484 680 614 c 1,7,-1
 263 614 l 1,8,-1
 281 700 l 1,9,-1
 810 700 l 1,10,-1
 790 607 l 1,11,12
 701 538 701 538 617.5 443 c 128,-1,13
 534 348 534 348 477 253 c 1,0,1
EndSplineSet
EndChar

StartChar: eight
Encoding: 56 56 25
Width: 697
Flags: W
HStem: -6 86<322.05 498.384> 349 86<403.349 555.097> 619 86<433.791 599.717>
VStem: 151 120<125.569 263.058> 254 116<464.204 564.818> 600 119<170.45 308.331> 632 123<496.864 589.985>
LayerCount: 3
Fore
SplineSet
254 513 m 0xe8
 254 628 385 705 539 705 c 0
 634 705 755 671 755 572 c 0xea
 755 536 738 440 584 392 c 1
 612 383 719 354 719 252 c 0
 719 169 643 -6 388 -6 c 0
 200 -6 151 87 151 170 c 0xf4
 151 347 341 386 360 392 c 1
 299 414 254 452 254 513 c 0xe8
406 80 m 0
 521 80 600 161 600 245 c 0
 600 294 571 349 463 349 c 0
 322 349 271 253 271 189 c 0xf4
 271 130 314 80 406 80 c 0
481 435 m 0
 562 435 632 482 632 542 c 0
 632 586 590 619 521 619 c 0
 440 619 370 572 370 512 c 0xea
 370 468 412 435 481 435 c 0
EndSplineSet
Validated: 1
Layer: 2
SplineSet
254 513 m 0,0,1
 254 597 254 597 337.5 651 c 128,-1,2
 421 705 421 705 539 705 c 0,3,4
 577 705 577 705 613 698 c 128,-1,5
 649 691 649 691 682 676 c 128,-1,6
 715 661 715 661 735 634 c 128,-1,7
 755 607 755 607 755 572 c 0,8,9
 755 554 755 554 749.5 534.5 c 128,-1,10
 744 515 744 515 728 487.5 c 128,-1,11
 712 460 712 460 675 434.5 c 128,-1,12
 638 409 638 409 584 392 c 1,13,14
 603 386 603 386 610 383.5 c 128,-1,15
 617 381 617 381 642.5 368.5 c 128,-1,16
 668 356 668 356 681 342.5 c 128,-1,17
 694 329 694 329 706.5 305 c 128,-1,18
 719 281 719 281 719 252 c 0,19,20
 719 225 719 225 709.5 193.5 c 128,-1,21
 700 162 700 162 675.5 125.5 c 128,-1,22
 651 89 651 89 615 60.5 c 128,-1,23
 579 32 579 32 520 13 c 128,-1,24
 461 -6 461 -6 388 -6 c 0,25,26
 321 -6 321 -6 272.5 9.5 c 128,-1,27
 224 25 224 25 198.5 51.5 c 128,-1,28
 173 78 173 78 162 107 c 128,-1,29
 151 136 151 136 151 170 c 0,30,31
 151 196 151 196 156.5 219 c 128,-1,32
 162 242 162 242 171 260.5 c 128,-1,33
 180 279 180 279 193 295 c 128,-1,34
 206 311 206 311 219 323 c 128,-1,35
 232 335 232 335 248.5 345.5 c 128,-1,36
 265 356 265 356 278 362.5 c 128,-1,37
 291 369 291 369 306.5 375 c 128,-1,38
 322 381 322 381 331 383.5 c 128,-1,39
 340 386 340 386 350 389 c 2,40,-1
 360 392 l 1,41,42
 254 430 254 430 254 513 c 0,0,1
406 80 m 0,43,44
 490 80 490 80 545 130 c 128,-1,45
 600 180 600 180 600 245 c 0,46,47
 600 289 600 289 568.5 319 c 128,-1,48
 537 349 537 349 463 349 c 0,49,50
 397 349 397 349 351.5 321.5 c 128,-1,51
 306 294 306 294 288.5 259.5 c 128,-1,52
 271 225 271 225 271 189 c 0,53,54
 271 142 271 142 305.5 111 c 128,-1,55
 340 80 340 80 406 80 c 0,43,44
481 435 m 0,56,57
 542 435 542 435 587 466 c 128,-1,58
 632 497 632 497 632 542 c 0,59,60
 632 576 632 576 602 597.5 c 128,-1,61
 572 619 572 619 521 619 c 0,62,63
 460 619 460 619 415 588 c 128,-1,64
 370 557 370 557 370 512 c 0,65,66
 370 478 370 478 400 456.5 c 128,-1,67
 430 435 430 435 481 435 c 0,56,57
EndSplineSet
EndChar

StartChar: nine
Encoding: 57 57 26
Width: 697
Flags: W
HStem: -8 86<304.524 474.257> 246 86<375.771 531.925> 624 86<426.873 602.011>
VStem: 208 121<376.384 524.896> 643 125<431.023 586.653>
LayerCount: 3
Fore
SplineSet
768 497 m 0
 768 348 671 -8 369 -8 c 0
 177 -8 163 115 159 156 c 1
 266 156 l 1
 281 99 326 78 392 78 c 0
 503 78 595 185 627 337 c 1
 605 315 547 246 418 246 c 0
 282 246 208 312 208 419 c 0
 208 545 303 710 521 710 c 0
 709 710 768 619 768 497 c 0
455 332 m 0
 550 332 643 399 643 516 c 0
 643 571 617 624 521 624 c 0
 367 624 329 502 329 442 c 0
 329 367 388 332 455 332 c 0
EndSplineSet
Validated: 1
Layer: 2
SplineSet
768 497 m 0,0,1
 768 457 768 457 759 407.5 c 128,-1,2
 750 358 750 358 732 300 c 128,-1,3
 714 242 714 242 681.5 188.5 c 128,-1,4
 649 135 649 135 607 90.5 c 128,-1,5
 565 46 565 46 503 19 c 128,-1,6
 441 -8 441 -8 369 -8 c 0,7,8
 315 -8 315 -8 274 6 c 128,-1,9
 233 20 233 20 213 37.5 c 128,-1,10
 193 55 193 55 180 81.5 c 128,-1,11
 167 108 167 108 164 122.5 c 128,-1,12
 161 137 161 137 159 156 c 1,13,-1
 266 156 l 1,14,15
 287 78 287 78 392 78 c 0,16,17
 474 78 474 78 538.5 150 c 128,-1,18
 603 222 603 222 627 337 c 1,19,-1
 619.5 329.5 l 2,20,21
 612 322 612 322 609 319 c 128,-1,22
 606 316 606 316 596.5 307.5 c 128,-1,23
 587 299 587 299 581 295 c 128,-1,24
 575 291 575 291 563 283.5 c 128,-1,25
 551 276 551 276 541 271.5 c 128,-1,26
 531 267 531 267 516 261.5 c 128,-1,27
 501 256 501 256 487 253 c 128,-1,28
 473 250 473 250 455 248 c 128,-1,29
 437 246 437 246 418 246 c 0,30,31
 317 246 317 246 262.5 292 c 128,-1,32
 208 338 208 338 208 419 c 0,33,34
 208 468 208 468 227 518 c 128,-1,35
 246 568 246 568 282 611.5 c 128,-1,36
 318 655 318 655 380.5 682.5 c 128,-1,37
 443 710 443 710 521 710 c 0,38,39
 768 710 768 710 768 497 c 0,0,1
455 332 m 0,40,41
 531 332 531 332 587 382 c 128,-1,42
 643 432 643 432 643 516 c 0,43,44
 643 624 643 624 521 624 c 0,45,46
 477 624 477 624 442 610.5 c 128,-1,47
 407 597 407 597 386.5 577 c 128,-1,48
 366 557 366 557 352.5 531.5 c 128,-1,49
 339 506 339 506 334 484 c 128,-1,50
 329 462 329 462 329 442 c 0,51,52
 329 389 329 389 365 360.5 c 128,-1,53
 401 332 401 332 455 332 c 0,40,41
EndSplineSet
EndChar

StartChar: colon
Encoding: 58 58 27
Width: 294
Flags: W
HStem: 2 145<119.829 195.307> 383 146<202.401 276.737>
VStem: 89 137<34.7019 116.424> 170 137<413.604 496.809>
LayerCount: 3
Fore
SplineSet
307 474 m 0xd0
 307 434 277 383 224 383 c 0
 185 383 170 411 170 439 c 0
 170 478 204 529 255 529 c 0
 292 529 307 502 307 474 c 0xd0
226 94 m 0xe0
 226 54 195 2 143 2 c 0
 105 2 89 29 89 58 c 0
 89 100 123 147 174 147 c 0
 212 147 226 122 226 94 c 0xe0
EndSplineSet
Validated: 1
Layer: 2
SplineSet
307 474 m 0,0,1
 307 441 307 441 284 412 c 128,-1,2
 261 383 261 383 224 383 c 0,3,4
 197 383 197 383 183.5 399.5 c 128,-1,5
 170 416 170 416 170 439 c 0,6,7
 170 471 170 471 194.5 500 c 128,-1,8
 219 529 219 529 255 529 c 0,9,10
 281 529 281 529 294 513 c 128,-1,11
 307 497 307 497 307 474 c 0,0,1
226 94 m 0,12,13
 226 61 226 61 202.5 31.5 c 128,-1,14
 179 2 179 2 143 2 c 0,15,16
 116 2 116 2 102.5 18 c 128,-1,17
 89 34 89 34 89 58 c 0,18,19
 89 92 89 92 113.5 119.5 c 128,-1,20
 138 147 138 147 174 147 c 0,21,22
 226 147 226 147 226 94 c 0,12,13
EndSplineSet
EndChar

StartChar: semicolon
Encoding: 59 59 28
Width: 320
Flags: W
HStem: -161 51<56 108.31> 379 145<205.332 280.599>
VStem: 89 158<16.4136 120.448> 174 139<411.191 491.959>
LayerCount: 3
Fore
SplineSet
89 60 m 0xe0
 89 104 126 159 181 159 c 0
 231 159 247 122 247 83 c 0
 247 19 195 -139 45 -161 c 1
 56 -110 l 1
 153 -98 154 -25 159 0 c 1
 108 0 89 28 89 60 c 0xe0
313 468 m 0xd0
 313 429 279 379 228 379 c 0
 190 379 174 406 174 434 c 0
 174 473 206 524 258 524 c 0
 296 524 313 496 313 468 c 0xd0
EndSplineSet
Validated: 1
Layer: 2
SplineSet
89 60 m 0,0,1
 89 96 89 96 115.5 127.5 c 128,-1,2
 142 159 142 159 181 159 c 0,3,4
 247 159 247 159 247 83 c 0,5,6
 247 56 247 56 236 20.5 c 128,-1,7
 225 -15 225 -15 203 -54 c 128,-1,8
 181 -93 181 -93 139.5 -123 c 128,-1,9
 98 -153 98 -153 45 -161 c 1,10,-1
 56 -110 l 1,11,12
 76 -108 76 -108 92 -102 c 128,-1,13
 108 -96 108 -96 118 -87 c 128,-1,14
 128 -78 128 -78 135.5 -70 c 128,-1,15
 143 -62 143 -62 147 -49.5 c 128,-1,16
 151 -37 151 -37 153 -31 c 128,-1,17
 155 -25 155 -25 157 -13 c 128,-1,18
 159 -1 159 -1 159 0 c 1,19,20
 123 0 123 0 106 17 c 128,-1,21
 89 34 89 34 89 60 c 0,0,1
313 468 m 0,22,23
 313 436 313 436 288.5 407.5 c 128,-1,24
 264 379 264 379 228 379 c 0,25,26
 201 379 201 379 187.5 395 c 128,-1,27
 174 411 174 411 174 434 c 0,28,29
 174 466 174 466 197.5 495 c 128,-1,30
 221 524 221 524 258 524 c 0,31,32
 285 524 285 524 299 507.5 c 128,-1,33
 313 491 313 491 313 468 c 0,22,23
EndSplineSet
EndChar

StartChar: less
Encoding: 60 60 29
Width: 597
Flags: W
DStem2: 237 299 127 247 0.912337 -0.409439<0 349.363> 149 351 237 299 0.936959 0.34944<64.2815 466.913>
LayerCount: 3
Fore
SplineSet
127 247 m 1
 149 351 l 1
 637 533 l 1
 616 435 l 1
 237 299 l 1
 558 161 l 1
 537 63 l 1
 127 247 l 1
EndSplineSet
Validated: 1
Layer: 2
SplineSet
127 247 m 1,0,-1
 149 351 l 1,1,-1
 637 533 l 1,2,-1
 616 435 l 1,3,-1
 237 299 l 1,4,-1
 558 161 l 1,5,-1
 537 63 l 1,6,-1
 127 247 l 1,0,-1
EndSplineSet
EndChar

StartChar: equal
Encoding: 61 61 30
Width: 544
Flags: W
HStem: 138 92<115 526> 402 90<171 582>
LayerCount: 3
Fore
SplineSet
151 402 m 1
 171 492 l 1
 602 492 l 1
 582 402 l 1
 151 402 l 1
95 138 m 1
 115 230 l 1
 546 230 l 1
 526 138 l 1
 95 138 l 1
EndSplineSet
Validated: 1
Layer: 2
SplineSet
151 402 m 1,0,-1
 171 492 l 1,1,-1
 602 492 l 1,2,-1
 582 402 l 1,3,-1
 151 402 l 1,0,-1
95 138 m 1,4,-1
 115 230 l 1,5,-1
 546 230 l 1,6,-1
 526 138 l 1,7,-1
 95 138 l 1,4,-1
EndSplineSet
EndChar

StartChar: greater
Encoding: 62 62 31
Width: 597
Flags: W
DStem2: 108 161 87 63 0.936172 0.351542<0 403.322> 187 533 166 435 0.914725 -0.404077<20.3904 368.972>
LayerCount: 3
Fore
SplineSet
87 63 m 1
 108 161 l 1
 487 299 l 1
 166 435 l 1
 187 533 l 1
 599 351 l 1
 577 247 l 1
 87 63 l 1
EndSplineSet
Validated: 1
Layer: 2
SplineSet
87 63 m 1,0,-1
 108 161 l 1,1,-1
 487 299 l 1,2,-1
 166 435 l 1,3,-1
 187 533 l 1,4,-1
 599 351 l 1,5,-1
 577 247 l 1,6,-1
 87 63 l 1,0,-1
EndSplineSet
EndChar

StartChar: question
Encoding: 63 63 32
Width: 538
Flags: W
HStem: -2 115<241.92 318.835> 369 147<254.029 317.809> 626 81<316.992 447.693>
VStem: 166 86<434 559.731> 221 118<18.517 92.7302> 252 81<141 207.047> 477 120<462.812 596.009>
LayerCount: 3
Fore
SplineSet
166 470 m 0xf2
 166 580 268 707 421 707 c 0
 486 707 597 676 597 559 c 0
 597 479 550 392 472 325 c 0
 393 257 356 247 333 141 c 1
 252 141 l 1xe6
 270 226 278 234 326 305 c 0
 374 376 477 438 477 539 c 0
 477 595 435 626 385 626 c 0
 302 626 252 549 252 508 c 0
 252 505 252 503 253 500 c 1
 275 511 294 516 309 516 c 0
 342 516 357 492 357 464 c 0
 357 407 303 369 256 369 c 0
 216 369 166 398 166 470 c 0xf2
221 42 m 0xea
 221 76 249 113 292 113 c 0
 324 113 339 92 339 68 c 0
 339 36 312 -2 268 -2 c 0
 236 -2 221 18 221 42 c 0xea
EndSplineSet
Validated: 1
Layer: 2
SplineSet
166 470 m 0,0,1
 166 558 166 558 239 632.5 c 128,-1,2
 312 707 312 707 421 707 c 0,3,4
 448 707 448 707 476 700 c 128,-1,5
 504 693 504 693 532.5 677.5 c 128,-1,6
 561 662 561 662 579 631 c 128,-1,7
 597 600 597 600 597 559 c 0,8,9
 597 499 597 499 564 437 c 128,-1,10
 531 375 531 375 472 325 c 0,11,12
 458 313 458 313 430.5 291 c 128,-1,13
 403 269 403 269 394 260 c 128,-1,14
 385 251 385 251 370 233 c 128,-1,15
 355 215 355 215 347.5 193.5 c 128,-1,16
 340 172 340 172 333 141 c 1,17,-1
 252 141 l 1,18,19
 261 184 261 184 270 208.5 c 128,-1,20
 279 233 279 233 287.5 247 c 128,-1,21
 296 261 296 261 326 305 c 0,22,23
 341 327 341 327 383.5 370.5 c 128,-1,24
 426 414 426 414 451.5 454 c 128,-1,25
 477 494 477 494 477 539 c 0,26,27
 477 580 477 580 450.5 603 c 128,-1,28
 424 626 424 626 385 626 c 0,29,30
 328 626 328 626 290 585.5 c 128,-1,31
 252 545 252 545 252 508 c 0,32,33
 252 503 252 503 253 500 c 1,34,35
 285 516 285 516 309 516 c 256,36,37
 333 516 333 516 345 501 c 128,-1,38
 357 486 357 486 357 464 c 0,39,40
 357 423 357 423 325.5 396 c 128,-1,41
 294 369 294 369 256 369 c 0,42,43
 221 369 221 369 193.5 394.5 c 128,-1,44
 166 420 166 420 166 470 c 0,0,1
221 42 m 0,45,46
 221 69 221 69 241 91 c 128,-1,47
 261 113 261 113 292 113 c 0,48,49
 315 113 315 113 327 100 c 128,-1,50
 339 87 339 87 339 68 c 0,51,52
 339 42 339 42 319 20 c 128,-1,53
 299 -2 299 -2 268 -2 c 0,54,55
 245 -2 245 -2 233 10.5 c 128,-1,56
 221 23 221 23 221 42 c 0,45,46
EndSplineSet
EndChar

StartChar: at
Encoding: 64 64 33
Width: 784
Flags: W
HStem: -26 80<326.913 526.556> 135 98<341.711 432.108> 135 64<518 638.446> 440 96<428.871 531.599> 644 79<440.939 645.767>
VStem: 119 87<171.458 384.297> 257 108<245.74 365.088> 735 89<363.904 556.784>
LayerCount: 3
Fore
SplineSet
119 252 m 0xbf
 119 493 321 723 562 723 c 0
 718 723 824 621 824 482 c 0
 824 397 766 135 532 135 c 0
 504 135 482 148 482 179 c 0
 482 184 482 189 483 195 c 1
 434 152 403 138 376 138 c 0
 306 138 257 195 257 271 c 0
 257 371 351 536 493 536 c 0
 534 536 563 523 592 472 c 1
 614 530 l 1
 694 530 l 1
 622 323 590 245 584 216 c 0
 580 199 585 199 596 199 c 0
 647 199 735 326 735 463 c 0
 735 582 660 644 543 644 c 0
 349 644 206 455 206 274 c 0
 206 136 299 54 433 54 c 0
 498 54 563 80 621 121 c 1
 705 121 l 1
 614 32 529 -26 408 -26 c 0
 225 -26 119 86 119 252 c 0xbf
485 440 m 0
 424 440 365 367 365 298 c 0
 365 261 384 233 421 233 c 0xdf
 495 233 543 319 543 377 c 0
 543 415 523 440 485 440 c 0
EndSplineSet
Validated: 1
Layer: 2
SplineSet
119 252 m 0,0,1
 119 341 119 341 154.5 427 c 128,-1,2
 190 513 190 513 249.5 578 c 128,-1,3
 309 643 309 643 391.5 683 c 128,-1,4
 474 723 474 723 562 723 c 0,5,6
 678 723 678 723 751 655 c 128,-1,7
 824 587 824 587 824 482 c 0,8,9
 824 452 824 452 816.5 413 c 128,-1,10
 809 374 809 374 788 323.5 c 128,-1,11
 767 273 767 273 736 232 c 128,-1,12
 705 191 705 191 651.5 163 c 128,-1,13
 598 135 598 135 532 135 c 0,14,15
 482 135 482 135 482 179 c 0,16,17
 482 189 482 189 483 195 c 1,18,19
 418 138 418 138 376 138 c 0,20,21
 324 138 324 138 290.5 176 c 128,-1,22
 257 214 257 214 257 271 c 0,23,24
 257 324 257 324 285.5 384 c 128,-1,25
 314 444 314 444 370 490 c 128,-1,26
 426 536 426 536 493 536 c 0,27,28
 526 536 526 536 548.5 522.5 c 128,-1,29
 571 509 571 509 592 472 c 1,30,-1
 614 530 l 1,31,-1
 694 530 l 1,32,33
 665 447 665 447 636.5 368 c 128,-1,34
 608 289 608 289 597.5 259 c 128,-1,35
 587 229 587 229 584 216 c 0,36,37
 581 204 581 204 583.5 201.5 c 128,-1,38
 586 199 586 199 596 199 c 0,39,40
 638 199 638 199 686.5 282.5 c 128,-1,41
 735 366 735 366 735 463 c 0,42,43
 735 551 735 551 683.5 597.5 c 128,-1,44
 632 644 632 644 543 644 c 0,45,46
 450 644 450 644 371 589 c 128,-1,47
 292 534 292 534 249 449.5 c 128,-1,48
 206 365 206 365 206 274 c 0,49,50
 206 172 206 172 268.5 113 c 128,-1,51
 331 54 331 54 433 54 c 0,52,53
 526 54 526 54 621 121 c 1,54,-1
 705 121 l 1,55,56
 630 47 630 47 561.5 10.5 c 128,-1,57
 493 -26 493 -26 408 -26 c 0,58,59
 273 -26 273 -26 196 50 c 128,-1,60
 119 126 119 126 119 252 c 0,0,1
485 440 m 0,61,62
 440 440 440 440 402.5 395 c 128,-1,63
 365 350 365 350 365 298 c 0,64,65
 365 269 365 269 379.5 251 c 128,-1,66
 394 233 394 233 421 233 c 0,67,68
 473 233 473 233 508 280.5 c 128,-1,69
 543 328 543 328 543 377 c 0,70,71
 543 406 543 406 528 423 c 128,-1,72
 513 440 513 440 485 440 c 0,61,62
EndSplineSet
EndChar

StartChar: A
Encoding: 65 65 34
Width: 628
Flags: W
HStem: 0 21G<25 151 458.933 584> 150 100<263 445> 680 20G<357.229 541.257>
DStem2: 25 0 141 0 0.43898 0.898497<50.9217 218.62 329.101 709.258>
LayerCount: 3
Fore
SplineSet
460 0 m 1
 452 150 l 1
 216 150 l 1
 141 0 l 1
 25 0 l 1
 367 700 l 1
 540 700 l 1
 584 0 l 1
 460 0 l 1
429 592 m 1
 263 250 l 1
 445 250 l 1
 429 592 l 1
EndSplineSet
Validated: 1
Layer: 2
SplineSet
460 0 m 1,0,-1
 452 150 l 1,1,-1
 216 150 l 1,2,-1
 141 0 l 1,3,-1
 25 0 l 1,4,-1
 367 700 l 1,5,-1
 540 700 l 1,6,-1
 584 0 l 1,7,-1
 460 0 l 1,0,-1
429 592 m 1,8,-1
 263 250 l 1,9,-1
 445 250 l 1,10,-1
 429 592 l 1,8,-1
EndSplineSet
EndChar

StartChar: B
Encoding: 66 66 35
Width: 646
Flags: W
HStem: 0 100<222 452.007> 311 100<288 496.016> 600 100<329 549.146>
VStem: 520 113<161.768 286.971> 569 124<479.025 579.043>
DStem2: 83 0 200.744 0 0.207912 0.978148<126.714 342.46 444.641 638.035>
LayerCount: 3
Fore
SplineSet
633 225 m 0xf0
 633 135 576 0 365 0 c 2
 83 0 l 1
 232 700 l 1
 514 700 l 2
 647 700 693 645 693 572 c 0xe8
 693 505 655 399 535 366 c 1
 531 357 l 1
 600 341 633 290 633 225 c 0xf0
415 411 m 2
 550 411 569 498 569 535 c 0
 569 578 536 600 444 600 c 2
 329 600 l 1
 288 411 l 1
 415 411 l 2
351 100 m 2
 499 100 520 191 520 237 c 0xf0
 520 296 469 311 403 311 c 2
 267 311 l 1
 222 100 l 1
 351 100 l 2
EndSplineSet
Validated: 1
Layer: 2
SplineSet
633 225 m 0,0,1
 633 188 633 188 620 151.5 c 128,-1,2
 607 115 607 115 578.5 79.5 c 128,-1,3
 550 44 550 44 495 22 c 128,-1,4
 440 0 440 0 365 0 c 2,5,-1
 83 0 l 1,6,-1
 232 700 l 1,7,-1
 514 700 l 2,8,9
 693 700 693 700 693 572 c 0,10,11
 693 534 693 534 679.5 496 c 128,-1,12
 666 458 666 458 628.5 419.5 c 128,-1,13
 591 381 591 381 535 366 c 1,14,-1
 531 357 l 1,15,16
 581 345 581 345 607 310 c 128,-1,17
 633 275 633 275 633 225 c 0,0,1
415 411 m 2,18,19
 453 411 453 411 482.5 420.5 c 128,-1,20
 512 430 512 430 528 443.5 c 128,-1,21
 544 457 544 457 553.5 475.5 c 128,-1,22
 563 494 563 494 566 508 c 128,-1,23
 569 522 569 522 569 535 c 0,24,25
 569 568 569 568 540 584 c 128,-1,26
 511 600 511 600 444 600 c 2,27,-1
 329 600 l 1,28,-1
 288 411 l 1,29,-1
 415 411 l 2,18,19
351 100 m 2,30,31
 403 100 403 100 439 114.5 c 128,-1,32
 475 129 475 129 491.5 152 c 128,-1,33
 508 175 508 175 514 195.5 c 128,-1,34
 520 216 520 216 520 237 c 0,35,36
 520 311 520 311 403 311 c 2,37,-1
 267 311 l 1,38,-1
 222 100 l 1,39,-1
 351 100 l 2,30,31
EndSplineSet
EndChar

StartChar: C
Encoding: 67 67 36
Width: 646
Flags: W
HStem: -5 100<293.199 429.302> 616 100<398.156 529.12>
VStem: 114 121<160.779 394.802> 570 126<471 573.016>
LayerCount: 3
Fore
SplineSet
460 616 m 0
 344 616 235 422 235 270 c 0
 235 180 268 95 356 95 c 0
 438 95 502 167 528 235 c 1
 643 227 l 1
 590 80 467 -5 328 -5 c 0
 180 -5 114 100 114 241 c 0
 114 452 245 716 485 716 c 0
 626 716 696 639 696 503 c 0
 696 493 696 482 695 471 c 1
 567 461 l 1
 569 472 570 483 570 494 c 0
 570 559 539 616 460 616 c 0
EndSplineSet
Validated: 1
Layer: 2
SplineSet
460 616 m 256,0,1
 404 616 404 616 351 561.5 c 128,-1,2
 298 507 298 507 266.5 426.5 c 128,-1,3
 235 346 235 346 235 270 c 0,4,5
 235 195 235 195 264.5 145 c 128,-1,6
 294 95 294 95 356 95 c 0,7,8
 413 95 413 95 459.5 136.5 c 128,-1,9
 506 178 506 178 528 235 c 1,10,-1
 643 227 l 1,11,12
 604 118 604 118 519 56.5 c 128,-1,13
 434 -5 434 -5 328 -5 c 0,14,15
 221 -5 221 -5 167.5 62.5 c 128,-1,16
 114 130 114 130 114 241 c 0,17,18
 114 305 114 305 129 371.5 c 128,-1,19
 144 438 144 438 175.5 499.5 c 128,-1,20
 207 561 207 561 250.5 609.5 c 128,-1,21
 294 658 294 658 355 687 c 128,-1,22
 416 716 416 716 485 716 c 0,23,24
 590 716 590 716 643 661 c 128,-1,25
 696 606 696 606 696 503 c 0,26,27
 696 482 696 482 695 471 c 1,28,-1
 567 461 l 1,29,30
 570 477.5 570 477.5 570 494 c 0,31,32
 570 547 570 547 543 581.5 c 128,-1,33
 516 616 516 616 460 616 c 256,0,1
EndSplineSet
EndChar

StartChar: D
Encoding: 68 68 37
Width: 646
Flags: W
HStem: 0 100<194 387.499> 600 100<301 490.761>
VStem: 561 120<318.791 533.823>
DStem2: 55 0 172.744 0 0.207912 0.978148<126.714 638.035>
LayerCount: 3
Fore
SplineSet
259 0 m 2
 55 0 l 1
 204 700 l 1
 382 700 l 2
 562 700 681 639 681 464 c 0
 681 431 677 394 668 353 c 0
 615 105 453 0 259 0 c 2
376 600 m 2
 301 600 l 1
 194 100 l 1
 268 100 l 2
 376 100 504 136 551 358 c 0
 558 391 561 420 561 445 c 0
 561 578 470 600 376 600 c 2
EndSplineSet
Validated: 1
Layer: 2
SplineSet
259 0 m 2,0,-1
 55 0 l 1,1,-1
 204 700 l 1,2,-1
 382 700 l 2,3,4
 681 700 681 700 681 464 c 0,5,6
 681 412 681 412 668 353 c 0,7,8
 630 175 630 175 521 87.5 c 128,-1,9
 412 0 412 0 259 0 c 2,0,-1
376 600 m 2,10,-1
 301 600 l 1,11,-1
 194 100 l 1,12,-1
 268 100 l 2,13,14
 304 100 304 100 334.5 105.5 c 128,-1,15
 365 111 365 111 400 127.5 c 128,-1,16
 435 144 435 144 462.5 171 c 128,-1,17
 490 198 490 198 513.5 246 c 128,-1,18
 537 294 537 294 551 358 c 0,19,20
 561 405 561 405 561 445 c 0,21,22
 561 493 561 493 546 525 c 128,-1,23
 531 557 531 557 503 572.5 c 128,-1,24
 475 588 475 588 445.5 594 c 128,-1,25
 416 600 416 600 376 600 c 2,10,-1
EndSplineSet
EndChar

StartChar: E
Encoding: 69 69 38
Width: 568
Flags: W
HStem: 0 100<219 523> 293 100<282 516> 600 100<326 651>
DStem2: 80 0 197.744 0 0.207912 0.978148<126.714 324.021 426.41 638.035>
LayerCount: 3
Fore
SplineSet
80 0 m 1
 229 700 l 1
 672 700 l 1
 651 600 l 1
 326 600 l 1
 282 393 l 1
 538 393 l 1
 516 293 l 1
 260 293 l 1
 219 100 l 1
 544 100 l 1
 523 0 l 1
 80 0 l 1
EndSplineSet
Validated: 1
Layer: 2
SplineSet
80 0 m 1,0,-1
 229 700 l 1,1,-1
 672 700 l 1,2,-1
 651 600 l 1,3,-1
 326 600 l 1,4,-1
 282 393 l 1,5,-1
 538 393 l 1,6,-1
 516 293 l 1,7,-1
 260 293 l 1,8,-1
 219 100 l 1,9,-1
 544 100 l 1,10,-1
 523 0 l 1,11,-1
 80 0 l 1,0,-1
EndSplineSet
EndChar

StartChar: F
Encoding: 70 70 39
Width: 530
Flags: W
HStem: 0 21G<80 202.232> 293 100<282 516> 600 100<326 648>
DStem2: 80 0 198 0 0.207912 0.978148<24.5336 324.021 426.41 638.035>
LayerCount: 3
Fore
SplineSet
326 600 m 1
 282 393 l 1
 538 393 l 1
 516 293 l 1
 260 293 l 1
 198 0 l 1
 80 0 l 1
 229 700 l 1
 669 700 l 1
 648 600 l 1
 326 600 l 1
EndSplineSet
Validated: 1
Layer: 2
SplineSet
326 600 m 1,0,-1
 282 393 l 1,1,-1
 538 393 l 1,2,-1
 516 293 l 1,3,-1
 260 293 l 1,4,-1
 198 0 l 1,5,-1
 80 0 l 1,6,-1
 229 700 l 1,7,-1
 669 700 l 1,8,-1
 648 600 l 1,9,-1
 326 600 l 1,0,-1
EndSplineSet
EndChar

StartChar: G
Encoding: 71 71 40
Width: 646
Flags: W
HStem: -5 100<299.454 445.702> 261 100<433 536> 616 100<401.591 541.66>
VStem: 100 123<185.667 385.48> 589 116<497 565.297>
LayerCount: 3
Fore
SplineSet
476 616 m 0
 336 616 223 412 223 290 c 0
 223 201 264 95 373 95 c 0
 454 95 512 149 536 261 c 1
 411 261 l 1
 433 361 l 1
 676 361 l 1
 599 0 l 1
 481 0 l 1
 493 55 l 1
 449 5 405 -5 333 -5 c 0
 182 -5 100 105 100 252 c 0
 100 419 218 716 501 716 c 0
 628 716 705 637 705 509 c 0
 705 505 705 501 705 497 c 1
 589 480 l 1
 589 483 589 486 589 489 c 0
 589 557 551 616 476 616 c 0
EndSplineSet
Validated: 1
Layer: 2
SplineSet
476 616 m 0,0,1
 410 616 410 616 349.5 559.5 c 128,-1,2
 289 503 289 503 256 428 c 128,-1,3
 223 353 223 353 223 290 c 0,4,5
 223 213 223 213 260.5 154 c 128,-1,6
 298 95 298 95 373 95 c 0,7,8
 500 95 500 95 536 261 c 1,9,-1
 411 261 l 1,10,-1
 433 361 l 1,11,-1
 676 361 l 1,12,-1
 599 0 l 1,13,-1
 481 0 l 1,14,-1
 493 55 l 1,15,16
 462 19 462 19 426.5 7 c 128,-1,17
 391 -5 391 -5 333 -5 c 0,18,19
 223 -5 223 -5 161.5 66.5 c 128,-1,20
 100 138 100 138 100 252 c 0,21,22
 100 305 100 305 114 364.5 c 128,-1,23
 128 424 128 424 160 487 c 128,-1,24
 192 550 192 550 237 600.5 c 128,-1,25
 282 651 282 651 351 683.5 c 128,-1,26
 420 716 420 716 501 716 c 0,27,28
 596 716 596 716 650.5 660.5 c 128,-1,29
 705 605 705 605 705 509 c 2,30,-1
 705 497 l 1,31,-1
 589 480 l 1,32,-1
 589 489 l 2,33,34
 589 543 589 543 559.5 579.5 c 128,-1,35
 530 616 530 616 476 616 c 0,0,1
EndSplineSet
EndChar

StartChar: H
Encoding: 72 72 41
Width: 657
Flags: W
HStem: 0 21G<60 182.262 487 609.257> 305 100<264 552> 680 20G<204.743 327 631.729 754>
DStem2: 60 0 178 0 0.207912 0.978148<24.5336 336.383 438.564 715.682> 487 0 605 0 0.207912 0.978148<24.5336 311.849 414.03 715.682>
LayerCount: 3
Fore
SplineSet
487 0 m 1
 552 305 l 1
 243 305 l 1
 178 0 l 1
 60 0 l 1
 209 700 l 1
 327 700 l 1
 264 405 l 1
 573 405 l 1
 636 700 l 1
 754 700 l 1
 605 0 l 1
 487 0 l 1
EndSplineSet
Validated: 1
Layer: 2
SplineSet
487 0 m 1,0,-1
 552 305 l 1,1,-1
 243 305 l 1,2,-1
 178 0 l 1,3,-1
 60 0 l 1,4,-1
 209 700 l 1,5,-1
 327 700 l 1,6,-1
 264 405 l 1,7,-1
 573 405 l 1,8,-1
 636 700 l 1,9,-1
 754 700 l 1,10,-1
 605 0 l 1,11,-1
 487 0 l 1,0,-1
EndSplineSet
EndChar

StartChar: I
Encoding: 73 73 42
Width: 294
Flags: W
HStem: 0 21G<84 206.257> 680 20G<228.743 351>
VStem: 84 267
DStem2: 84 0 202 0 0.207912 0.978148<24.5336 715.682>
LayerCount: 3
Fore
SplineSet
84 0 m 1
 233 700 l 1
 351 700 l 1
 202 0 l 1
 84 0 l 1
EndSplineSet
Validated: 1
Layer: 2
SplineSet
84 0 m 1,0,-1
 233 700 l 1,1,-1
 351 700 l 1,2,-1
 202 0 l 1,3,-1
 84 0 l 1,0,-1
EndSplineSet
EndChar

StartChar: J
Encoding: 74 74 43
Width: 482
Flags: W
HStem: -5 100<201.576 313.151> 680 20G<471.732 594>
VStem: 65 119<113.934 214.682>
DStem2: 325.75 -5 444.3 -5 0.207912 0.978148<140.788 720.833>
LayerCount: 3
Fore
SplineSet
490 210 m 2
 472 124 386 -5 236 -5 c 0
 106 -5 65 76 65 148 c 0
 65 162 66 175 69 187 c 2
 87 274 l 1
 205 274 l 1
 187 187 l 2
 185 180 184 173 184 166 c 0
 184 123 214 95 251 95 c 0
 308 95 357 141 374 222 c 2
 476 700 l 1
 594 700 l 1
 490 210 l 2
EndSplineSet
Validated: 1
Layer: 2
SplineSet
490 210 m 2,0,1
 483 176 483 176 463.5 140 c 128,-1,2
 444 104 444 104 413 70.5 c 128,-1,3
 382 37 382 37 335.5 16 c 128,-1,4
 289 -5 289 -5 236 -5 c 0,5,6
 147 -5 147 -5 106 40 c 128,-1,7
 65 85 65 85 65 148 c 0,8,9
 65 171 65 171 69 187 c 2,10,-1
 87 274 l 1,11,-1
 205 274 l 1,12,-1
 187 187 l 2,13,14
 184 176.5 184 176.5 184 166 c 0,15,16
 184 134 184 134 203.5 114.5 c 128,-1,17
 223 95 223 95 251 95 c 0,18,19
 295 95 295 95 328 128.5 c 128,-1,20
 361 162 361 162 374 222 c 2,21,-1
 476 700 l 1,22,-1
 594 700 l 1,23,-1
 490 210 l 2,0,1
EndSplineSet
EndChar

StartChar: K
Encoding: 75 75 44
Width: 628
Flags: W
HStem: 0 21G<80 202.308 453.767 593> 680 20G<224.743 347 566.394 710>
DStem2: 80 0 198 0 0.207912 0.978148<24.5336 157.514 348.536 715.682> 265 317 389 326 0.64726 0.762269<0 87.1207 243.693 497.778> 499 438 389 326 0.209834 -0.977737<86.4248 419.646>
LayerCount: 3
Fore
SplineSet
458 0 m 1
 389 326 l 1
 226 130 l 1
 198 0 l 1
 80 0 l 1
 229 700 l 1
 347 700 l 1
 265 317 l 1
 583 700 l 1
 710 700 l 1
 499 438 l 1
 593 0 l 1
 458 0 l 1
EndSplineSet
Validated: 1
Layer: 2
SplineSet
458 0 m 1,0,-1
 389 326 l 1,1,-1
 226 130 l 1,2,-1
 198 0 l 1,3,-1
 80 0 l 1,4,-1
 229 700 l 1,5,-1
 347 700 l 1,6,-1
 265 317 l 1,7,-1
 583 700 l 1,8,-1
 710 700 l 1,9,-1
 499 438 l 1,10,-1
 593 0 l 1,11,-1
 458 0 l 1,0,-1
EndSplineSet
EndChar

StartChar: L
Encoding: 76 76 45
Width: 490
Flags: W
HStem: 0 100<214 466> 680 20G<219.743 342>
DStem2: 75 0 192.744 0 0.207912 0.978148<126.714 715.682>
LayerCount: 3
Fore
SplineSet
75 0 m 1
 224 700 l 1
 342 700 l 1
 214 100 l 1
 487 100 l 1
 466 0 l 1
 75 0 l 1
EndSplineSet
Validated: 1
Layer: 2
SplineSet
75 0 m 1,0,-1
 224 700 l 1,1,-1
 342 700 l 1,2,-1
 214 100 l 1,3,-1
 487 100 l 1,4,-1
 466 0 l 1,5,-1
 75 0 l 1,0,-1
EndSplineSet
EndChar

StartChar: M
Encoding: 77 77 46
Width: 862
Flags: W
HStem: 0 21G<80 202.267 384.8 474.833 659 781.257> 600 100<326 350 760 787>
DStem2: 80 0 198 0 0.207912 0.978148<24.5336 638.035> 443 700 350 600 0.0598923 -0.998205<94.2505 495.728> 470 205 465 0 0.441221 0.897399<0 482.426> 659 0 777 0 0.207912 0.978148<24.5336 613.501>
LayerCount: 3
Fore
SplineSet
659 0 m 1
 787 600 l 1
 760 600 l 1
 465 0 l 1
 386 0 l 1
 350 600 l 1
 326 600 l 1
 198 0 l 1
 80 0 l 1
 229 700 l 1
 443 700 l 1
 470 205 l 1
 712 700 l 1
 926 700 l 1
 777 0 l 1
 659 0 l 1
EndSplineSet
Validated: 1
Layer: 2
SplineSet
659 0 m 1,0,-1
 787 600 l 1,1,-1
 760 600 l 1,2,-1
 465 0 l 1,3,-1
 386 0 l 1,4,-1
 350 600 l 1,5,-1
 326 600 l 1,6,-1
 198 0 l 1,7,-1
 80 0 l 1,8,-1
 229 700 l 1,9,-1
 443 700 l 1,10,-1
 470 205 l 1,11,-1
 712 700 l 1,12,-1
 926 700 l 1,13,-1
 777 0 l 1,14,-1
 659 0 l 1,0,-1
EndSplineSet
EndChar

StartChar: N
Encoding: 78 78 47
Width: 646
Flags: W
HStem: 0 21G<80 202.267 449.476 565.257> 680 20G<224.743 373.353 587.76 710>
DStem2: 80 0 198 0 0.207912 0.978148<24.5336 561.347> 368 700 310 525 0.266223 -0.963911<153.244 483.425> 443.474 0 561 0 0.207912 0.978148<238.205 715.584>
LayerCount: 3
Fore
SplineSet
455 0 m 1
 310 525 l 1
 198 0 l 1
 80 0 l 1
 229 700 l 1
 368 700 l 1
 493 233 l 1
 592 700 l 1
 710 700 l 1
 561 0 l 1
 455 0 l 1
EndSplineSet
Validated: 1
Layer: 2
SplineSet
455 0 m 1,0,-1
 310 525 l 1,1,-1
 198 0 l 1,2,-1
 80 0 l 1,3,-1
 229 700 l 1,4,-1
 368 700 l 1,5,-1
 493 233 l 1,6,-1
 592 700 l 1,7,-1
 710 700 l 1,8,-1
 561 0 l 1,9,-1
 455 0 l 1,0,-1
EndSplineSet
EndChar

StartChar: O
Encoding: 79 79 48
Width: 646
Flags: W
HStem: -5 100<274.888 408.291> 616 100<376.049 514.437>
VStem: 102 121<156.404 397.7> 568 119<322.387 555.264>
LayerCount: 3
Fore
SplineSet
687 471 m 0
 687 294 572 -5 317 -5 c 0
 163 -5 102 105 102 243 c 0
 102 457 234 716 470 716 c 0
 627 716 687 603 687 471 c 0
338 95 m 0
 476 95 568 311 568 455 c 0
 568 542 535 616 449 616 c 0
 307 616 223 415 223 266 c 0
 223 175 253 95 338 95 c 0
EndSplineSet
Validated: 1
Layer: 2
SplineSet
687 471 m 0,0,1
 687 416 687 416 673.5 353.5 c 128,-1,2
 660 291 660 291 630 227 c 128,-1,3
 600 163 600 163 558 111.5 c 128,-1,4
 516 60 516 60 453 27.5 c 128,-1,5
 390 -5 390 -5 317 -5 c 0,6,7
 207 -5 207 -5 154.5 63.5 c 128,-1,8
 102 132 102 132 102 243 c 0,9,10
 102 325 102 325 127 407.5 c 128,-1,11
 152 490 152 490 197 559.5 c 128,-1,12
 242 629 242 629 313.5 672.5 c 128,-1,13
 385 716 385 716 470 716 c 0,14,15
 581 716 581 716 634 647.5 c 128,-1,16
 687 579 687 579 687 471 c 0,0,1
338 95 m 0,17,18
 387 95 387 95 431.5 131 c 128,-1,19
 476 167 476 167 505 221.5 c 128,-1,20
 534 276 534 276 551 338 c 128,-1,21
 568 400 568 400 568 455 c 0,22,23
 568 526 568 526 539 571 c 128,-1,24
 510 616 510 616 449 616 c 0,25,26
 382 616 382 616 328.5 558.5 c 128,-1,27
 275 501 275 501 249 422.5 c 128,-1,28
 223 344 223 344 223 266 c 0,29,30
 223 191 223 191 250.5 143 c 128,-1,31
 278 95 278 95 338 95 c 0,17,18
EndSplineSet
EndChar

StartChar: P
Encoding: 80 80 49
Width: 625
Flags: W
HStem: 0 21G<63 185.265> 272 100<260 477.51> 600 100<309 517.824>
VStem: 554 123<443.153 570.092>
DStem2: 63 0 181 0 0.207912 0.978148<24.5336 302.649 404.83 638.035>
LayerCount: 3
Fore
SplineSet
671 493 m 0
 638 338 556 272 383 272 c 2
 239 272 l 1
 181 0 l 1
 63 0 l 1
 212 700 l 1
 469 700 l 2
 630 700 677 628 677 547 c 0
 677 529 675 511 671 493 c 0
392 372 m 2
 491 372 554 437 554 514 c 0
 554 570 512 600 439 600 c 2
 309 600 l 1
 260 372 l 1
 392 372 l 2
EndSplineSet
Validated: 1
Layer: 2
SplineSet
671 493 m 0,0,1
 646 376 646 376 579 324 c 128,-1,2
 512 272 512 272 383 272 c 2,3,-1
 239 272 l 1,4,-1
 181 0 l 1,5,-1
 63 0 l 1,6,-1
 212 700 l 1,7,-1
 469 700 l 2,8,9
 677 700 677 700 677 547 c 0,10,11
 677 520 677 520 671 493 c 0,0,1
392 372 m 2,12,13
 464 372 464 372 509 413 c 128,-1,14
 554 454 554 454 554 514 c 0,15,16
 554 556 554 556 524 578 c 128,-1,17
 494 600 494 600 439 600 c 2,18,-1
 309 600 l 1,19,-1
 260 372 l 1,20,-1
 392 372 l 2,12,13
EndSplineSet
EndChar

StartChar: Q
Encoding: 81 81 50
Width: 646
Flags: W
HStem: -153 100<467.789 541> -5 100<274.888 383.269> 616 100<376.049 514.437>
VStem: 102 121<156.404 397.7> 383 75<-93.0397 4.82254> 568 119<323.906 555.264>
LayerCount: 3
Fore
SplineSet
338 95 m 0
 476 95 568 311 568 455 c 0
 568 542 535 616 449 616 c 0
 307 616 223 415 223 266 c 0
 223 175 253 95 338 95 c 0
102 243 m 0
 102 457 234 716 470 716 c 0
 627 716 687 603 687 471 c 0
 687 317 606 112 462 33 c 1
 460 22 458 10 458 0 c 0
 458 -31 472 -53 515 -53 c 1
 562 -50 l 1
 541 -150 l 1
 529 -152 514 -153 503 -153 c 0
 438 -153 383 -141 383 -42 c 0
 383 -28 384 -13 386 5 c 1
 364 0 341 -5 317 -5 c 0
 163 -5 102 105 102 243 c 0
EndSplineSet
Validated: 1
Layer: 2
SplineSet
338 95 m 0,0,1
 387 95 387 95 431.5 131 c 128,-1,2
 476 167 476 167 505 221.5 c 128,-1,3
 534 276 534 276 551 338 c 128,-1,4
 568 400 568 400 568 455 c 0,5,6
 568 526 568 526 539 571 c 128,-1,7
 510 616 510 616 449 616 c 0,8,9
 382 616 382 616 328.5 558.5 c 128,-1,10
 275 501 275 501 249 422.5 c 128,-1,11
 223 344 223 344 223 266 c 0,12,13
 223 191 223 191 250.5 143 c 128,-1,14
 278 95 278 95 338 95 c 0,0,1
102 243 m 0,15,16
 102 325 102 325 127 407.5 c 128,-1,17
 152 490 152 490 197 559.5 c 128,-1,18
 242 629 242 629 313.5 672.5 c 128,-1,19
 385 716 385 716 470 716 c 0,20,21
 581 716 581 716 634 647.5 c 128,-1,22
 687 579 687 579 687 471 c 0,23,24
 687 347 687 347 625.5 218 c 128,-1,25
 564 89 564 89 462 33 c 1,26,27
 458 11 458 11 458 0 c 0,28,29
 458 -53 458 -53 515 -53 c 2,30,-1
 562 -50 l 1,31,-1
 541 -150 l 1,32,33
 523 -153 523 -153 503 -153 c 0,34,35
 445 -153 445 -153 414 -131.5 c 128,-1,36
 383 -110 383 -110 383 -42 c 0,37,38
 383 -22 383 -22 386 5 c 1,39,40
 342 -5 342 -5 317 -5 c 0,41,42
 207 -5 207 -5 154.5 63.5 c 128,-1,43
 102 132 102 132 102 243 c 0,15,16
EndSplineSet
EndChar

StartChar: R
Encoding: 82 82 51
Width: 659
Flags: W
HStem: 0 21G<54 176.261 501.5 634.324> 291 100<255 505.648> 600 100<300 576.059>
VStem: 496 121<19.5748 198.183> 520 121<114.01 276.379> 596 121<445.906 579.238>
DStem2: 54 0 172 0 0.207912 0.978148<24.5336 322.065 424.246 638.035> 475.517 0 594.368 0 0.207912 0.978148<118.046 229.62 423.695 541.098>
LayerCount: 3
Fore
SplineSet
523 700 m 2xe8
 630 700 717 674 717 557 c 0xe4
 717 537 714 514 709 488 c 0
 693 415 660 393 591 345 c 1
 629 314 641 278 641 243 c 0xe8
 641 227 638 211 635 195 c 2
 622 130 l 2
 619 116 617 103 617 90 c 0
 617 70 622 53 638 37 c 1
 630 0 l 1
 504 0 l 1
 499 30 496 50 496 69 c 0xf0
 496 88 498 107 504 134 c 2
 514 177 l 2
 518 194 520 211 520 226 c 0
 520 264 503 291 440 291 c 2
 234 291 l 1
 172 0 l 1
 54 0 l 1
 203 700 l 1
 523 700 l 2xe8
481 391 m 2
 530 391 573 406 593 498 c 0
 595 509 596 519 596 528 c 0
 596 587 548 600 504 600 c 2
 300 600 l 1
 255 391 l 1
 481 391 l 2
EndSplineSet
Validated: 1
Layer: 2
SplineSet
523 700 m 2,0,1
 614 700 614 700 665.5 669 c 128,-1,2
 717 638 717 638 717 557 c 0,3,4
 717 530 717 530 709 488 c 0,5,6
 698 438 698 438 675 412.5 c 128,-1,7
 652 387 652 387 591 345 c 1,8,9
 641 304 641 304 641 243 c 0,10,11
 641 227 641 227 635 195 c 2,12,-1
 622 130 l 2,13,14
 617 107 617 107 617 90 c 0,15,16
 617 58 617 58 638 37 c 1,17,-1
 630 0 l 1,18,-1
 504 0 l 1,19,20
 496 48 496 48 496 69 c 0,21,22
 496 98 496 98 504 134 c 2,23,-1
 514 177 l 2,24,25
 520 202 520 202 520 226 c 0,26,27
 520 291 520 291 440 291 c 2,28,-1
 234 291 l 1,29,-1
 172 0 l 1,30,-1
 54 0 l 1,31,-1
 203 700 l 1,32,-1
 523 700 l 2,0,1
481 391 m 2,33,34
 524 391 524 391 551.5 413 c 128,-1,35
 579 435 579 435 593 498 c 0,36,37
 596 514.5 596 514.5 596 528 c 0,38,39
 596 600 596 600 504 600 c 2,40,-1
 300 600 l 1,41,-1
 255 391 l 1,42,-1
 481 391 l 2,33,34
EndSplineSet
EndChar

StartChar: S
Encoding: 83 83 52
Width: 588
Flags: W
HStem: -5 100<230.54 379.471> 616 100<331.912 474.933>
VStem: 155 125<400.488 551.72> 449 126<163.353 266.994>
LayerCount: 3
Fore
SplineSet
431 716 m 0
 538 716 615 677 632 573 c 1
 504 533 l 1
 495 577 481 616 406 616 c 0
 331 616 280 564 280 496 c 0
 280 460 302 439 366 424 c 0
 404 415 575 396 575 260 c 0
 575 191 525 -5 273 -5 c 0
 158 -5 70 45 61 163 c 1
 61 163 181 199 189 199 c 1
 198 124 239 95 308 95 c 0
 341 95 449 125 449 215 c 0
 449 276 391 295 344 306 c 0
 243 330 155 351 155 453 c 0
 155 558 236 716 431 716 c 0
EndSplineSet
Validated: 1
Layer: 2
SplineSet
431 716 m 0,0,1
 609 716 609 716 632 573 c 1,2,-1
 504 533 l 1,3,4
 496 574 496 574 476.5 595 c 128,-1,5
 457 616 457 616 406 616 c 0,6,7
 350 616 350 616 315 582 c 128,-1,8
 280 548 280 548 280 496 c 0,9,10
 280 468 280 468 299.5 451.5 c 128,-1,11
 319 435 319 435 366 424 c 0,12,13
 367 424 367 424 389 419.5 c 128,-1,14
 411 415 411 415 425 411 c 128,-1,15
 439 407 439 407 463.5 398.5 c 128,-1,16
 488 390 488 390 505 378.5 c 128,-1,17
 522 367 522 367 539.5 351 c 128,-1,18
 557 335 557 335 566 311.5 c 128,-1,19
 575 288 575 288 575 260 c 0,20,21
 575 236 575 236 568 206 c 128,-1,22
 561 176 561 176 540.5 137.5 c 128,-1,23
 520 99 520 99 488.5 68 c 128,-1,24
 457 37 457 37 400.5 16 c 128,-1,25
 344 -5 344 -5 273 -5 c 0,26,27
 182 -5 182 -5 124.5 36.5 c 128,-1,28
 67 78 67 78 61 163 c 1,29,30
 181 199 181 199 189 199 c 1,31,32
 201 95 201 95 308 95 c 0,33,34
 329 95 329 95 359.5 105 c 128,-1,35
 390 115 390 115 419.5 144.5 c 128,-1,36
 449 174 449 174 449 215 c 256,37,38
 449 256 449 256 420 275.5 c 128,-1,39
 391 295 391 295 344 306 c 0,40,41
 304 315 304 315 284.5 320.5 c 128,-1,42
 265 326 265 326 235 338.5 c 128,-1,43
 205 351 205 351 191 364.5 c 128,-1,44
 177 378 177 378 166 400.5 c 128,-1,45
 155 423 155 423 155 453 c 0,46,47
 155 495 155 495 171.5 539 c 128,-1,48
 188 583 188 583 219.5 623.5 c 128,-1,49
 251 664 251 664 306.5 690 c 128,-1,50
 362 716 362 716 431 716 c 0,0,1
EndSplineSet
EndChar

StartChar: T
Encoding: 84 84 53
Width: 530
Flags: W
HStem: 0 21G<203 325.267> 600 100<180 331 449 618>
DStem2: 203 0 321 0 0.207912 0.978148<24.5336 613.501>
LayerCount: 3
Fore
SplineSet
449 600 m 1
 321 0 l 1
 203 0 l 1
 331 600 l 1
 159 600 l 1
 180 700 l 1
 639 700 l 1
 618 600 l 1
 449 600 l 1
EndSplineSet
Validated: 1
Layer: 2
SplineSet
449 600 m 1,0,-1
 321 0 l 1,1,-1
 203 0 l 1,2,-1
 331 600 l 1,3,-1
 159 600 l 1,4,-1
 180 700 l 1,5,-1
 639 700 l 1,6,-1
 618 600 l 1,7,-1
 449 600 l 1,0,-1
EndSplineSet
EndChar

StartChar: U
Encoding: 85 85 54
Width: 646
Flags: W
HStem: -5 100<260.633 443.482> 680 20G<213.727 336 612.739 735>
VStem: 110 122<122.626 294>
DStem2: 67.6241 -5 185.924 -5 0.207912 0.978148<222.67 720.859> 466.924 -5 584.624 -5 0.207912 0.978148<154.452 720.797>
LayerCount: 3
Fore
SplineSet
326 -5 m 0
 191 -5 110 41 110 159 c 0
 110 181 112 205 118 232 c 2
 218 700 l 1
 336 700 l 1
 238 240 l 2
 234 220 232 202 232 187 c 0
 232 114 278 95 347 95 c 0
 430 95 494 122 519 240 c 2
 617 700 l 1
 735 700 l 1
 635 232 l 2
 603 82 486 -5 326 -5 c 0
EndSplineSet
Validated: 1
Layer: 2
SplineSet
326 -5 m 0,0,1
 110 -5 110 -5 110 159 c 0,2,3
 110 196 110 196 118 232 c 2,4,-1
 218 700 l 1,5,-1
 336 700 l 1,6,-1
 238 240 l 2,7,8
 232 210 232 210 232 187 c 0,9,10
 232 135 232 135 261.5 115 c 128,-1,11
 291 95 291 95 347 95 c 0,12,13
 416 95 416 95 458.5 126 c 128,-1,14
 501 157 501 157 519 240 c 2,15,-1
 617 700 l 1,16,-1
 735 700 l 1,17,-1
 635 232 l 2,18,19
 611 120 611 120 529 57.5 c 128,-1,20
 447 -5 447 -5 326 -5 c 0,0,1
EndSplineSet
EndChar

StartChar: V
Encoding: 86 86 55
Width: 588
Flags: W
HStem: 0 21G<221 383.514> 680 20G<187 305.697 579.801 707>
VStem: 187 118<560 700>
DStem2: 325 126 374 0 0.429583 0.903027<0 631.748>
LayerCount: 3
Fore
SplineSet
374 0 m 1
 222 0 l 1
 187 700 l 1
 305 700 l 1
 325 126 l 1
 589 700 l 1
 707 700 l 1
 374 0 l 1
EndSplineSet
Validated: 1
Layer: 2
SplineSet
374 0 m 1,0,-1
 222 0 l 1,1,-1
 187 700 l 1,2,-1
 305 700 l 1,3,-1
 325 126 l 1,4,-1
 589 700 l 1,5,-1
 707 700 l 1,6,-1
 374 0 l 1,0,-1
EndSplineSet
EndChar

StartChar: W
Encoding: 87 87 56
Width: 882
Flags: W
HStem: 0 21G<189.571 333.703 560.76 704.943> 680 20G<175 293.161 523.044 652.442 882.325 1009>
VStem: 175 118<373.333 700> 190 107<202 326.667> 555 97<383.091 501> 561 102<202 501>
DStem2: 309 202 325 0 0.398994 0.916954<0 367.534> 675 202 696 0 0.408194 0.912895<0 542.792>
LayerCount: 3
Fore
SplineSet
696 0 m 1xc4
 561 0 l 1xc4
 555 501 l 1
 543 501 l 1
 325 0 l 1
 190 0 l 1xd8
 175 700 l 1
 293 700 l 1xe0
 297 202 l 1
 309 202 l 1
 532 700 l 1
 652 700 l 1xd8
 663 202 l 1
 675 202 l 1
 891 700 l 1
 1009 700 l 1
 696 0 l 1xc4
EndSplineSet
Validated: 1
Layer: 2
SplineSet
696 0 m 1,0,-1
 561 0 l 1,1,-1
 555 501 l 1,2,-1
 543 501 l 1,3,-1
 325 0 l 1,4,-1
 190 0 l 1,5,-1
 175 700 l 1,6,-1
 293 700 l 1,7,-1
 297 202 l 1,8,-1
 309 202 l 1,9,-1
 532 700 l 1,10,-1
 652 700 l 1,11,-1
 663 202 l 1,12,-1
 675 202 l 1,13,-1
 891 700 l 1,14,-1
 1009 700 l 1,15,-1
 696 0 l 1,0,-1
EndSplineSet
EndChar

StartChar: X
Encoding: 88 88 57
Width: 628
Flags: W
HStem: 0 21G<46 185.403 433.629 579> 680 20G<215 360.445 568.645 708>
DStem2: 46 0 170 0 0.609382 0.792877<75.5634 388.589 616.844 882.861> 354 700 215 700 0.306009 -0.952029<0 221.687 432.459 692.737>
LayerCount: 3
Fore
SplineSet
215 700 m 1
 354 700 l 1
 422 489 l 1
 584 700 l 1
 708 700 l 1
 459 375 l 1
 579 0 l 1
 440 0 l 1
 361 248 l 1
 170 0 l 1
 46 0 l 1
 324 361 l 1
 215 700 l 1
EndSplineSet
Validated: 1
Layer: 2
SplineSet
215 700 m 1,0,-1
 354 700 l 1,1,-1
 422 489 l 1,2,-1
 584 700 l 1,3,-1
 708 700 l 1,4,-1
 459 375 l 1,5,-1
 579 0 l 1,6,-1
 440 0 l 1,7,-1
 361 248 l 1,8,-1
 170 0 l 1,9,-1
 46 0 l 1,10,-1
 324 361 l 1,11,-1
 215 700 l 1,0,-1
EndSplineSet
EndChar

StartChar: Y
Encoding: 89 89 58
Width: 588
Flags: W
HStem: 0 21G<236 358.255> 680 20G<184 329.894 572.383 705>
DStem2: 325 700 184 700 0.273152 -0.961971<0 290.123> 236 0 354 0 0.207912 0.978148<24.5336 301.652> 394 418 414 282 0.571352 0.820705<0 341.138>
LayerCount: 3
Fore
SplineSet
414 282 m 1
 354 0 l 1
 236 0 l 1
 299 295 l 1
 184 700 l 1
 325 700 l 1
 394 418 l 1
 586 700 l 1
 705 700 l 1
 414 282 l 1
EndSplineSet
Validated: 1
Layer: 2
SplineSet
414 282 m 1,0,-1
 354 0 l 1,1,-1
 236 0 l 1,2,-1
 299 295 l 1,3,-1
 184 700 l 1,4,-1
 325 700 l 1,5,-1
 394 418 l 1,6,-1
 586 700 l 1,7,-1
 705 700 l 1,8,-1
 414 282 l 1,0,-1
EndSplineSet
EndChar

StartChar: Z
Encoding: 90 90 59
Width: 646
Flags: W
HStem: 0 100<241 593> 600 100<259 574>
DStem2: 107 100 241 100 0.684135 0.729355<91.6741 684.169>
LayerCount: 3
Fore
SplineSet
86 0 m 1
 107 100 l 1
 574 600 l 1
 238 600 l 1
 259 700 l 1
 731 700 l 1
 710 600 l 1
 241 100 l 1
 614 100 l 1
 593 0 l 1
 86 0 l 1
EndSplineSet
Validated: 1
Layer: 2
SplineSet
86 0 m 1,0,-1
 107 100 l 1,1,-1
 574 600 l 1,2,-1
 238 600 l 1,3,-1
 259 700 l 1,4,-1
 731 700 l 1,5,-1
 710 600 l 1,6,-1
 241 100 l 1,7,-1
 614 100 l 1,8,-1
 593 0 l 1,9,-1
 86 0 l 1,0,-1
EndSplineSet
EndChar

StartChar: bracketleft
Encoding: 91 91 60
Width: 387
Flags: W
HStem: -190 86<183 249> 614 86<336 420>
DStem2: 58 -190 164.72 -190 0.207912 0.978148<110.11 844.23>
LayerCount: 3
Fore
SplineSet
58 -190 m 1
 247 700 l 1
 438 700 l 1
 420 614 l 1
 336 614 l 1
 183 -104 l 1
 267 -104 l 1
 249 -190 l 1
 58 -190 l 1
EndSplineSet
Validated: 1
Layer: 2
SplineSet
58 -190 m 1,0,-1
 247 700 l 1,1,-1
 438 700 l 1,2,-1
 420 614 l 1,3,-1
 336 614 l 1,4,-1
 183 -104 l 1,5,-1
 267 -104 l 1,6,-1
 249 -190 l 1,7,-1
 58 -190 l 1,0,-1
EndSplineSet
EndChar

StartChar: backslash
Encoding: 92 92 61
Width: 415
Flags: W
HStem: 0 21G<246.314 360> 680 20G<189 302.686>
VStem: 189 171
DStem2: 301 700 189 700 0.0839879 -0.996467<0 693.075>
LayerCount: 3
Fore
SplineSet
248 0 m 1
 189 700 l 1
 301 700 l 1
 360 0 l 1
 248 0 l 1
EndSplineSet
Validated: 1
Layer: 2
SplineSet
248 0 m 1,0,-1
 189 700 l 1,1,-1
 301 700 l 1,2,-1
 360 0 l 1,3,-1
 248 0 l 1,0,-1
EndSplineSet
EndChar

StartChar: bracketright
Encoding: 93 93 62
Width: 387
Flags: W
HStem: -201 86<74 158> 614 86<247 313>
DStem2: 139.72 -201 246 -201 0.207912 0.978148<87.9213 833.217>
LayerCount: 3
Fore
SplineSet
55 -201 m 1
 74 -115 l 1
 158 -115 l 1
 313 614 l 1
 229 614 l 1
 247 700 l 1
 438 700 l 1
 246 -201 l 1
 55 -201 l 1
EndSplineSet
Validated: 1
Layer: 2
SplineSet
55 -201 m 1,0,-1
 74 -115 l 1,1,-1
 158 -115 l 1,2,-1
 313 614 l 1,3,-1
 229 614 l 1,4,-1
 247 700 l 1,5,-1
 438 700 l 1,6,-1
 246 -201 l 1,7,-1
 55 -201 l 1,0,-1
EndSplineSet
EndChar

StartChar: asciicircum
Encoding: 94 94 63
Width: 588
Flags: W
HStem: 696 20G<366.863 513.831>
DStem2: 138 285 245 285 0.486503 0.873679<52.0558 404.927> 511 716 419 592 0.140135 -0.990132<109.884 420.301>
LayerCount: 3
Fore
SplineSet
419 592 m 1
 245 285 l 1
 138 285 l 1
 378 716 l 1
 511 716 l 1
 572 285 l 1
 465 285 l 1
 419 592 l 1
EndSplineSet
Validated: 1
Layer: 2
SplineSet
419 592 m 1,0,-1
 245 285 l 1,1,-1
 138 285 l 1,2,-1
 378 716 l 1,3,-1
 511 716 l 1,4,-1
 572 285 l 1,5,-1
 465 285 l 1,6,-1
 419 592 l 1,0,-1
EndSplineSet
EndChar

StartChar: underscore
Encoding: 95 95 64
Width: 556
VWidth: 2048
Flags: W
HStem: -199 64<-44 527>
LayerCount: 3
Fore
SplineSet
-57 -199 m 1
 -44 -135 l 1
 540 -135 l 1
 527 -199 l 1
 -57 -199 l 1
EndSplineSet
Validated: 1
Layer: 2
SplineSet
-57 -199 m 1,0,-1
 -44 -135 l 1,1,-1
 540 -135 l 1,2,-1
 527 -199 l 1,3,-1
 -57 -199 l 1,0,-1
EndSplineSet
EndChar

StartChar: grave
Encoding: 96 96 65
Width: 372
Flags: W
HStem: 592 206
VStem: 208 247
LayerCount: 3
Fore
SplineSet
414 592 m 1
 208 679 l 1
 260 798 l 1
 455 681 l 1
 414 592 l 1
EndSplineSet
Validated: 1
Layer: 2
SplineSet
414 592 m 1,0,-1
 208 679 l 1,1,-1
 260 798 l 1,2,-1
 455 681 l 1,3,-1
 414 592 l 1,0,-1
EndSplineSet
EndChar

StartChar: a
Encoding: 97 97 66
Width: 536
Flags: W
HStem: -5 86<195.974 333.473 500.253 522> 440 86<284.457 420.654>
VStem: 71 114<59.5 177.107> 434 114<323.812 427.139>
DStem2: 355.663 -5 463.329 -5 0.207912 0.978148<157.9 248.571 329.223 390.458>
LayerCount: 3
Fore
SplineSet
76 130 m 0
 115 315 346 311 426 324 c 1
 430 345 l 2
 433 357 434 368 434 378 c 0
 434 419 412 440 361 440 c 0
 315 440 264 422 242 368 c 1
 144 368 l 1
 184 487 284 526 394 526 c 0
 509 526 548 484 548 418 c 0
 548 403 546 386 542 369 c 2
 495 144 l 2
 494 138 493 132 493 127 c 0
 493 83 537 81 540 81 c 1
 522 -5 l 1
 504 -5 l 2
 423 -5 410 23 400 69 c 1
 351 1 285 -5 226 -5 c 2
 186 -5 l 2
 116 -5 71 27 71 92 c 0
 71 104 73 116 76 130 c 0
408 238 m 1
 346 231 185 227 185 133 c 0
 185 99 215 81 261 81 c 0
 321 81 382 120 402 213 c 1
 408 238 l 1
EndSplineSet
Validated: 1
Layer: 2
SplineSet
76 130 m 0,0,1
 84 168 84 168 103 198 c 128,-1,2
 122 228 122 228 149 247 c 128,-1,3
 176 266 176 266 204 279.5 c 128,-1,4
 232 293 232 293 267.5 300.5 c 128,-1,5
 303 308 303 308 328 312 c 128,-1,6
 353 316 353 316 384 319 c 128,-1,7
 415 322 415 322 426 324 c 1,8,-1
 430 345 l 2,9,10
 434 361 434 361 434 378 c 0,11,12
 434 440 434 440 361 440 c 0,13,14
 271 440 271 440 242 368 c 1,15,-1
 144 368 l 1,16,17
 197 526 197 526 394 526 c 0,18,19
 548 526 548 526 548 418 c 0,20,21
 548 394 548 394 542 369 c 2,22,-1
 495 144 l 2,23,24
 493 132 493 132 493 127 c 0,25,26
 493 107 493 107 505 95.5 c 128,-1,27
 517 84 517 84 525.5 82.5 c 128,-1,28
 534 81 534 81 540 81 c 1,29,-1
 522 -5 l 1,30,-1
 504 -5 l 2,31,32
 448 -5 448 -5 428.5 12 c 128,-1,33
 409 29 409 29 400 69 c 1,34,35
 367 23 367 23 324.5 9 c 128,-1,36
 282 -5 282 -5 226 -5 c 2,37,-1
 186 -5 l 2,38,39
 132 -5 132 -5 101.5 19.5 c 128,-1,40
 71 44 71 44 71 92 c 0,41,42
 71 107 71 107 76 130 c 0,0,1
408 238 m 1,43,44
 404 238 404 238 377 235.5 c 128,-1,45
 350 233 350 233 336 230.5 c 128,-1,46
 322 228 322 228 295 223.5 c 128,-1,47
 268 219 268 219 252.5 211.5 c 128,-1,48
 237 204 237 204 219.5 193.5 c 128,-1,49
 202 183 202 183 193.5 167.5 c 128,-1,50
 185 152 185 152 185 133 c 0,51,52
 185 108 185 108 205.5 94.5 c 128,-1,53
 226 81 226 81 261 81 c 0,54,55
 310 81 310 81 349 114 c 128,-1,56
 388 147 388 147 402 213 c 2,57,-1
 408 238 l 1,43,44
EndSplineSet
EndChar

StartChar: b
Encoding: 98 98 67
Width: 541
Flags: W
HStem: -5 86<226.08 349.802> 440 86<311.699 421.255> 680 20G<207.743 319>
VStem: 459 112<214.838 399.227>
DStem2: 61.9372 -5 168.937 -5 0.207912 0.978148<27.3583 67.1693 191.729 436.169 503.758 720.794>
LayerCount: 3
Fore
SplineSet
571 349 m 0
 571 201 485 -5 309 -5 c 0
 244 -5 191 6 178 39 c 1
 170 0 l 1
 63 0 l 1
 212 700 l 1
 319 700 l 1
 269 466 l 1
 301 515 364 526 415 526 c 0
 529 526 571 447 571 349 c 0
285 81 m 0
 377 81 459 201 459 310 c 0
 459 373 436 440 365 440 c 0
 284 440 247 363 232 294 c 2
 216 216 l 2
 211 195 209 175 209 159 c 0
 209 108 232 81 285 81 c 0
EndSplineSet
Validated: 1
Layer: 2
SplineSet
571 349 m 0,0,1
 571 270 571 270 543.5 191.5 c 128,-1,2
 516 113 516 113 454 54 c 128,-1,3
 392 -5 392 -5 309 -5 c 0,4,5
 195 -5 195 -5 178 39 c 1,6,-1
 170 0 l 1,7,-1
 63 0 l 1,8,-1
 212 700 l 1,9,-1
 319 700 l 1,10,-1
 269 466 l 1,11,12
 308 526 308 526 415 526 c 0,13,14
 496 526 496 526 533.5 477.5 c 128,-1,15
 571 429 571 429 571 349 c 0,0,1
285 81 m 0,16,17
 352 81 352 81 405.5 153.5 c 128,-1,18
 459 226 459 226 459 310 c 0,19,20
 459 364 459 364 436.5 402 c 128,-1,21
 414 440 414 440 365 440 c 0,22,23
 310 440 310 440 277.5 398 c 128,-1,24
 245 356 245 356 232 294 c 2,25,-1
 216 216 l 2,26,27
 209 187 209 187 209 159 c 0,28,29
 209 81 209 81 285 81 c 0,16,17
EndSplineSet
EndChar

StartChar: c
Encoding: 99 99 68
Width: 530
Flags: W
HStem: -5 86<236.523 357.569> 440 86<304.442 431.458>
VStem: 91 112<114.767 300.655> 457 102<349 414.599>
LayerCount: 3
Fore
SplineSet
375 440 m 0
 262 440 203 307 203 203 c 0
 203 141 224 81 294 81 c 0
 350 81 402 131 421 180 c 1
 525 178 l 1
 484 68 397 -5 268 -5 c 0
 152 -5 91 67 91 177 c 0
 91 327 194 526 389 526 c 0
 504 526 559 460 559 364 c 0
 559 359 558 354 558 349 c 1
 456 349 l 1
 456 352 457 355 457 358 c 0
 457 402 429 440 375 440 c 0
EndSplineSet
Validated: 1
Layer: 2
SplineSet
375 440 m 0,0,1
 322 440 322 440 281 401.5 c 128,-1,2
 240 363 240 363 221.5 310.5 c 128,-1,3
 203 258 203 258 203 203 c 0,4,5
 203 150 203 150 224 115.5 c 128,-1,6
 245 81 245 81 294 81 c 0,7,8
 334 81 334 81 370 111 c 128,-1,9
 406 141 406 141 421 180 c 1,10,-1
 525 178 l 1,11,12
 493 93 493 93 427.5 44 c 128,-1,13
 362 -5 362 -5 268 -5 c 0,14,15
 183 -5 183 -5 137 44 c 128,-1,16
 91 93 91 93 91 177 c 0,17,18
 91 223 91 223 103 271 c 128,-1,19
 115 319 115 319 140 364.5 c 128,-1,20
 165 410 165 410 199.5 446 c 128,-1,21
 234 482 234 482 283.5 504 c 128,-1,22
 333 526 333 526 389 526 c 0,23,24
 473 526 473 526 516 482.5 c 128,-1,25
 559 439 559 439 559 364 c 0,26,27
 559 361 559 361 558.5 356 c 128,-1,28
 558 351 558 351 558 349 c 2,29,-1
 456 349 l 2,30,31
 456 350 456 350 456.5 353 c 128,-1,32
 457 356 457 356 457 358 c 0,33,34
 457 393 457 393 435.5 416.5 c 128,-1,35
 414 440 414 440 375 440 c 0,0,1
EndSplineSet
EndChar

StartChar: d
Encoding: 100 100 69
Width: 530
Flags: W
HStem: -5 86<188.906 352.196> 440 86<310.078 420.577> 680 20G<521.732 633>
VStem: 92 113<120.913 294.723>
DStem2: 375.937 -5 482.937 -5 0.207912 0.978148<27.3583 52.1856 137.872 338.774 476.413 720.794>
LayerCount: 3
Fore
SplineSet
92 170 m 0
 92 316 194 526 345 526 c 0
 418 526 446 516 475 461 c 1
 526 700 l 1
 633 700 l 1
 484 0 l 1
 377 0 l 1
 387 46 l 1
 348 0 308 -5 229 -5 c 0
 137 -5 92 71 92 170 c 0
378 440 m 0
 280 440 205 312 205 212 c 0
 205 149 229 81 294 81 c 0
 377 81 418 192 424 221 c 2
 441 301 l 2
 441 303 442 313 442 328 c 0
 442 369 434 440 378 440 c 0
EndSplineSet
Validated: 1
Layer: 2
SplineSet
92 170 m 0,0,1
 92 225 92 225 110.5 287 c 128,-1,2
 129 349 129 349 161 402.5 c 128,-1,3
 193 456 193 456 242 491 c 128,-1,4
 291 526 291 526 345 526 c 0,5,6
 401 526 401 526 427.5 513.5 c 128,-1,7
 454 501 454 501 475 461 c 1,8,-1
 526 700 l 1,9,-1
 633 700 l 1,10,-1
 484 0 l 1,11,-1
 377 0 l 1,12,-1
 387 46 l 1,13,14
 360 14 360 14 327 4.5 c 128,-1,15
 294 -5 294 -5 229 -5 c 0,16,17
 163 -5 163 -5 127.5 43.5 c 128,-1,18
 92 92 92 92 92 170 c 0,0,1
378 440 m 0,19,20
 308 440 308 440 256.5 366 c 128,-1,21
 205 292 205 292 205 212 c 0,22,23
 205 158 205 158 227 119.5 c 128,-1,24
 249 81 249 81 294 81 c 0,25,26
 332 81 332 81 363 111.5 c 128,-1,27
 394 142 394 142 407 171 c 128,-1,28
 420 200 420 200 424 221 c 2,29,-1
 441 301 l 1,30,-1
 441.5 305 l 2,31,32
 442 309 442 309 442 315 c 128,-1,33
 442 321 442 321 442 328 c 0,34,35
 442 440 442 440 378 440 c 0,19,20
EndSplineSet
EndChar

StartChar: e
Encoding: 101 101 70
Width: 530
Flags: W
HStem: -5 86<232.871 364.698> 249 86<237 444.677> 440 86<290.06 429.353>
VStem: 92 111<111.557 247.884> 445 104<335.854 424.227>
LayerCount: 3
Fore
SplineSet
92 192 m 0
 92 312 163 526 368 526 c 0
 514 526 549 457 549 376 c 0
 549 334 540 290 531 249 c 1
 212 249 l 1
 206 212 l 2
 204 201 203 190 203 180 c 0
 203 122 232 81 296 81 c 0
 342 81 385 104 407 157 c 1
 510 157 l 1
 484 111 424 -5 270 -5 c 0
 155 -5 92 77 92 192 c 0
370 440 m 0
 316 440 263 424 237 335 c 1
 442 335 l 1
 444 346 445 357 445 366 c 0
 445 422 415 440 370 440 c 0
EndSplineSet
Validated: 1
Layer: 2
SplineSet
92 192 m 0,0,1
 92 241 92 241 107 295.5 c 128,-1,2
 122 350 122 350 152.5 403.5 c 128,-1,3
 183 457 183 457 239.5 491.5 c 128,-1,4
 296 526 296 526 368 526 c 0,5,6
 469 526 469 526 509 485.5 c 128,-1,7
 549 445 549 445 549 376 c 0,8,9
 549 331 549 331 531 249 c 1,10,-1
 212 249 l 1,11,-1
 206 212 l 2,12,13
 203 196 203 196 203 180 c 0,14,15
 203 135 203 135 226.5 108 c 128,-1,16
 250 81 250 81 296 81 c 0,17,18
 375 81 375 81 407 157 c 1,19,-1
 510 157 l 1,20,21
 496 132 496 132 489.5 121 c 128,-1,22
 483 110 483 110 459.5 81.5 c 128,-1,23
 436 53 436 53 413 37.5 c 128,-1,24
 390 22 390 22 352 8.5 c 128,-1,25
 314 -5 314 -5 270 -5 c 0,26,27
 186 -5 186 -5 139 49 c 128,-1,28
 92 103 92 103 92 192 c 0,0,1
370 440 m 0,29,30
 322 440 322 440 288.5 418 c 128,-1,31
 255 396 255 396 237 335 c 1,32,-1
 442 335 l 1,33,34
 445 352 445 352 445 366 c 0,35,36
 445 440 445 440 370 440 c 0,29,30
EndSplineSet
EndChar

StartChar: f
Encoding: 102 102 71
Width: 294
Flags: W
HStem: 0 21G<86 197.23> 435 86<139 178 304 374> 628 86<334.437 427>
DStem2: 86 0 193 0 0.207912 0.978148<22.2465 444.622 554.94 655.368>
LayerCount: 3
Fore
SplineSet
388 628 m 0
 330 628 317 586 310 552 c 2
 304 521 l 1
 393 521 l 1
 374 435 l 1
 285 435 l 1
 193 0 l 1
 86 0 l 1
 178 435 l 1
 120 435 l 1
 139 521 l 1
 197 521 l 1
 206 566 l 2
 225 660 281 714 383 714 c 0
 394 714 445 710 445 710 c 1
 427 627 l 1
 427 627 398 628 388 628 c 0
EndSplineSet
Validated: 1
Layer: 2
SplineSet
388 628 m 0,0,1
 361 628 361 628 343.5 615 c 128,-1,2
 326 602 326 602 320 588 c 128,-1,3
 314 574 314 574 310 552 c 2,4,-1
 304 521 l 1,5,-1
 393 521 l 1,6,-1
 374 435 l 1,7,-1
 285 435 l 1,8,-1
 193 0 l 1,9,-1
 86 0 l 1,10,-1
 178 435 l 1,11,-1
 120 435 l 1,12,-1
 139 521 l 1,13,-1
 197 521 l 1,14,-1
 206 566 l 2,15,16
 236 714 236 714 383 714 c 1,17,-1
 445 710 l 1,18,-1
 427 627 l 1,19,20
 398 628 398 628 388 628 c 0,0,1
EndSplineSet
EndChar

StartChar: g
Encoding: 103 103 72
Width: 525
Flags: W
HStem: -215 86<147.129 297.443> -5 86<206.673 321.478> 440 86<272.974 394.023>
VStem: 14 109<-105.284 -34> 65 109<114.052 301.674>
DStem2: 316.489 -215 423.006 -215 0.207912 0.978148<157.323 269.772 690.087 752.457>
LayerCount: 3
Fore
SplineSet
460 460 m 1xe8
 473 521 l 1
 580 521 l 1
 494 119 l 2
 456 -60 403 -215 196 -215 c 0
 102 -215 14 -168 14 -69 c 0
 14 -58 16 -46 18 -34 c 1
 125 -34 l 1
 124 -42 123 -49 123 -56 c 0xf0
 123 -107 163 -129 223 -129 c 0
 298 -129 345 -80 359 -15 c 2
 372 49 l 1
 329 19 295 -5 233 -5 c 0
 116 -5 65 76 65 177 c 0
 65 362 202 526 344 526 c 0
 397 526 429 507 460 460 c 1xe8
340 440 m 0
 236 440 174 308 174 194 c 0xe8
 174 126 204 81 268 81 c 0
 373 81 424 211 424 324 c 0
 424 390 399 440 340 440 c 0
EndSplineSet
Validated: 1
Layer: 2
SplineSet
460 460 m 1,0,-1
 473 521 l 1,1,-1
 580 521 l 1,2,-1
 494 119 l 2,3,4
 481 57 481 57 468.5 14.5 c 128,-1,5
 456 -28 456 -28 432.5 -75 c 128,-1,6
 409 -122 409 -122 379.5 -150 c 128,-1,7
 350 -178 350 -178 303 -196.5 c 128,-1,8
 256 -215 256 -215 196 -215 c 0,9,10
 120 -215 120 -215 67 -177 c 128,-1,11
 14 -139 14 -139 14 -69 c 0,12,13
 14 -58 14 -58 18 -34 c 1,14,-1
 125 -34 l 1,15,16
 123 -50 123 -50 123 -56 c 0,17,18
 123 -129 123 -129 223 -129 c 0,19,20
 277 -129 277 -129 312.5 -97.5 c 128,-1,21
 348 -66 348 -66 359 -15 c 2,22,-1
 372 49 l 1,23,24
 344 30 344 30 329.5 21 c 128,-1,25
 315 12 315 12 288.5 3.5 c 128,-1,26
 262 -5 262 -5 233 -5 c 0,27,28
 149 -5 149 -5 107 45.5 c 128,-1,29
 65 96 65 96 65 177 c 0,30,31
 65 267 65 267 105 348.5 c 128,-1,32
 145 430 145 430 209.5 478 c 128,-1,33
 274 526 274 526 344 526 c 0,34,35
 383 526 383 526 410 511 c 128,-1,36
 437 496 437 496 460 460 c 1,0,-1
340 440 m 0,37,38
 291 440 291 440 251.5 402 c 128,-1,39
 212 364 212 364 193 308.5 c 128,-1,40
 174 253 174 253 174 194 c 0,41,42
 174 141 174 141 197.5 111 c 128,-1,43
 221 81 221 81 268 81 c 0,44,45
 341 81 341 81 382.5 155.5 c 128,-1,46
 424 230 424 230 424 324 c 0,47,48
 424 376 424 376 403 408 c 128,-1,49
 382 440 382 440 340 440 c 0,37,38
EndSplineSet
EndChar

StartChar: h
Encoding: 104 104 73
Width: 530
Flags: W
HStem: 0 21G<64 175.226 365 476.266> 440 86<351.088 493.5> 680 20G<208.743 320>
VStem: 446 110<293.219 436.609>
DStem2: 64 0 171 0 0.207912 0.978148<22.2465 407.823 474.132 715.682> 365 0 472 0 0.207912 0.978148<22.2465 405.406>
LayerCount: 3
Fore
SplineSet
365 0 m 1
 436 335 l 2
 441 361 446 382 446 398 c 0
 446 425 435 440 402 440 c 0
 322 440 252 384 227 265 c 2
 171 0 l 1
 64 0 l 1
 213 700 l 1
 320 700 l 1
 265 442 l 1
 267 438 l 1
 307 505 405 526 458 526 c 0
 529 526 556 481 556 420 c 0
 556 401 553 382 549 361 c 2
 472 0 l 1
 365 0 l 1
EndSplineSet
Validated: 1
Layer: 2
SplineSet
365 0 m 1,0,-1
 436 335 l 2,1,2
 446 387 446 387 446 398 c 0,3,4
 446 440 446 440 402 440 c 0,5,6
 339 440 339 440 292 395.5 c 128,-1,7
 245 351 245 351 227 265 c 2,8,-1
 171 0 l 1,9,-1
 64 0 l 1,10,-1
 213 700 l 1,11,-1
 320 700 l 1,12,-1
 265 442 l 1,13,-1
 267 438 l 1,14,15
 294 483 294 483 351 504.5 c 128,-1,16
 408 526 408 526 458 526 c 0,17,18
 556 526 556 526 556 420 c 0,19,20
 556 398 556 398 549 361 c 2,21,-1
 472 0 l 1,22,-1
 365 0 l 1,0,-1
EndSplineSet
EndChar

StartChar: i
Encoding: 105 105 74
Width: 254
Flags: W
HStem: 0 21G<72 183.261> 501 20G<178.739 290> 595 105<221 305>
VStem: 72 256
DStem2: 72 0 179 0 0.207912 0.978148<22.2465 532.693 630.441 715.682>
LayerCount: 3
Fore
SplineSet
198 595 m 1
 221 700 l 1
 328 700 l 1
 305 595 l 1
 198 595 l 1
72 0 m 1
 183 521 l 1
 290 521 l 1
 179 0 l 1
 72 0 l 1
EndSplineSet
Validated: 1
Layer: 2
SplineSet
198 595 m 1,0,-1
 221 700 l 1,1,-1
 328 700 l 1,2,-1
 305 595 l 1,3,-1
 198 595 l 1,0,-1
72 0 m 1,4,-1
 183 521 l 1,5,-1
 290 521 l 1,6,-1
 179 0 l 1,7,-1
 72 0 l 1,4,-1
EndSplineSet
EndChar

StartChar: j
Encoding: 106 106 75
Width: 254
Flags: W
HStem: -215 86<-52.1421 31.4037> 501 20G<178.739 290> 595 105<221 305>
DStem2: 26.3003 -215 133.3 -215 0.207912 0.978148<100.725 752.496 850.245 935.485>
LayerCount: 3
Fore
SplineSet
198 595 m 1
 221 700 l 1
 328 700 l 1
 305 595 l 1
 198 595 l 1
-52 -215 m 0
 -58 -215 -68 -213 -68 -213 c 1
 -50 -127 l 1
 -50 -127 -32 -129 -23 -129 c 0
 25 -129 49 -108 72 0 c 2
 183 521 l 1
 290 521 l 1
 179 0 l 2
 142 -173 110 -215 -52 -215 c 0
EndSplineSet
Validated: 1
Layer: 2
SplineSet
198 595 m 1,0,-1
 221 700 l 1,1,-1
 328 700 l 1,2,-1
 305 595 l 1,3,-1
 198 595 l 1,0,-1
-52 -215 m 1,4,5
 -68 -213 l 1,6,-1
 -50 -127 l 1,7,8
 -32 -129 -32 -129 -23 -129 c 0,9,10
 15 -129 15 -129 35 -103.5 c 128,-1,11
 55 -78 55 -78 72 0 c 2,12,-1
 183 521 l 1,13,-1
 290 521 l 1,14,-1
 179 0 l 2,15,16
 151 -133 151 -133 109 -174 c 128,-1,17
 67 -215 67 -215 -52 -215 c 1,4,5
EndSplineSet
EndChar

StartChar: k
Encoding: 107 107 76
Width: 548
Flags: W
HStem: 0 21G<74 185.298 392.521 517> 501 20G<478.611 614> 680 20G<218.743 330>
DStem2: 74 0 181 0 0.207912 0.978148<22.2465 146.008 292.121 715.682> 237 264 339 259 0.713886 0.700262<0 69.315 208.656 367.005> 441 354 339 259 0.209906 -0.977722<71.4731 336.878>
LayerCount: 3
Fore
SplineSet
397 0 m 1
 339 259 l 1
 207 121 l 1
 181 0 l 1
 74 0 l 1
 223 700 l 1
 330 700 l 1
 237 264 l 1
 499 521 l 1
 614 521 l 1
 441 354 l 1
 517 0 l 1
 397 0 l 1
EndSplineSet
Validated: 1
Layer: 2
SplineSet
397 0 m 1,0,-1
 339 259 l 1,1,-1
 207 121 l 1,2,-1
 181 0 l 1,3,-1
 74 0 l 1,4,-1
 223 700 l 1,5,-1
 330 700 l 1,6,-1
 237 264 l 1,7,-1
 499 521 l 1,8,-1
 614 521 l 1,9,-1
 441 354 l 1,10,-1
 517 0 l 1,11,-1
 397 0 l 1,0,-1
EndSplineSet
EndChar

StartChar: l
Encoding: 108 108 77
Width: 254
Flags: W
HStem: 0 21G<72 183.257> 680 20G<216.743 328>
VStem: 72 256
DStem2: 72 0 179 0 0.207912 0.978148<22.2465 715.682>
LayerCount: 3
Fore
SplineSet
72 0 m 1
 221 700 l 1
 328 700 l 1
 179 0 l 1
 72 0 l 1
EndSplineSet
Validated: 1
Layer: 2
SplineSet
72 0 m 1,0,-1
 221 700 l 1,1,-1
 328 700 l 1,2,-1
 179 0 l 1,3,-1
 72 0 l 1,0,-1
EndSplineSet
EndChar

StartChar: m
Encoding: 109 109 78
Width: 804
Flags: W
HStem: 0 21G<66 177.235 348 459.272 630 741.247> 440 86<324.605 445.125 591.101 700.059>
VStem: 710 111<296.867 430.117>
DStem2: 66 0 173 0 0.207912 0.978148<22.2465 416.695 477.005 532.693> 348 0 455 0 0.207912 0.978148<22.2465 391.674> 630 0 737 0 0.207912 0.978148<22.2465 394.808>
LayerCount: 3
Fore
SplineSet
630 0 m 1
 706 359 l 2
 708 369 710 379 710 387 c 0
 710 423 689 440 643 440 c 0
 598 440 536 379 521 309 c 2
 455 0 l 1
 348 0 l 1
 414 309 l 2
 420 339 425 365 425 385 c 0
 425 421 411 440 367 440 c 0
 306 440 251 370 227 255 c 2
 173 0 l 1
 66 0 l 1
 177 521 l 1
 278 521 l 1
 262 446 l 1
 315 518 366 526 425 526 c 0
 472 526 512 475 514 435 c 1
 576 518 637 526 689 526 c 0
 792 526 821 474 821 416 c 0
 821 401 819 387 816 372 c 2
 737 0 l 1
 630 0 l 1
EndSplineSet
Validated: 1
Layer: 2
SplineSet
630 0 m 1,0,-1
 706 359 l 2,1,2
 710 379 710 379 710 387 c 0,3,4
 710 440 710 440 643 440 c 0,5,6
 608 440 608 440 570 400 c 128,-1,7
 532 360 532 360 521 309 c 2,8,-1
 455 0 l 1,9,-1
 348 0 l 1,10,-1
 414 309 l 2,11,12
 425 364 425 364 425 385 c 0,13,14
 425 413 425 413 412 426.5 c 128,-1,15
 399 440 399 440 367 440 c 0,16,17
 321 440 321 440 283 390.5 c 128,-1,18
 245 341 245 341 227 255 c 2,19,-1
 173 0 l 1,20,-1
 66 0 l 1,21,-1
 177 521 l 1,22,-1
 278 521 l 1,23,-1
 262 446 l 1,24,25
 298 495 298 495 335.5 510.5 c 128,-1,26
 373 526 373 526 425 526 c 0,27,28
 459 526 459 526 485.5 496.5 c 128,-1,29
 512 467 512 467 514 435 c 1,30,31
 556 491 556 491 598 508.5 c 128,-1,32
 640 526 640 526 689 526 c 0,33,34
 821 526 821 526 821 416 c 0,35,36
 821 397 821 397 816 372 c 2,37,-1
 737 0 l 1,38,-1
 630 0 l 1,0,-1
EndSplineSet
EndChar

StartChar: n
Encoding: 110 110 79
Width: 530
Flags: W
HStem: 0 21G<67 178.26 356 467.248> 440 81<328.312 422.167>
VStem: 431 115<290.039 431.684>
DStem2: 67 0 174 0 0.207912 0.978148<22.2465 415.69 474.694 532.693> 356 0 463 0 0.207912 0.978148<22.2465 386.368>
LayerCount: 3
Fore
SplineSet
356 0 m 1
 421 308 l 2
 427 335 431 360 431 380 c 0
 431 417 418 440 376 440 c 0
 328 440 258 395 233 277 c 2
 174 0 l 1
 67 0 l 1
 178 521 l 1
 283 521 l 1
 266 443 l 1
 319 504 364 526 413 526 c 0
 505 526 546 502 546 424 c 0
 546 401 542 373 535 339 c 2
 463 0 l 1
 356 0 l 1
EndSplineSet
Validated: 1
Layer: 2
SplineSet
356 0 m 1,0,-1
 421 308 l 2,1,2
 431 353 431 353 431 380 c 0,3,4
 431 440 431 440 376 440 c 0,5,6
 334 440 334 440 292 399 c 128,-1,7
 250 358 250 358 233 277 c 2,8,-1
 174 0 l 1,9,-1
 67 0 l 1,10,-1
 178 521 l 1,11,-1
 283 521 l 1,12,-1
 266 443 l 1,13,14
 338 526 338 526 413 526 c 0,15,16
 484 526 484 526 515 503.5 c 128,-1,17
 546 481 546 481 546 424 c 0,18,19
 546 392 546 392 535 339 c 2,20,-1
 463 0 l 1,21,-1
 356 0 l 1,0,-1
EndSplineSet
EndChar

StartChar: o
Encoding: 111 111 80
Width: 536
Flags: W
HStem: -5 86<229.404 347.962> 440 86<300.069 421.563>
VStem: 87 109<114.05 307.763> 451 109<215.083 408.779>
LayerCount: 3
Fore
SplineSet
560 335 m 0
 560 179 448 -5 267 -5 c 0
 150 -5 87 74 87 187 c 0
 87 343 199 526 380 526 c 0
 497 526 560 448 560 335 c 0
285 81 m 0
 385 81 451 214 451 325 c 0
 451 381 434 440 362 440 c 0
 267 440 196 310 196 201 c 0
 196 141 216 81 285 81 c 0
EndSplineSet
Validated: 1
Layer: 2
SplineSet
560 335 m 0,0,1
 560 255 560 255 525.5 178 c 128,-1,2
 491 101 491 101 422 48 c 128,-1,3
 353 -5 353 -5 267 -5 c 256,4,5
 181 -5 181 -5 134 47.5 c 128,-1,6
 87 100 87 100 87 187 c 0,7,8
 87 267 87 267 121.5 343.5 c 128,-1,9
 156 420 156 420 225 473 c 128,-1,10
 294 526 294 526 380 526 c 256,11,12
 466 526 466 526 513 474 c 128,-1,13
 560 422 560 422 560 335 c 0,0,1
285 81 m 0,14,15
 356 81 356 81 403.5 158 c 128,-1,16
 451 235 451 235 451 325 c 0,17,18
 451 440 451 440 362 440 c 0,19,20
 294 440 294 440 245 364 c 128,-1,21
 196 288 196 288 196 201 c 0,22,23
 196 149 196 149 216.5 115 c 128,-1,24
 237 81 237 81 285 81 c 0,14,15
EndSplineSet
EndChar

StartChar: p
Encoding: 112 112 81
Width: 536
Flags: W
HStem: -199 21G<12 123.219> -5 86<230.061 339.959> 440 86<324.183 468.598>
VStem: 449 111<215.246 399.49>
DStem2: 12 -199 119 -199 0.207912 0.978148<22.2465 264.463 410.302 627.395 683.592 736.077>
LayerCount: 3
Fore
SplineSet
560 347 m 0
 560 235 501 -5 267 -5 c 0
 233 -5 188 -1 169 38 c 1
 119 -199 l 1
 12 -199 l 1
 165 521 l 1
 272 521 l 1
 256 448 l 1
 304 508 362 526 425 526 c 0
 523 526 560 442 560 347 c 0
282 81 m 0
 363 81 449 204 449 310 c 0
 449 371 426 440 362 440 c 0
 310 440 245 395 225 299 c 2
 209 225 l 2
 205 208 204 193 204 179 c 0
 204 115 238 81 282 81 c 0
EndSplineSet
Validated: 1
Layer: 2
SplineSet
560 347 m 0,0,1
 560 309 560 309 552.5 267 c 128,-1,2
 545 225 545 225 524 175 c 128,-1,3
 503 125 503 125 471.5 86 c 128,-1,4
 440 47 440 47 387 21 c 128,-1,5
 334 -5 334 -5 267 -5 c 0,6,7
 190 -5 190 -5 169 38 c 1,8,-1
 119 -199 l 1,9,-1
 12 -199 l 1,10,-1
 165 521 l 1,11,-1
 272 521 l 1,12,-1
 256 448 l 1,13,14
 318 526 318 526 425 526 c 0,15,16
 494 526 494 526 527 475.5 c 128,-1,17
 560 425 560 425 560 347 c 0,0,1
282 81 m 0,18,19
 342 81 342 81 395.5 155.5 c 128,-1,20
 449 230 449 230 449 310 c 0,21,22
 449 363 449 363 427.5 401.5 c 128,-1,23
 406 440 406 440 362 440 c 0,24,25
 319 440 319 440 279 403 c 128,-1,26
 239 366 239 366 225 299 c 2,27,-1
 209 225 l 2,28,29
 204 204 204 204 204 179 c 0,30,31
 204 133 204 133 226 107 c 128,-1,32
 248 81 248 81 282 81 c 0,18,19
EndSplineSet
EndChar

StartChar: q
Encoding: 113 113 82
Width: 530
Flags: W
HStem: -199 21G<332 443.25> -5 86<214.178 339.226> 440 86<298.171 419.479>
VStem: 81 106<108.777 300.806>
DStem2: 332 -199 439 -199 0.207912 0.978148<22.2465 250.458 345.996 555.871 677.827 736.077>
LayerCount: 3
Fore
SplineSet
81 181 m 0
 81 337 187 526 351 526 c 0
 414 526 455 515 473 464 c 1
 485 521 l 1
 592 521 l 1
 439 -199 l 1
 332 -199 l 1
 384 46 l 1
 340 -3 297 -5 255 -5 c 0
 119 -5 81 90 81 181 c 0
366 440 m 0
 259 440 187 301 187 185 c 0
 187 123 211 81 277 81 c 0
 348 81 409 164 422 225 c 2
 440 312 l 2
 442 323 444 335 444 346 c 0
 444 393 423 440 366 440 c 0
EndSplineSet
Validated: 1
Layer: 2
SplineSet
81 181 m 0,0,1
 81 261 81 261 113.5 339 c 128,-1,2
 146 417 146 417 209.5 471.5 c 128,-1,3
 273 526 273 526 351 526 c 0,4,5
 402 526 402 526 431 513 c 128,-1,6
 460 500 460 500 473 464 c 1,7,-1
 485 521 l 1,8,-1
 592 521 l 1,9,-1
 439 -199 l 1,10,-1
 332 -199 l 1,11,-1
 384 46 l 1,12,13
 363 23 363 23 339 11 c 128,-1,14
 315 -1 315 -1 298.5 -3 c 128,-1,15
 282 -5 282 -5 255 -5 c 0,16,17
 191 -5 191 -5 150 23.5 c 128,-1,18
 109 52 109 52 95 91.5 c 128,-1,19
 81 131 81 131 81 181 c 0,0,1
366 440 m 0,20,21
 290 440 290 440 238.5 359 c 128,-1,22
 187 278 187 278 187 185 c 0,23,24
 187 81 187 81 277 81 c 0,25,26
 327 81 327 81 369 127.5 c 128,-1,27
 411 174 411 174 422 225 c 2,28,-1
 440 312 l 2,29,30
 444 334 444 334 444 346 c 0,31,32
 444 386 444 386 425 413 c 128,-1,33
 406 440 406 440 366 440 c 0,20,21
EndSplineSet
EndChar

StartChar: r
Encoding: 114 114 83
Width: 346
Flags: W
HStem: 0 21G<49 160.215> 426 95<304.298 410>
DStem2: 49 0 156 0 0.207912 0.978148<22.2465 399.005 487.471 532.693>
LayerCount: 3
Fore
SplineSet
253 455 m 1
 292 498 342 526 376 526 c 2
 431 526 l 1
 410 426 l 1
 349 426 246 425 211 261 c 2
 156 0 l 1
 49 0 l 1
 160 521 l 1
 267 521 l 1
 253 455 l 1
EndSplineSet
Validated: 1
Layer: 2
SplineSet
253 455 m 1,0,1
 282 487 282 487 316 506.5 c 128,-1,2
 350 526 350 526 376 526 c 2,3,-1
 431 526 l 1,4,-1
 410 426 l 1,5,6
 384 426 384 426 368.5 425 c 128,-1,7
 353 424 353 424 324.5 415 c 128,-1,8
 296 406 296 406 277.5 390 c 128,-1,9
 259 374 259 374 240 341 c 128,-1,10
 221 308 221 308 211 261 c 2,11,-1
 156 0 l 1,12,-1
 49 0 l 1,13,-1
 160 521 l 1,14,-1
 267 521 l 1,15,-1
 253 455 l 1,0,1
EndSplineSet
EndChar

StartChar: s
Encoding: 115 115 84
Width: 482
Flags: W
HStem: -5 86<192.491 352.57> 440 86<260.17 391.279>
VStem: 65 109<100.391 185> 124 110<346.736 415.427> 381 112<113.002 192.022> 404 109<349 426.865>
LayerCount: 3
Fore
SplineSet
336 206 m 0xe8
 266 239 124 260 124 356 c 0
 124 424 185 526 350 526 c 0
 465 526 513 485 513 400 c 0
 513 384 511 367 508 349 c 1
 401 349 l 1
 403 360 404 370 404 379 c 0
 404 422 380 440 324 440 c 0
 269 440 234 403 234 378 c 0xd4
 234 358 253 345 280 334 c 0
 355 305 493 287 493 187 c 0
 493 123 428 -5 264 -5 c 0
 147 -5 65 15 65 125 c 0
 65 143 67 162 71 185 c 1
 178 185 l 1
 175 172 174 161 174 151 c 0
 174 91 221 81 285 81 c 0
 363 81 381 134 381 157 c 0
 381 178 363 193 336 206 c 0xe8
EndSplineSet
Validated: 1
Layer: 2
SplineSet
336 206 m 0,0,1
 320 213 320 213 287.5 224.5 c 128,-1,2
 255 236 255 236 230 246 c 128,-1,3
 205 256 205 256 179 271 c 128,-1,4
 153 286 153 286 138.5 307.5 c 128,-1,5
 124 329 124 329 124 356 c 0,6,7
 124 418 124 418 181 472 c 128,-1,8
 238 526 238 526 350 526 c 0,9,10
 435 526 435 526 474 495.5 c 128,-1,11
 513 465 513 465 513 400 c 0,12,13
 513 379 513 379 508 349 c 1,14,-1
 401 349 l 1,15,16
 404 365.5 404 365.5 404 379 c 0,17,18
 404 411 404 411 385 425.5 c 128,-1,19
 366 440 366 440 324 440 c 0,20,21
 286 440 286 440 260 419.5 c 128,-1,22
 234 399 234 399 234 378 c 0,23,24
 234 353 234 353 280 334 c 0,25,26
 295 328 295 328 330 317.5 c 128,-1,27
 365 307 365 307 388.5 298 c 128,-1,28
 412 289 412 289 438.5 274 c 128,-1,29
 465 259 465 259 479 237 c 128,-1,30
 493 215 493 215 493 187 c 0,31,32
 493 161 493 161 479.5 129.5 c 128,-1,33
 466 98 466 98 440.5 67 c 128,-1,34
 415 36 415 36 368.5 15.5 c 128,-1,35
 322 -5 322 -5 264 -5 c 0,36,37
 216 -5 216 -5 183 0 c 128,-1,38
 150 5 150 5 121.5 18.5 c 128,-1,39
 93 32 93 32 79 58.5 c 128,-1,40
 65 85 65 85 65 125 c 0,41,42
 65 150 65 150 71 185 c 1,43,-1
 178 185 l 1,44,45
 174 168 174 168 174 151 c 0,46,47
 174 109 174 109 202 95 c 128,-1,48
 230 81 230 81 285 81 c 0,49,50
 336 81 336 81 358.5 106.5 c 128,-1,51
 381 132 381 132 381 157 c 0,52,53
 381 184 381 184 336 206 c 0,0,1
EndSplineSet
EndChar

StartChar: t
Encoding: 116 116 85
Width: 372
Flags: W
HStem: -5 86<202.506 326.971> 435 86<134 197 323 414> 680 20G<249.754 361>
VStem: 128 115<53.5 209.945>
DStem2: 104.141 -5 210.551 -5 0.207912 0.978148<161.703 449.691 560.009 720.752>
LayerCount: 3
Fore
SplineSet
326 2 m 1
 300 0 280 -5 253 -5 c 0
 156 -5 128 26 128 81 c 0
 128 103 133 129 139 159 c 2
 197 435 l 1
 115 435 l 1
 134 521 l 1
 216 521 l 1
 254 700 l 1
 361 700 l 1
 323 521 l 1
 433 521 l 1
 414 435 l 1
 304 435 l 1
 252 190 l 2
 247 168 243 147 243 130 c 0
 243 100 256 81 303 81 c 0
 315 81 320 82 344 84 c 1
 326 2 l 1
EndSplineSet
Validated: 1
Layer: 2
SplineSet
326 2 m 1,0,1
 318 1 318 1 293.5 -2 c 128,-1,2
 269 -5 269 -5 253 -5 c 0,3,4
 183 -5 183 -5 155.5 16 c 128,-1,5
 128 37 128 37 128 81 c 0,6,7
 128 104 128 104 139 159 c 2,8,-1
 197 435 l 1,9,-1
 115 435 l 1,10,-1
 134 521 l 1,11,-1
 216 521 l 1,12,-1
 254 700 l 1,13,-1
 361 700 l 1,14,-1
 323 521 l 1,15,-1
 433 521 l 1,16,-1
 414 435 l 1,17,-1
 304 435 l 1,18,-1
 252 190 l 2,19,20
 243 150 243 150 243 130 c 0,21,22
 243 106 243 106 256.5 93.5 c 128,-1,23
 270 81 270 81 303 81 c 0,24,25
 308 81 308 81 344 84 c 1,26,-1
 326 2 l 1,0,1
EndSplineSet
EndChar

StartChar: u
Encoding: 117 117 86
Width: 530
Flags: W
HStem: -5 86<170.695 306.368> 501 20G<178.71 290 457.71 569>
VStem: 99 114<86.83 231.375>
DStem2: 70.5515 -5 177.551 -5 0.207912 0.978148<169.249 537.885> 349.937 -5 456.937 -5 0.207912 0.978148<27.3583 75.7226 138.353 537.805>
LayerCount: 3
Fore
SplineSet
351 0 m 1
 366 69 l 1
 312 6 269 -5 209 -5 c 0
 122 -5 99 38 99 93 c 0
 99 123 105 158 112 190 c 2
 183 521 l 1
 290 521 l 1
 219 190 l 2
 215 171 213 153 213 137 c 0
 213 105 223 81 257 81 c 0
 334 81 385 164 394 204 c 2
 462 521 l 1
 569 521 l 1
 458 0 l 1
 351 0 l 1
EndSplineSet
Validated: 1
Layer: 2
SplineSet
351 0 m 1,0,-1
 366 69 l 1,1,2
 328 25 328 25 293 10 c 128,-1,3
 258 -5 258 -5 209 -5 c 0,4,5
 99 -5 99 -5 99 93 c 0,6,7
 99 131 99 131 112 190 c 2,8,-1
 183 521 l 1,9,-1
 290 521 l 1,10,-1
 219 190 l 2,11,12
 213 162 213 162 213 137 c 0,13,14
 213 81 213 81 257 81 c 0,15,16
 309 81 309 81 347 123 c 128,-1,17
 385 165 385 165 394 204 c 2,18,-1
 462 521 l 1,19,-1
 569 521 l 1,20,-1
 458 0 l 1,21,-1
 351 0 l 1,0,-1
EndSplineSet
EndChar

StartChar: v
Encoding: 118 118 87
Width: 469
Flags: W
HStem: 0 21G<183.234 306.326> 501 20G<139 255.709 444.313 565>
DStem2: 254 521 139 521 0.0879496 -0.996125<0 352.278> 284 170 296 0 0.458773 0.888553<0 389.874>
LayerCount: 3
Fore
SplineSet
296 0 m 1
 185 0 l 1
 139 521 l 1
 254 521 l 1
 284 170 l 1
 454 521 l 1
 565 521 l 1
 296 0 l 1
EndSplineSet
Validated: 1
Layer: 2
SplineSet
296 0 m 1,0,-1
 185 0 l 1,1,-1
 139 521 l 1,2,-1
 254 521 l 1,3,-1
 284 170 l 1,4,-1
 454 521 l 1,5,-1
 565 521 l 1,6,-1
 296 0 l 1,0,-1
EndSplineSet
EndChar

StartChar: w
Encoding: 119 119 88
Width: 726
Flags: W
HStem: 0 21G<165.848 284.877 457.572 568.635> 501 20G<137 252.39 415.148 534.616 702.919 810>
VStem: 137 115<399.433 521> 450 84<293.818 374> 458 87<164 327.25>
DStem2: 266 164 276 0 0.405685 0.914013<0 263.343> 549 162 559 0 0.434024 0.900901<0 394.169>
LayerCount: 3
Fore
SplineSet
559 0 m 1xe8
 458 0 l 1xe8
 450 374 l 1
 442 374 l 1
 276 0 l 1
 167 0 l 1
 137 521 l 1
 252 521 l 1
 259 162 l 1
 266 164 l 1
 424 521 l 1
 534 521 l 1xf0
 545 164 l 1
 549 162 l 1
 712 521 l 1
 810 521 l 1
 559 0 l 1xe8
EndSplineSet
Validated: 1
Layer: 2
SplineSet
559 0 m 1,0,-1
 458 0 l 1,1,-1
 450 374 l 1,2,-1
 442 374 l 1,3,-1
 276 0 l 1,4,-1
 167 0 l 1,5,-1
 137 521 l 1,6,-1
 252 521 l 1,7,-1
 259 162 l 1,8,-1
 266 164 l 1,9,-1
 424 521 l 1,10,-1
 534 521 l 1,11,-1
 545 164 l 1,12,-1
 549 162 l 1,13,-1
 712 521 l 1,14,-1
 810 521 l 1,15,-1
 559 0 l 1,0,-1
EndSplineSet
EndChar

StartChar: x
Encoding: 120 120 89
Width: 530
Flags: W
HStem: 0 21G<49 177.647 346.176 477> 501 20G<176 306.809 443.255 572>
DStem2: 49 0 162 0 0.618421 0.785847<69.8816 285.726 483.53 662.979> 300 521 176 521 0.321675 -0.94685<0 148.946 330.736 510.358>
LayerCount: 3
Fore
SplineSet
162 0 m 1
 49 0 l 1
 261 270 l 1
 176 521 l 1
 300 521 l 1
 348 380 l 1
 459 521 l 1
 572 521 l 1
 382 280 l 1
 477 0 l 1
 353 0 l 1
 295 170 l 1
 162 0 l 1
EndSplineSet
Validated: 1
Layer: 2
SplineSet
162 0 m 1,0,-1
 49 0 l 1,1,-1
 261 270 l 1,2,-1
 176 521 l 1,3,-1
 300 521 l 1,4,-1
 348 380 l 1,5,-1
 459 521 l 1,6,-1
 572 521 l 1,7,-1
 382 280 l 1,8,-1
 477 0 l 1,9,-1
 353 0 l 1,10,-1
 295 170 l 1,11,-1
 162 0 l 1,0,-1
EndSplineSet
EndChar

StartChar: y
Encoding: 121 121 90
Width: 470
Flags: W
HStem: -215 21G<1.5098 64> 501 20G<149 265.829 454.97 560>
DStem2: 264 521 149 521 0.0955304 -0.995427<0 340.411> 295 182 265 -66 0.449039 0.893512<0 379.237>
LayerCount: 3
Fore
SplineSet
265 -66 m 1
 222 -149 157 -205 64 -211 c 2
 -3 -215 l 1
 20 -113 l 1
 33 -114 44 -115 55 -115 c 0
 116 -115 160 -89 199 0 c 1
 149 521 l 1
 264 521 l 1
 295 182 l 1
 465 521 l 1
 560 521 l 1
 265 -66 l 1
EndSplineSet
Validated: 1
Layer: 2
SplineSet
265 -66 m 1,0,1
 194 -203 194 -203 64 -211 c 2,2,-1
 -3 -215 l 1,3,-1
 20 -113 l 1,4,5
 46 -115 46 -115 55 -115 c 0,6,7
 103 -115 103 -115 137 -89.5 c 128,-1,8
 171 -64 171 -64 199 0 c 1,9,-1
 149 521 l 1,10,-1
 264 521 l 1,11,-1
 295 182 l 1,12,-1
 465 521 l 1,13,-1
 560 521 l 1,14,-1
 265 -66 l 1,0,1
EndSplineSet
EndChar

StartChar: z
Encoding: 122 122 91
Width: 412
Flags: W
HStem: 0 86<148 379> 435 86<152 353>
DStem2: 40 78 148 86 0.660438 0.75088<77.3344 474.781>
LayerCount: 3
Fore
SplineSet
23 0 m 1
 40 78 l 1
 353 435 l 1
 133 435 l 1
 152 521 l 1
 479 521 l 1
 462 443 l 1
 148 86 l 1
 397 86 l 1
 379 0 l 1
 23 0 l 1
EndSplineSet
Validated: 1
Layer: 2
SplineSet
23 0 m 1,0,-1
 40 78 l 1,1,-1
 353 435 l 1,2,-1
 133 435 l 1,3,-1
 152 521 l 1,4,-1
 479 521 l 1,5,-1
 462 443 l 1,6,-1
 148 86 l 1,7,-1
 397 86 l 1,8,-1
 379 0 l 1,9,-1
 23 0 l 1,0,-1
EndSplineSet
EndChar

StartChar: braceleft
Encoding: 123 123 92
Width: 402
Flags: W
HStem: -182 86<249.479 296> 222 86<132 168.249> 616 86<391.447 466>
VStem: 130 115<-94 -36.2292> 180 108<58.6406 210.374>
DStem2: 108.556 -182 215.416 -182 0.207912 0.978148<155.008 354.928 524.951 831.158>
LayerCount: 3
Fore
SplineSet
202 -182 m 2xf0
 177 -182 130 -154 130 -94 c 0xf0
 130 -86 131 -77 133 -67 c 2
 178 144 l 2
 180 152 180 159 180 166 c 0
 180 211 143 222 114 222 c 1
 132 308 l 1
 165 308 216 322 227 376 c 2
 272 587 l 2
 289 665 362 702 390 702 c 2
 484 702 l 1
 466 616 l 1
 449 616 l 2
 386 616 376 572 370 544 c 2
 335 379 l 2
 322 319 265 277 218 273 c 1
 214 254 l 1
 252 251 288 228 288 174 c 0xe8
 288 164 287 154 284 142 c 2
 249 -24 l 2
 247 -33 245 -43 245 -53 c 0
 245 -75 255 -96 298 -96 c 2
 315 -96 l 1
 296 -182 l 1
 202 -182 l 2xf0
EndSplineSet
Validated: 1
Layer: 2
SplineSet
202 -182 m 2,0,1
 179 -182 179 -182 154.5 -158.5 c 128,-1,2
 130 -135 130 -135 130 -94 c 0,3,4
 130 -82 130 -82 133 -67 c 2,5,-1
 178 144 l 2,6,7
 180 152 180 152 180 166 c 0,8,9
 180 222 180 222 114 222 c 1,10,-1
 132 308 l 1,11,12
 163 308 163 308 191.5 324 c 128,-1,13
 220 340 220 340 227 376 c 2,14,-1
 272 587 l 2,15,16
 283 639 283 639 322.5 670.5 c 128,-1,17
 362 702 362 702 390 702 c 2,18,-1
 484 702 l 1,19,-1
 466 616 l 1,20,-1
 449 616 l 2,21,22
 427 616 427 616 411.5 609.5 c 128,-1,23
 396 603 396 603 388 590 c 128,-1,24
 380 577 380 577 376.5 568 c 128,-1,25
 373 559 373 559 370 544 c 2,26,-1
 335 379 l 2,27,28
 326 336 326 336 290.5 306 c 128,-1,29
 255 276 255 276 218 273 c 1,30,-1
 214 254 l 1,31,32
 246 252 246 252 267 232 c 128,-1,33
 288 212 288 212 288 174 c 0,34,35
 288 158 288 158 284 142 c 2,36,-1
 249 -24 l 2,37,38
 245 -42 245 -42 245 -53 c 0,39,40
 245 -96 245 -96 298 -96 c 2,41,-1
 315 -96 l 1,42,-1
 296 -182 l 1,43,-1
 202 -182 l 2,0,1
EndSplineSet
EndChar

StartChar: bar
Encoding: 124 124 93
Width: 294
Flags: W
HStem: 694 20G<251.736 342>
VStem: 62 280
DStem2: 62 -196 148 -196 0.207912 0.978148<17.8804 930.449>
LayerCount: 3
Fore
SplineSet
62 -196 m 1
 256 714 l 1
 342 714 l 1
 148 -196 l 1
 62 -196 l 1
EndSplineSet
Validated: 1
Layer: 2
SplineSet
62 -196 m 1,0,-1
 256 714 l 1,1,-1
 342 714 l 1,2,-1
 148 -196 l 1,3,-1
 62 -196 l 1,0,-1
EndSplineSet
EndChar

StartChar: braceright
Encoding: 125 125 94
Width: 402
Flags: W
HStem: -185 86<46 119.713> 219 86<342.489 382> 613 86<216 262.602>
VStem: 222 110<316.751 451.062> 267 115<495.242 641>
DStem2: 108.416 -185 215.769 -185 0.207912 0.978148<94.0492 418.413 576.871 771.013>
LayerCount: 3
Fore
SplineSet
285 141 m 2xe8
 240 -71 l 2
 223 -149 150 -185 123 -185 c 2
 28 -185 l 1
 46 -99 l 1
 65 -99 l 2
 126 -99 136 -53 142 -27 c 2
 181 156 l 2
 197 233 247 247 295 250 c 1
 300 271 l 1
 260 275 222 293 222 338 c 0xf0
 222 344 222 352 224 359 c 2
 263 541 l 2
 265 549 267 560 267 570 c 0
 267 592 257 613 216 613 c 2
 197 613 l 1
 216 699 l 1
 311 699 l 2
 335 699 382 671 382 611 c 0xe8
 382 603 381 593 379 584 c 2
 334 373 l 2
 333 367 332 362 332 357 c 0xf0
 332 316 371 305 400 305 c 1
 382 219 l 1
 350 219 298 204 285 141 c 2xe8
EndSplineSet
Validated: 1
Layer: 2
SplineSet
285 141 m 2,0,-1
 240 -71 l 2,1,2
 229 -123 229 -123 189.5 -154 c 128,-1,3
 150 -185 150 -185 123 -185 c 2,4,-1
 28 -185 l 1,5,-1
 46 -99 l 1,6,-1
 65 -99 l 2,7,8
 86 -99 86 -99 101.5 -92 c 128,-1,9
 117 -85 117 -85 125 -71.5 c 128,-1,10
 133 -58 133 -58 136 -50 c 128,-1,11
 139 -42 139 -42 142 -27 c 2,12,-1
 181 156 l 2,13,14
 192 208 192 208 221.5 227.5 c 128,-1,15
 251 247 251 247 295 250 c 1,16,-1
 300 271 l 1,17,18
 222 279 222 279 222 338 c 0,19,20
 222 352 222 352 224 359 c 2,21,-1
 263 541 l 2,22,23
 267 557 267 557 267 570 c 0,24,25
 267 613 267 613 216 613 c 2,26,-1
 197 613 l 1,27,-1
 216 699 l 1,28,-1
 311 699 l 2,29,30
 334 699 334 699 358 675 c 128,-1,31
 382 651 382 651 382 611 c 0,32,33
 382 598 382 598 379 584 c 2,34,-1
 334 373 l 2,35,36
 332 361 332 361 332 357 c 0,37,38
 332 329 332 329 352.5 317 c 128,-1,39
 373 305 373 305 400 305 c 1,40,-1
 382 219 l 1,41,42
 351 219 351 219 322.5 201 c 128,-1,43
 294 183 294 183 285 141 c 2,0,-1
EndSplineSet
EndChar

StartChar: asciitilde
Encoding: 126 126 95
Width: 588
Flags: W
HStem: 220 86<432.035 516.037> 339 86<210.521 299.836>
VStem: 82 107<253 310.671> 538 107<331.375 391>
LayerCount: 3
Fore
SplineSet
645 391 m 1
 623 313 584 220 480 220 c 0
 383 220 312 339 245 339 c 0
 210 339 198 294 189 253 c 1
 82 253 l 1
 121 392 185 425 239 425 c 0
 344 425 425 306 483 306 c 0
 514 306 526 342 538 391 c 1
 645 391 l 1
EndSplineSet
Validated: 1
Layer: 2
SplineSet
645 391 m 1,0,1
 635 357 635 357 624 330.5 c 128,-1,2
 613 304 613 304 594 277 c 128,-1,3
 575 250 575 250 546 235 c 128,-1,4
 517 220 517 220 480 220 c 0,5,6
 447 220 447 220 411.5 238.5 c 128,-1,7
 376 257 376 257 351 279.5 c 128,-1,8
 326 302 326 302 296.5 320.5 c 128,-1,9
 267 339 267 339 245 339 c 0,10,11
 222 339 222 339 210 316 c 128,-1,12
 198 293 198 293 189 253 c 1,13,-1
 82 253 l 1,14,15
 130 425 130 425 239 425 c 0,16,17
 274 425 274 425 313 406.5 c 128,-1,18
 352 388 352 388 379 365.5 c 128,-1,19
 406 343 406 343 435 324.5 c 128,-1,20
 464 306 464 306 483 306 c 0,21,22
 504 306 504 306 515.5 327 c 128,-1,23
 527 348 527 348 538 391 c 1,24,-1
 645 391 l 1,0,1
EndSplineSet
EndChar

StartChar: uni0E10.descless
Encoding: 63232 63232 96
Width: 613
Flags: W
HStem: -5 78<334.516 419.241> 306 68<211.762 280.84> 494 78<492.43 678.293> 526 78<314.398 513.933>
VStem: 131 72<232.598 297.203> 215 117<75.4346 163.898> 282 85<239.428 304.32> 468 122<211.93 362.121>
DStem2: 404.155 -5 522.392 -5 0.207912 0.978148<81.3605 319.113>
LayerCount: 3
Fore
SplineSet
131 244 m 0xdd
 131 306 186 374 269 374 c 0
 332 374 367 333 367 287 c 0xdb
 367 280 366 274 365 267 c 2
 339 144 l 2
 335 126 332 112 332 101 c 0
 332 81 343 73 379 73 c 0
 411 73 424 89 432 126 c 2
 466 286 l 2
 468 294 468 301 468 308 c 0
 468 352 436 396 307 419 c 0
 224 434 161 441 160 441 c 1
 167 472 238 604 406 604 c 0xdd
 496 604 544 572 606 572 c 0
 665 572 682 598 682 598 c 1
 703 532 l 1
 700 530 663 494 594 494 c 0xed
 508 494 474 526 399 526 c 0
 326 526 306 498 299 491 c 1
 401 491 505 454 542 425 c 0
 568 404 590 366 590 325 c 0
 590 317 589 310 587 302 c 2
 553 139 l 2
 527 15 457 -5 356 -5 c 0
 248 -5 215 42 215 99 c 0
 215 112 217 127 220 141 c 2
 225 163 l 1
 152 163 131 206 131 244 c 0xdd
234 231 m 0
 257 231 282 249 282 277 c 0
 282 293 271 306 250 306 c 0
 222 306 203 281 203 260 c 0
 203 245 212 231 234 231 c 0
EndSplineSet
Validated: 1
Layer: 2
SplineSet
131 244 m 0,0,1
 131 293 131 293 170.5 333.5 c 128,-1,2
 210 374 210 374 269 374 c 0,3,4
 314 374 314 374 340.5 348.5 c 128,-1,5
 367 323 367 323 367 287 c 0,6,7
 367 281 367 281 365 267 c 2,8,-1
 339 144 l 2,9,10
 332 112 332 112 332 101 c 0,11,12
 332 86 332 86 342 79.5 c 128,-1,13
 352 73 352 73 379 73 c 0,14,15
 402 73 402 73 414 85 c 128,-1,16
 426 97 426 97 432 126 c 2,17,-1
 466 286 l 2,18,19
 468 294 468 294 468 308 c 0,20,21
 468 390 468 390 307 419 c 0,22,23
 185 441 185 441 160 441 c 1,24,25
 163 456 163 456 178.5 480 c 128,-1,26
 194 504 194 504 222 533.5 c 128,-1,27
 250 563 250 563 299 583.5 c 128,-1,28
 348 604 348 604 406 604 c 0,29,30
 454 604 454 604 516 588 c 128,-1,31
 578 572 578 572 606 572 c 0,32,33
 632 572 632 572 651 578.5 c 128,-1,34
 670 585 670 585 676 591.5 c 2,35,-1
 682 598 l 1,36,-1
 703 532 l 1,37,-1
 700.5 530 l 2,38,39
 698 528 698 528 694.5 525.5 c 128,-1,40
 691 523 691 523 685.5 519.5 c 128,-1,41
 680 516 680 516 673.5 512.5 c 128,-1,42
 667 509 667 509 658 505.5 c 128,-1,43
 649 502 649 502 639.5 499.5 c 128,-1,44
 630 497 630 497 618 495.5 c 128,-1,45
 606 494 606 494 594 494 c 0,46,47
 550 494 550 494 492.5 510 c 128,-1,48
 435 526 435 526 399 526 c 0,49,50
 334 526 334 526 299 491 c 1,51,52
 370 491 370 491 440.5 470 c 128,-1,53
 511 449 511 449 542 425 c 0,54,55
 590 386 590 386 590 325 c 0,56,57
 590 314 590 314 587 302 c 2,58,-1
 553 139 l 2,59,60
 535 53 535 53 488 24 c 128,-1,61
 441 -5 441 -5 356 -5 c 0,62,63
 215 -5 215 -5 215 99 c 0,64,65
 215 118 215 118 220 141 c 2,66,-1
 225 163 l 1,67,68
 175 163 175 163 153 186.5 c 128,-1,69
 131 210 131 210 131 244 c 0,0,1
234 231 m 0,70,71
 252 231 252 231 267 244 c 128,-1,72
 282 257 282 257 282 277 c 0,73,74
 282 290 282 290 273.5 298 c 128,-1,75
 265 306 265 306 250 306 c 0,76,77
 230 306 230 306 216.5 291.5 c 128,-1,78
 203 277 203 277 203 260 c 0,79,80
 203 231 203 231 234 231 c 0,70,71
EndSplineSet
EndChar

StartChar: ellipsis
Encoding: 8230 8230 101
Width: 637
VWidth: 2048
Flags: W
HStem: 0 133<86.4056 172.608 297.953 385.017 509.179 592.732>
VStem: 60 140<28.1885 105.949> 272 138<25.0684 107.375> 483 138<29.0105 107.459>
LayerCount: 3
Fore
SplineSet
200 86 m 0
 200 41 167 0 116 0 c 0
 80 0 60 14 60 45 c 0
 60 77 77 133 144 133 c 0
 182 133 200 117 200 86 c 0
272 43 m 0
 272 77 289 133 354 133 c 0
 392 133 410 117 410 86 c 0
 410 55 395 0 326 0 c 0
 290 0 272 14 272 43 c 0
621 86 m 0
 621 33 578 0 538 0 c 0
 502 0 483 14 483 44 c 0
 483 77 500 133 566 133 c 0
 603 133 621 117 621 86 c 0
EndSplineSet
Validated: 1
Layer: 2
SplineSet
200 86 m 0,0,1
 200 51 200 51 176.5 25.5 c 128,-1,2
 153 0 153 0 116 0 c 0,3,4
 60 0 60 0 60 45 c 0,5,6
 60 77 60 77 79.5 105 c 128,-1,7
 99 133 99 133 144 133 c 0,8,9
 200 133 200 133 200 86 c 0,0,1
272 43 m 0,10,11
 272 76 272 76 291 104.5 c 128,-1,12
 310 133 310 133 354 133 c 0,13,14
 410 133 410 133 410 86 c 0,15,16
 410 54 410 54 391 27 c 128,-1,17
 372 0 372 0 326 0 c 0,18,19
 272 0 272 0 272 43 c 0,10,11
621 86 m 0,20,21
 621 48 621 48 595.5 24 c 128,-1,22
 570 0 570 0 538 0 c 0,23,24
 483 0 483 0 483 44 c 0,25,26
 483 77 483 77 502.5 105 c 128,-1,27
 522 133 522 133 566 133 c 0,28,29
 621 133 621 133 621 86 c 0,20,21
EndSplineSet
EndChar

StartChar: uni0E48.low
Encoding: 63242 63242 107
Width: 0
Flags: W
HStem: 684 254<-3 61>
VStem: -57 172
DStem2: -57 684 61 684 0.207912 0.978148<24.5336 259.677>
AnchorPoint: "AboveMark" 67 988 basemark 0
AnchorPoint: "AboveBase" 43 613 mark 0
LayerCount: 3
Fore
SplineSet
-57 684 m 1
 -3 938 l 1
 115 938 l 1
 61 684 l 1
 -57 684 l 1
EndSplineSet
Validated: 1
Layer: 2
SplineSet
-57 684 m 1,0,-1
 -3 938 l 1,1,-1
 115 938 l 1,2,-1
 61 684 l 1,3,-1
 -57 684 l 1,0,-1
EndSplineSet
Substitution2: "Thai Phinthu Mai Ek Reordering" uni0E3A
EndChar

StartChar: uni0E49.low
Encoding: 63243 63243 108
Width: 0
Flags: W
HStem: 946 58<-190.641 -110.426>
VStem: -270 65<853.394 931.932> -107 74<864.717 942.052>
AnchorPoint: "AboveMark" 1 1054 basemark 0
AnchorPoint: "AboveBase" 43 613 mark 0
LayerCount: 3
Fore
SplineSet
-270 871 m 0
 -270 933 -216 1004 -135 1004 c 0
 -76 1004 -33 974 -33 916 c 0
 -33 848 -88 776 -111 760 c 1
 94 788 213 972 218 976 c 1
 184 814 l 1
 135 772 -3 678 -240 678 c 0
 -262 678 -280 679 -295 681 c 1
 -262 697 -207 738 -188 791 c 1
 -222 791 -270 815 -270 871 c 0
-166 850 m 0
 -135 850 -107 876 -107 909 c 0
 -107 931 -122 946 -146 946 c 0
 -177 946 -205 920 -205 887 c 0
 -205 865 -190 850 -166 850 c 0
EndSplineSet
Layer: 2
SplineSet
-270 871 m 0,0,1
 -270 921 -270 921 -231.5 962.5 c 128,-1,2
 -193 1004 -193 1004 -135 1004 c 0,3,4
 -89 1004 -89 1004 -61 981 c 128,-1,5
 -33 958 -33 958 -33 916 c 0,6,7
 -33 871 -33 871 -60.5 823.5 c 128,-1,8
 -88 776 -88 776 -111 760 c 1,9,10
 -69 766 -69 766 -28.5 780.5 c 128,-1,11
 12 795 12 795 43.5 814.5 c 128,-1,12
 75 834 75 834 103 855.5 c 128,-1,13
 131 877 131 877 151.5 898.5 c 128,-1,14
 172 920 172 920 186.5 936.5 c 128,-1,15
 201 953 201 953 209.5 964.5 c 2,16,-1
 218 976 l 1,17,-1
 184 814 l 1,18,19
 160 794 160 794 128.5 774.5 c 128,-1,20
 97 755 97 755 44.5 731 c 128,-1,21
 -8 707 -8 707 -82.5 692.5 c 128,-1,22
 -157 678 -157 678 -240 678 c 0,23,24
 -272 678 -272 678 -295 681 c 1,25,26
 -265 696 -265 696 -233 725.5 c 128,-1,27
 -201 755 -201 755 -188 791 c 1,28,29
 -218 791 -218 791 -244 812 c 128,-1,30
 -270 833 -270 833 -270 871 c 0,0,1
-166 850 m 0,31,32
 -142 850 -142 850 -124.5 867.5 c 128,-1,33
 -107 885 -107 885 -107 909 c 0,34,35
 -107 926 -107 926 -117.5 936 c 128,-1,36
 -128 946 -128 946 -146 946 c 0,37,38
 -170 946 -170 946 -187.5 928.5 c 128,-1,39
 -205 911 -205 911 -205 887 c 0,40,41
 -205 870 -205 870 -194.5 860 c 128,-1,42
 -184 850 -184 850 -166 850 c 0,31,32
EndSplineSet
Substitution2: "Thai Phinthu Mai Tho Reordering" uni0E3A
EndChar

StartChar: uni0E4A.low
Encoding: 63244 63244 109
Width: 0
Flags: W
HStem: 677 40<-251.231 -183.202> 797 41<-228.962 -174.858> 797 32<-228.983 -189.028> 898 77<-209.143 -108.962 -52.8635 43>
VStem: -315 62<718.704 788.527> -173 46<725.897 795.767> 9 88<807.933 894.214> 9 43<778.504 804.031>
AnchorPoint: "AboveMark" -69 1023 basemark 0
AnchorPoint: "AboveBase" 43 613 mark 0
LayerCount: 3
Fore
SplineSet
-100 682 m 1xdd
 -52 705 9 785 9 854 c 0
 9 880 -2 898 -30 898 c 0
 -54 898 -95 872 -101 868 c 1
 -105 872 -127 901 -164 901 c 0
 -205 901 -224 859 -227 845 c 0
 -229 837 -228 832 -229 829 c 1xbe
 -228 829 -210 838 -188 838 c 0
 -152 838 -127 815 -127 778 c 0
 -127 729 -169 677 -230 677 c 0
 -266 677 -315 699 -315 771 c 0
 -315 840 -265 975 -157 975 c 0
 -103 975 -86 938 -84 933 c 1
 -79 937 -30 975 18 975 c 0
 68 975 97 939 97 889 c 0xde
 97 824 52 772 52 771 c 1
 136 809 184 910 196 966 c 1
 280 920 l 1
 280 920 227 794 108 734 c 0
 31 695 -65 682 -100 682 c 1xdd
-205 797 m 0xdc
 -234 797 -253 773 -253 748 c 0
 -253 732 -244 717 -222 717 c 0
 -193 717 -173 741 -173 766 c 0
 -173 782 -183 797 -205 797 c 0xdc
EndSplineSet
Validated: 1
Layer: 2
SplineSet
-100 682 m 1,0,1
 -61 700 -61 700 -26 752.5 c 128,-1,2
 9 805 9 805 9 854 c 0,3,4
 9 898 9 898 -30 898 c 0,5,6
 -56 898 -56 898 -101 868 c 1,7,8
 -134 901 -134 901 -164 901 c 0,9,10
 -191 901 -191 901 -207 881.5 c 128,-1,11
 -223 862 -223 862 -227 845 c 0,12,13
 -228 841 -228 841 -228.5 835.5 c 128,-1,14
 -229 830 -229 830 -229 829 c 2,15,-1
 -226.5 830 l 2,16,17
 -224 831 -224 831 -220.5 832.5 c 128,-1,18
 -217 834 -217 834 -212 835 c 128,-1,19
 -207 836 -207 836 -200.5 837 c 128,-1,20
 -194 838 -194 838 -188 838 c 0,21,22
 -161 838 -161 838 -144 821.5 c 128,-1,23
 -127 805 -127 805 -127 778 c 0,24,25
 -127 739 -127 739 -156.5 708 c 128,-1,26
 -186 677 -186 677 -230 677 c 0,27,28
 -263 677 -263 677 -289 699.5 c 128,-1,29
 -315 722 -315 722 -315 771 c 0,30,31
 -315 810 -315 810 -299 855 c 128,-1,32
 -283 900 -283 900 -245 937.5 c 128,-1,33
 -207 975 -207 975 -157 975 c 0,34,35
 -133 975 -133 975 -115 964.5 c 128,-1,36
 -97 954 -97 954 -91.5 946.5 c 128,-1,37
 -86 939 -86 939 -84 933 c 1,38,39
 -32 975 -32 975 18 975 c 0,40,41
 55 975 55 975 76 951 c 128,-1,42
 97 927 97 927 97 889 c 0,43,44
 97 876 97 876 94.5 862.5 c 128,-1,45
 92 849 92 849 88 837.5 c 128,-1,46
 84 826 84 826 79 815.5 c 128,-1,47
 74 805 74 805 69.5 797 c 128,-1,48
 65 789 65 789 61 783.5 c 128,-1,49
 57 778 57 778 54.5 774.5 c 2,50,-1
 52 771 l 1,51,52
 109 797 109 797 147 855.5 c 128,-1,53
 185 914 185 914 196 966 c 1,54,-1
 280 920 l 1,55,56
 278 915 278 915 273.5 906 c 128,-1,57
 269 897 269 897 253.5 872 c 128,-1,58
 238 847 238 847 220 825 c 128,-1,59
 202 803 202 803 171.5 777 c 128,-1,60
 141 751 141 751 108 734 c 0,61,62
 57 708 57 708 -4 695 c 128,-1,63
 -65 682 -65 682 -100 682 c 1,0,1
-205 797 m 0,64,65
 -226 797 -226 797 -239.5 782.5 c 128,-1,66
 -253 768 -253 768 -253 748 c 0,67,68
 -253 717 -253 717 -222 717 c 0,69,70
 -201 717 -201 717 -187 732 c 128,-1,71
 -173 747 -173 747 -173 766 c 0,72,73
 -173 779 -173 779 -181 788 c 128,-1,74
 -189 797 -189 797 -205 797 c 0,64,65
EndSplineSet
Substitution2: "Thai Phinthu Mai Tri Reordering" uni0E3A
EndChar

StartChar: uni0E4B.low
Encoding: 63245 63245 110
Width: 0
Flags: W
HStem: 808 98<-150 -32 107 226>
DStem2: -59 682 59 682 0.207912 0.978148<24.5336 128.86 253.618 358.923>
AnchorPoint: "AboveMark" 85 1083 basemark 0
AnchorPoint: "AboveBase" 147 613 mark 0
LayerCount: 3
Fore
SplineSet
16 1033 m 1
 134 1033 l 1
 107 906 l 1
 247 906 l 1
 226 808 l 1
 86 808 l 1
 59 682 l 1
 -59 682 l 1
 -32 808 l 1
 -171 808 l 1
 -150 906 l 1
 -11 906 l 1
 16 1033 l 1
EndSplineSet
Validated: 1
Layer: 2
SplineSet
16 1033 m 1,0,-1
 134 1033 l 1,1,-1
 107 906 l 1,2,-1
 247 906 l 1,3,-1
 226 808 l 1,4,-1
 86 808 l 1,5,-1
 59 682 l 1,6,-1
 -59 682 l 1,7,-1
 -32 808 l 1,8,-1
 -171 808 l 1,9,-1
 -150 906 l 1,10,-1
 -11 906 l 1,11,-1
 16 1033 l 1,0,-1
EndSplineSet
Substitution2: "Thai Phinthu Mai Chattawa Reordering" uni0E3A
EndChar

StartChar: uni0E4C.low
Encoding: 63246 63246 111
Width: 0
Flags: W
HStem: 668 48<-71.9523 9.73367> 814 47<-13 20.4886>
VStem: -141 66<719.064 799.298> 25 50<731.363 810.559> 180 95<1004.39 1056>
AnchorPoint: "AboveMark" 23 988 basemark 0
AnchorPoint: "AboveBase" 43 613 mark 0
LayerCount: 3
Fore
SplineSet
75 785 m 0
 75 709 8 668 -51 668 c 0
 -109 668 -141 707 -141 760 c 0
 -141 815 -108 877 -52 910 c 0
 49 970 153 930 180 1056 c 1
 275 1056 l 1
 274 1052 254 986 218 953 c 0
 182 921 140 901 60 895 c 0
 -1 891 -12 861 -13 861 c 1
 -9 861 75 861 75 785 c 0
-14 814 m 0
 -53 814 -75 781 -75 753 c 0
 -75 733 -63 716 -35 716 c 0
 2 716 25 749 25 777 c 0
 25 797 13 814 -14 814 c 0
EndSplineSet
Validated: 1
Layer: 2
SplineSet
75 785 m 0,0,1
 75 731 75 731 36 699.5 c 128,-1,2
 -3 668 -3 668 -51 668 c 0,3,4
 -93 668 -93 668 -117 693.5 c 128,-1,5
 -141 719 -141 719 -141 760 c 0,6,7
 -141 802 -141 802 -117 844 c 128,-1,8
 -93 886 -93 886 -52 910 c 0,9,10
 -21 928 -21 928 22 940 c 128,-1,11
 65 952 65 952 92.5 958.5 c 128,-1,12
 120 965 120 965 145.5 988.5 c 128,-1,13
 171 1012 171 1012 180 1056 c 1,14,-1
 275 1056 l 1,15,16
 273 1049 273 1049 268 1034.5 c 128,-1,17
 263 1020 263 1020 248.5 994 c 128,-1,18
 234 968 234 968 218 953 c 0,19,20
 161 903 161 903 60 895 c 0,21,22
 48 894 48 894 37 892 c 128,-1,23
 26 890 26 890 19 886.5 c 128,-1,24
 12 883 12 883 6 879.5 c 128,-1,25
 0 876 0 876 -3.5 873 c 128,-1,26
 -7 870 -7 870 -9 867 c 128,-1,27
 -11 864 -11 864 -12 862.5 c 2,28,-1
 -13 861 l 1,29,30
 -8 861 -8 861 -2 860.5 c 128,-1,31
 4 860 4 860 19 856 c 128,-1,32
 34 852 34 852 45.5 845 c 128,-1,33
 57 838 57 838 66 822 c 128,-1,34
 75 806 75 806 75 785 c 0,0,1
-14 814 m 0,35,36
 -41 814 -41 814 -58 795 c 128,-1,37
 -75 776 -75 776 -75 753 c 0,38,39
 -75 737 -75 737 -65 726.5 c 128,-1,40
 -55 716 -55 716 -35 716 c 0,41,42
 -9 716 -9 716 8 735 c 128,-1,43
 25 754 25 754 25 777 c 0,44,45
 25 793 25 793 15 803.5 c 128,-1,46
 5 814 5 814 -14 814 c 0,35,36
EndSplineSet
Substitution2: "Thai Phinthu Thanthakhat Reordering" uni0E3A
EndChar

StartChar: uni0E0D.descless
Encoding: 63247 63247 112
Width: 882
Flags: W
HStem: -5 68<219.964 280.877> 0 78<424 463 581 698.088> 524 78<341.936 511.29> 575 20G<800.776 923>
VStem: 131 88<63.4436 134.364> 290 72<71.3143 140.551> 536 121<383.053 499.882>
DStem2: 445.358 -5 563.358 -5 0.207912 0.978148<109.388 456.459> 678.131 -5 796.305 -5 0.207912 0.978148<84.868 613.266>
LayerCount: 3
Fore
SplineSet
362 133 m 0x6e
 362 47 284 -5 226 -5 c 0
 166 -5 131 28 131 87 c 0
 131 99 133 112 136 127 c 2
 168 279 l 2
 188 371 252 392 268 400 c 1
 235 444 157 483 152 484 c 1
 178 512 290 602 458 602 c 0xae
 607 602 657 535 657 458 c 0
 657 444 655 429 652 414 c 2
 581 78 l 1
 656 78 l 2
 688 78 700 98 703 112 c 2
 805 595 l 1
 923 595 l 1x5e
 825 130 l 2
 810 58 756 0 699 0 c 2
 407 0 l 1
 424 78 l 1
 463 78 l 1
 531 402 l 2
 534 417 536 430 536 443 c 0
 536 494 508 524 438 524 c 0
 363 524 312 486 312 486 c 1
 358 458 383 425 399 405 c 1
 377 395 304 364 286 279 c 2
 272 210 l 1
 289 210 362 205 362 133 c 0x6e
245 63 m 0
 273 63 290 90 290 113 c 0
 290 129 282 142 262 142 c 0
 236 142 219 113 219 91 c 0
 219 75 227 63 245 63 c 0
EndSplineSet
Validated: 1
Layer: 2
SplineSet
362 133 m 0,0,1
 362 73 362 73 318 34 c 128,-1,2
 274 -5 274 -5 226 -5 c 0,3,4
 181 -5 181 -5 156 19 c 128,-1,5
 131 43 131 43 131 87 c 0,6,7
 131 102 131 102 136 127 c 2,8,-1
 168 279 l 2,9,10
 172 296 172 296 177.5 310.5 c 128,-1,11
 183 325 183 325 189.5 335.5 c 128,-1,12
 196 346 196 346 204.5 355.5 c 128,-1,13
 213 365 213 365 219.5 371 c 128,-1,14
 226 377 226 377 235 382.5 c 128,-1,15
 244 388 244 388 248.5 390.5 c 128,-1,16
 253 393 253 393 260 396.5 c 128,-1,17
 267 400 267 400 268 400 c 1,18,19
 253 420 253 420 225 440.5 c 128,-1,20
 197 461 197 461 176.5 472 c 128,-1,21
 156 483 156 483 152 484 c 1,22,23
 165 498 165 498 188.5 515 c 128,-1,24
 212 532 212 532 250.5 553 c 128,-1,25
 289 574 289 574 344 588 c 128,-1,26
 399 602 399 602 458 602 c 0,27,28
 562 602 562 602 609.5 562 c 128,-1,29
 657 522 657 522 657 458 c 0,30,31
 657 439 657 439 652 414 c 2,32,-1
 581 78 l 1,33,-1
 656 78 l 2,34,35
 696 78 696 78 703 112 c 2,36,-1
 805 595 l 1,37,-1
 923 595 l 1,38,-1
 825 130 l 2,39,40
 814 75 814 75 777.5 37.5 c 128,-1,41
 741 0 741 0 699 0 c 2,42,-1
 407 0 l 1,43,-1
 424 78 l 1,44,-1
 463 78 l 1,45,-1
 531 402 l 2,46,47
 536 427 536 427 536 443 c 0,48,49
 536 524 536 524 438 524 c 0,50,51
 405 524 405 524 373.5 514.5 c 128,-1,52
 342 505 342 505 327 495.5 c 2,53,-1
 312 486 l 1,54,55
 355 460 355 460 399 405 c 1,56,57
 303 362 303 362 286 279 c 2,58,-1
 272 210 l 1,59,60
 282 210 282 210 294 208 c 128,-1,61
 306 206 306 206 323 199 c 128,-1,62
 340 192 340 192 351 175 c 128,-1,63
 362 158 362 158 362 133 c 0,0,1
245 63 m 0,64,65
 265 63 265 63 277.5 78.5 c 128,-1,66
 290 94 290 94 290 113 c 0,67,68
 290 142 290 142 262 142 c 0,69,70
 244 142 244 142 231.5 125.5 c 128,-1,71
 219 109 219 109 219 91 c 0,72,73
 219 63 219 63 245 63 c 0,64,65
EndSplineSet
EndChar

StartChar: quoteleft
Encoding: 8216 8216 113
Width: 295
Flags: W
HStem: 575 20G<266 284> 684 39<305.116 341>
VStem: 170 156<484.053 582.41>
LayerCount: 3
Fore
SplineSet
326 541 m 0
 326 493 287 450 230 450 c 0
 205 450 170 462 170 513 c 0
 170 586 237 706 350 723 c 1
 341 684 l 1
 306 677 258 630 250 593 c 1
 256 595 263 595 269 595 c 0
 299 595 326 577 326 541 c 0
EndSplineSet
Validated: 1
Layer: 2
SplineSet
326 541 m 0,0,1
 326 504 326 504 299 477 c 128,-1,2
 272 450 272 450 230 450 c 0,3,4
 206 450 206 450 188 464.5 c 128,-1,5
 170 479 170 479 170 513 c 0,6,7
 170 575 170 575 221 643 c 128,-1,8
 272 711 272 711 350 723 c 1,9,-1
 341 684 l 1,10,11
 315 679 315 679 285.5 650 c 128,-1,12
 256 621 256 621 250 593 c 1,13,14
 256 595 256 595 269 595 c 0,15,16
 293 595 293 595 309.5 581 c 128,-1,17
 326 567 326 567 326 541 c 0,0,1
EndSplineSet
EndChar

StartChar: quoteright
Encoding: 8217 8217 114
Width: 280
Flags: W
HStem: 460 40<190 227.23>
VStem: 207 159<598.903 700.384>
LayerCount: 3
Fore
SplineSet
207 641 m 0
 207 669 226 733 303 733 c 0
 330 733 366 723 366 673 c 0
 366 615 312 485 182 460 c 1
 190 500 l 1
 225 507 275 553 283 590 c 1
 276 588 270 588 264 588 c 0
 235 588 207 605 207 641 c 0
EndSplineSet
Validated: 1
Layer: 2
SplineSet
207 641 m 0,0,1
 207 672 207 672 229.5 702.5 c 128,-1,2
 252 733 252 733 303 733 c 0,3,4
 366 733 366 733 366 673 c 0,5,6
 366 649 366 649 355 618 c 128,-1,7
 344 587 344 587 323 554.5 c 128,-1,8
 302 522 302 522 265 495.5 c 128,-1,9
 228 469 228 469 182 460 c 1,10,-1
 190 500 l 1,11,12
 217 505 217 505 247 534 c 128,-1,13
 277 563 277 563 283 590 c 1,14,15
 276 588 276 588 264 588 c 0,16,17
 240 588 240 588 223.5 602 c 128,-1,18
 207 616 207 616 207 641 c 0,0,1
EndSplineSet
EndChar

StartChar: quotedblleft
Encoding: 8220 8220 115
Width: 487
Flags: W
HStem: 687 53<298.286 353 513.286 568>
LayerCount: 3
Fore
SplineSet
326 538 m 0
 326 494 291 448 234 448 c 0
 186 448 171 478 171 513 c 0
 171 576 235 734 364 740 c 1
 353 687 l 1
 267 687 265 595 265 595 c 1
 300 595 326 574 326 538 c 0
541 538 m 0
 541 494 506 448 449 448 c 0
 401 448 386 478 386 513 c 0
 386 576 450 734 579 740 c 1
 568 687 l 1
 482 687 480 595 480 595 c 1
 515 595 541 574 541 538 c 0
EndSplineSet
Validated: 1
Layer: 2
SplineSet
326 538 m 0,0,1
 326 503 326 503 300.5 475.5 c 128,-1,2
 275 448 275 448 234 448 c 0,3,4
 171 448 171 448 171 513 c 0,5,6
 171 539 171 539 183.5 575 c 128,-1,7
 196 611 196 611 218.5 648 c 128,-1,8
 241 685 241 685 280 711.5 c 128,-1,9
 319 738 319 738 364 740 c 1,10,-1
 353 687 l 1,11,12
 315 687 315 687 293 664 c 128,-1,13
 271 641 271 641 268 618 c 2,14,-1
 265 595 l 1,15,16
 292 595 292 595 309 579.5 c 128,-1,17
 326 564 326 564 326 538 c 0,0,1
541 538 m 0,18,19
 541 503 541 503 515.5 475.5 c 128,-1,20
 490 448 490 448 449 448 c 0,21,22
 386 448 386 448 386 513 c 0,23,24
 386 539 386 539 398.5 575 c 128,-1,25
 411 611 411 611 433.5 648 c 128,-1,26
 456 685 456 685 495 711.5 c 128,-1,27
 534 738 534 738 579 740 c 1,28,-1
 568 687 l 1,29,30
 530 687 530 687 508 664 c 128,-1,31
 486 641 486 641 483 618 c 2,32,-1
 480 595 l 1,33,34
 507 595 507 595 524 579.5 c 128,-1,35
 541 564 541 564 541 538 c 0,18,19
EndSplineSet
EndChar

StartChar: quotedblright
Encoding: 8221 8221 116
Width: 493
Flags: W
HStem: 449 54<187 244.891 401 458.891>
LayerCount: 3
Fore
SplineSet
429 653 m 0
 429 704 471 742 521 742 c 0
 568 742 583 712 583 678 c 0
 583 630 529 457 389 449 c 1
 401 503 l 1
 489 503 489 595 489 595 c 1
 451 595 429 618 429 653 c 0
215 653 m 0
 215 704 257 742 307 742 c 0
 354 742 369 712 369 678 c 0
 369 630 315 457 175 449 c 1
 187 503 l 1
 275 503 275 595 275 595 c 1
 237 595 215 618 215 653 c 0
EndSplineSet
Validated: 1
Layer: 2
SplineSet
429 653 m 0,0,1
 429 691 429 691 456 716.5 c 128,-1,2
 483 742 483 742 521 742 c 0,3,4
 583 742 583 742 583 678 c 0,5,6
 583 657 583 657 572 622.5 c 128,-1,7
 561 588 561 588 539.5 549 c 128,-1,8
 518 510 518 510 478 481 c 128,-1,9
 438 452 438 452 389 449 c 1,10,-1
 401 503 l 1,11,12
 440 503 440 503 462 526 c 128,-1,13
 484 549 484 549 486.5 572 c 2,14,-1
 489 595 l 1,15,16
 461 595 461 595 445 610.5 c 128,-1,17
 429 626 429 626 429 653 c 0,0,1
215 653 m 0,18,19
 215 691 215 691 242 716.5 c 128,-1,20
 269 742 269 742 307 742 c 0,21,22
 369 742 369 742 369 678 c 0,23,24
 369 657 369 657 358 622.5 c 128,-1,25
 347 588 347 588 325.5 549 c 128,-1,26
 304 510 304 510 264 481 c 128,-1,27
 224 452 224 452 175 449 c 1,28,-1
 187 503 l 1,29,30
 226 503 226 503 248 526 c 128,-1,31
 270 549 270 549 272.5 572 c 2,32,-1
 275 595 l 1,33,34
 247 595 247 595 231 610.5 c 128,-1,35
 215 626 215 626 215 653 c 0,18,19
EndSplineSet
EndChar

StartChar: bullet
Encoding: 8226 8226 117
Width: 531
Flags: W
HStem: 100 337<284.817 391.194>
VStem: 166 345<219.857 314.501>
LayerCount: 3
Fore
SplineSet
166 229 m 0
 166 323 244 437 374 437 c 0
 469 437 511 378 511 308 c 0
 511 208 428 100 302 100 c 0
 207 100 166 160 166 229 c 0
EndSplineSet
Validated: 1
Layer: 2
SplineSet
166 229 m 0,0,1
 166 306 166 306 224 371.5 c 128,-1,2
 282 437 282 437 374 437 c 0,3,4
 442 437 442 437 476.5 400.5 c 128,-1,5
 511 364 511 364 511 308 c 0,6,7
 511 228 511 228 451.5 164 c 128,-1,8
 392 100 392 100 302 100 c 0,9,10
 235 100 235 100 200.5 136.5 c 128,-1,11
 166 173 166 173 166 229 c 0,0,1
EndSplineSet
EndChar

StartChar: endash
Encoding: 8211 8211 118
Width: 665
Flags: W
HStem: 245 100<121 661>
LayerCount: 3
Fore
SplineSet
661 245 m 1
 100 245 l 1
 121 345 l 1
 682 345 l 1
 661 245 l 1
EndSplineSet
Validated: 1
Layer: 2
SplineSet
661 245 m 1,0,-1
 100 245 l 1,1,-1
 121 345 l 1,2,-1
 682 345 l 1,3,-1
 661 245 l 1,0,-1
EndSplineSet
EndChar

StartChar: emdash
Encoding: 8212 8212 119
Width: 1056
Flags: W
HStem: 245 100<122 1059>
LayerCount: 3
Fore
SplineSet
1059 245 m 1
 101 245 l 1
 122 345 l 1
 1080 345 l 1
 1059 245 l 1
EndSplineSet
Validated: 1
Layer: 2
SplineSet
1059 245 m 1,0,-1
 101 245 l 1,1,-1
 122 345 l 1,2,-1
 1080 345 l 1,3,-1
 1059 245 l 1,0,-1
EndSplineSet
EndChar

StartChar: uni0E01
Encoding: 3585 3585 129
Width: 674
Flags: W
HStem: 0 21G<116 238.275 474 596.234> 524 78<352.569 533.173>
VStem: 565 118<379.385 495.824>
DStem2: 116 0 234 0 0.207912 0.978148<24.5336 364.333> 474 0 592 0 0.207912 0.978148<24.5336 448.846>
LayerCount: 3
Fore
SplineSet
274 397 m 1
 242 441 166 476 159 478 c 1
 183 506 304 602 464 602 c 0
 622 602 683 529 683 448 c 0
 683 436 682 423 679 411 c 2
 592 0 l 1
 474 0 l 1
 561 409 l 2
 563 420 565 430 565 440 c 0
 565 496 524 524 450 524 c 0
 370 524 320 483 320 483 c 1
 366 455 390 422 406 402 c 1
 384 392 311 361 293 276 c 2
 234 0 l 1
 116 0 l 1
 175 276 l 2
 194 364 258 389 274 397 c 1
EndSplineSet
Validated: 1
Layer: 2
SplineSet
274 397 m 1,0,1
 260 417 260 417 232 437 c 128,-1,2
 204 457 204 457 184.5 466.5 c 128,-1,3
 165 476 165 476 159 478 c 1,4,5
 190 514 190 514 275 558 c 128,-1,6
 360 602 360 602 464 602 c 0,7,8
 575 602 575 602 629 558.5 c 128,-1,9
 683 515 683 515 683 448 c 0,10,11
 683 427 683 427 679 411 c 2,12,-1
 592 0 l 1,13,-1
 474 0 l 1,14,-1
 561 409 l 2,15,16
 565 431 565 431 565 440 c 0,17,18
 565 524 565 524 450 524 c 0,19,20
 414 524 414 524 381.5 513.5 c 128,-1,21
 349 503 349 503 334.5 493 c 2,22,-1
 320 483 l 1,23,24
 361 458 361 458 406 402 c 1,25,26
 310 359 310 359 293 276 c 2,27,-1
 234 0 l 1,28,-1
 116 0 l 1,29,-1
 175 276 l 2,30,31
 178 289 178 289 182 300.5 c 128,-1,32
 186 312 186 312 190.5 321.5 c 128,-1,33
 195 331 195 331 201.5 339.5 c 128,-1,34
 208 348 208 348 213 354 c 128,-1,35
 218 360 218 360 225.5 366.5 c 128,-1,36
 233 373 233 373 237.5 376.5 c 128,-1,37
 242 380 242 380 249.5 384 c 128,-1,38
 257 388 257 388 259.5 389.5 c 128,-1,39
 262 391 262 391 268 394 c 2,40,-1
 274 397 l 1,0,1
EndSplineSet
EndChar

StartChar: uni0E02
Encoding: 3586 3586 130
Width: 659
Flags: W
HStem: 0 78<137 207 325 472.255> 335 68<196.474 259.293> 524 78<312.81 370.182> 575 20G<583.783 706>
VStem: 121 74<404.212 472.314> 268 70<409.888 480.278> 387 98<395.52 510.206>
DStem2: 190.421 0 308.421 0 0.207912 0.978148<104.276 296.148> 462.305 0 579.73 0 0.207912 0.978148<84.466 608.131>
LayerCount: 3
Fore
SplineSet
121 419 m 0xee
 121 475 172 602 335 602 c 0xee
 451 602 485 534 485 477 c 0
 485 367 373 305 357 230 c 2
 325 78 l 1
 427 78 l 2
 458 78 482 94 491 135 c 2
 588 595 l 1
 706 595 l 1xde
 608 133 l 2
 595 73 553 0 449 0 c 2
 120 0 l 1
 137 78 l 1
 207 78 l 1
 238 224 l 2
 256 310 387 354 387 457 c 0
 387 487 374 524 324 524 c 0
 317 524 311 523 307 523 c 1
 328 512 338 486 338 459 c 0
 338 402 288 335 212 335 c 0
 158 335 121 366 121 419 c 0xee
240 481 m 0
 213 481 195 454 195 432 c 0
 195 416 204 403 225 403 c 0
 251 403 268 428 268 452 c 0
 268 467 260 481 240 481 c 0
EndSplineSet
Validated: 1
Layer: 2
SplineSet
121 419 m 0,0,1
 121 437 121 437 127.5 459.5 c 128,-1,2
 134 482 134 482 150 507.5 c 128,-1,3
 166 533 166 533 189 553.5 c 128,-1,4
 212 574 212 574 250.5 588 c 128,-1,5
 289 602 289 602 335 602 c 0,6,7
 414 602 414 602 449.5 565 c 128,-1,8
 485 528 485 528 485 477 c 0,9,10
 485 440 485 440 467 402.5 c 128,-1,11
 449 365 449 365 427 340 c 128,-1,12
 405 315 405 315 383.5 284.5 c 128,-1,13
 362 254 362 254 357 230 c 2,14,-1
 325 78 l 1,15,-1
 427 78 l 2,16,17
 478 78 478 78 491 135 c 2,18,-1
 588 595 l 1,19,-1
 706 595 l 1,20,-1
 608 133 l 2,21,22
 596 78 596 78 558 39 c 128,-1,23
 520 0 520 0 449 0 c 2,24,-1
 120 0 l 1,25,-1
 137 78 l 1,26,-1
 207 78 l 1,27,-1
 238 224 l 2,28,29
 244 252 244 252 269 282 c 128,-1,30
 294 312 294 312 319.5 334 c 128,-1,31
 345 356 345 356 366 389 c 128,-1,32
 387 422 387 422 387 457 c 0,33,34
 387 484 387 484 372.5 504 c 128,-1,35
 358 524 358 524 324 524 c 0,36,37
 320 524 320 524 314.5 523.5 c 128,-1,38
 309 523 309 523 307 523 c 1,39,40
 338 507 338 507 338 459 c 0,41,42
 338 413 338 413 302 374 c 128,-1,43
 266 335 266 335 212 335 c 0,44,45
 171 335 171 335 146 357.5 c 128,-1,46
 121 380 121 380 121 419 c 0,0,1
240 481 m 0,47,48
 221 481 221 481 208 465.5 c 128,-1,49
 195 450 195 450 195 432 c 0,50,51
 195 403 195 403 225 403 c 0,52,53
 244 403 244 403 256 418 c 128,-1,54
 268 433 268 433 268 452 c 0,55,56
 268 481 268 481 240 481 c 0,47,48
EndSplineSet
EndChar

StartChar: uni0E03
Encoding: 3587 3587 131
Width: 669
Flags: W
HStem: 0 78<149 221 339 477.714> 275 68<157.581 214.768> 421 68<184.5 221.85> 524 78<210.344 295.477> 524 25<342 390> 575 20G<584.756 707>
VStem: 87 69<343.945 415.654> 223 72<349.247 420.447> 409 100<421.81 523.081>
DStem2: 204.421 0 322.421 0 0.207912 0.978148<104.276 309.491> 462.706 0 581.493 0 0.207912 0.978148<83.3584 608.256>
LayerCount: 3
Fore
SplineSet
295 409 m 0xf380
 295 331 233 275 165 275 c 0
 117 275 87 306 87 362 c 0
 87 461 167 602 264 602 c 0xf380
 314 602 341 549 342 549 c 0xeb80
 349 549 392 602 435 602 c 0xf380
 484 602 509 550 509 498 c 0
 509 363 391 324 369 221 c 2
 339 78 l 1
 426 78 l 2
 460 78 482 92 488 119 c 2
 589 595 l 1
 707 595 l 1
 607 120 l 2
 588 29 516 0 432 0 c 2
 132 0 l 1
 149 78 l 1
 221 78 l 1
 252 227 l 2
 269 311 409 397 409 482 c 0
 409 505 400 524 390 524 c 0xef80
 364 524 321 465 320 464 c 1
 319 468 296 524 248 524 c 0
 214 524 203 491 202 487 c 1
 202 487 207 489 217 489 c 0
 264 489 295 459 295 409 c 0xf380
182 343 m 0
 205 343 223 367 223 392 c 0
 223 408 214 421 196 421 c 0
 173 421 156 398 156 373 c 0
 156 357 165 343 182 343 c 0
EndSplineSet
Validated: 1
Layer: 2
SplineSet
295 409 m 0,0,1
 295 352 295 352 256 313.5 c 128,-1,2
 217 275 217 275 165 275 c 0,3,4
 129 275 129 275 108 297.5 c 128,-1,5
 87 320 87 320 87 362 c 0,6,7
 87 442 87 442 141 522 c 128,-1,8
 195 602 195 602 264 602 c 0,9,10
 278 602 278 602 291 596.5 c 128,-1,11
 304 591 304 591 313 583.5 c 128,-1,12
 322 576 322 576 328.5 568 c 128,-1,13
 335 560 335 560 338.5 554.5 c 2,14,-1
 342 549 l 2,15,16
 344 549 344 549 358.5 562.5 c 128,-1,17
 373 576 373 576 394.5 589 c 128,-1,18
 416 602 416 602 435 602 c 0,19,20
 470 602 470 602 489.5 571 c 128,-1,21
 509 540 509 540 509 498 c 0,22,23
 509 452 509 452 490 412 c 128,-1,24
 471 372 471 372 447.5 347.5 c 128,-1,25
 424 323 424 323 400 288.5 c 128,-1,26
 376 254 376 254 369 221 c 2,27,-1
 339 78 l 1,28,-1
 426 78 l 2,29,30
 479 78 479 78 488 119 c 2,31,-1
 589 595 l 1,32,-1
 707 595 l 1,33,-1
 607 120 l 2,34,35
 582 0 582 0 432 0 c 2,36,-1
 132 0 l 1,37,-1
 149 78 l 1,38,-1
 221 78 l 1,39,-1
 252 227 l 2,40,41
 258 255 258 255 284 290.5 c 128,-1,42
 310 326 310 326 337 354.5 c 128,-1,43
 364 383 364 383 386.5 418 c 128,-1,44
 409 453 409 453 409 482 c 0,45,46
 409 499 409 499 403.5 511.5 c 128,-1,47
 398 524 398 524 390 524 c 0,48,49
 385 524 385 524 378 521 c 128,-1,50
 371 518 371 518 364.5 512.5 c 128,-1,51
 358 507 358 507 351.5 500.5 c 128,-1,52
 345 494 345 494 339.5 488 c 128,-1,53
 334 482 334 482 330 476.5 c 128,-1,54
 326 471 326 471 323 467.5 c 2,55,-1
 320 464 l 1,56,57
 319 470 319 470 312 482 c 128,-1,58
 305 494 305 494 287 509 c 128,-1,59
 269 524 269 524 248 524 c 0,60,61
 233 524 233 524 221.5 515 c 128,-1,62
 210 506 210 506 206.5 499 c 128,-1,63
 203 492 203 492 202 487 c 1,64,65
 207 489 207 489 217 489 c 0,66,67
 253 489 253 489 274 467.5 c 128,-1,68
 295 446 295 446 295 409 c 0,0,1
182 343 m 0,69,70
 199 343 199 343 211 358 c 128,-1,71
 223 373 223 373 223 392 c 0,72,73
 223 421 223 421 196 421 c 0,74,75
 179 421 179 421 167.5 406.5 c 128,-1,76
 156 392 156 392 156 373 c 0,77,78
 156 360 156 360 163 351.5 c 128,-1,79
 170 343 170 343 182 343 c 0,69,70
EndSplineSet
EndChar

StartChar: uni0E04
Encoding: 3588 3588 132
Width: 702
Flags: W
HStem: 0 21G<147 277 502 624.271> 205 68<380.051 447.028> 348 68<386.547 454.949> 524 78<361.668 556.229>
VStem: 134 114<169.438 396.563> 147 120<0 75.0312> 456 71<281.444 346.313> 589 118<312.516 493.6>
DStem2: 502 0 620 0 0.207912 0.978148<24.5336 440.8>
LayerCount: 3
Fore
SplineSet
134 291 m 0xfb
 134 476 272 602 481 602 c 0
 628 602 707 539 707 435 c 0
 707 419 706 402 702 384 c 2
 620 0 l 1
 502 0 l 1
 582 378 l 2
 586 396 589 415 589 433 c 0
 589 483 564 524 462 524 c 0
 313 524 273 425 261 368 c 0
 250 317 248 245 248 203 c 0xfb
 248 183 248 170 249 169 c 1
 250 173 288 302 322 348 c 0
 350 386 381 414 442 416 c 1
 498 416 527 376 527 331 c 0
 527 262 469 205 400 205 c 0
 367 205 347 221 347 221 c 1
 347 221 287 96 267 0 c 1
 147 0 l 1xf7
 151 21 l 2
 156 42 158 62 158 82 c 0
 158 154 134 217 134 291 c 0xfb
410 273 m 0
 437 273 456 298 456 319 c 0
 456 335 446 348 426 348 c 0
 398 348 379 325 379 302 c 0
 379 287 388 273 410 273 c 0
EndSplineSet
Validated: 1
Layer: 2
SplineSet
134 291 m 0,0,1
 134 430 134 430 229.5 516 c 128,-1,2
 325 602 325 602 481 602 c 0,3,4
 590 602 590 602 648.5 558 c 128,-1,5
 707 514 707 514 707 435 c 0,6,7
 707 406 707 406 702 384 c 2,8,-1
 620 0 l 1,9,-1
 502 0 l 1,10,-1
 582 378 l 2,11,12
 589 410 589 410 589 433 c 0,13,14
 589 524 589 524 462 524 c 0,15,16
 409 524 409 524 370 508.5 c 128,-1,17
 331 493 331 493 309.5 466.5 c 128,-1,18
 288 440 288 440 277 417 c 128,-1,19
 266 394 266 394 261 368 c 0,20,21
 248 308 248 308 248 203 c 0,22,23
 248 170 248 170 249 169 c 1,24,25
 251 177 251 177 260.5 207 c 128,-1,26
 270 237 270 237 288.5 282.5 c 0,27,28
 305 324 305 324 322 348 c 0,29,30
 370 416 370 416 442 416 c 0,31,32
 482 416 482 416 504.5 391.5 c 128,-1,33
 527 367 527 367 527 331 c 0,34,35
 527 279 527 279 489.5 242 c 128,-1,36
 452 205 452 205 400 205 c 0,37,38
 385 205 385 205 372 209 c 128,-1,39
 359 213 359 213 353 217 c 2,40,-1
 347 221 l 1,41,42
 287 96 287 96 267 0 c 1,43,-1
 147 0 l 1,44,-1
 151 21 l 2,45,46
 158 50 158 50 158 82 c 0,47,48
 158 118 158 118 146 186 c 128,-1,49
 134 254 134 254 134 291 c 0,0,1
410 273 m 0,50,51
 429 273 429 273 442.5 287.5 c 128,-1,52
 456 302 456 302 456 319 c 0,53,54
 456 348 456 348 426 348 c 0,55,56
 406 348 406 348 392.5 334 c 128,-1,57
 379 320 379 320 379 302 c 0,58,59
 379 273 379 273 410 273 c 0,50,51
EndSplineSet
EndChar

StartChar: uni0E05
Encoding: 3589 3589 133
Width: 698
Flags: W
HStem: 0 21G<136 269 494 616.244> 182 68<366.777 433.61> 325 68<373.862 440.894> 502 100<310.186 350 565 578.63>
VStem: 136 118<0 363> 149 88<169.056 246.957> 442 72<257.072 324.09> 585 120<379.14 494.842>
DStem2: 494 0 612 0 0.207912 0.978148<24.5336 456.578>
LayerCount: 3
Fore
SplineSet
331 195 m 1xf7
 331 195 284 102 254 0 c 1
 136 0 l 1xfb
 141 25 l 2
 146 50 149 73 149 94 c 0
 149 166 124 220 124 292 c 0
 124 500 304 602 373 602 c 1
 455 545 l 1
 565 602 l 1
 610 602 705 573 705 461 c 0
 705 446 703 429 699 410 c 2
 612 0 l 1
 494 0 l 1
 580 405 l 2
 584 422 585 436 585 448 c 0
 585 488 566 503 537 503 c 1
 436 456 l 1
 350 502 l 1
 320 502 269 451 250 363 c 0
 239 312 237 244 237 203 c 0
 237 184 237 170 238 169 c 1
 239 173 276 284 303 320 c 0
 329 354 362 393 431 393 c 0
 464 393 514 376 514 316 c 0
 514 226 435 182 381 182 c 0
 352 182 331 195 331 195 c 1xf7
396 250 m 0
 424 250 442 275 442 296 c 0
 442 311 432 325 412 325 c 0
 385 325 366 300 366 279 c 0
 366 263 376 250 396 250 c 0
EndSplineSet
Validated: 1
Layer: 2
SplineSet
331 195 m 1,0,1
 284 102 284 102 254 0 c 1,2,-1
 136 0 l 1,3,-1
 141 25 l 2,4,5
 149 65 149 65 149 94 c 0,6,7
 149 130 149 130 136.5 193 c 128,-1,8
 124 256 124 256 124 292 c 0,9,10
 124 365 124 365 153 427.5 c 128,-1,11
 182 490 182 490 223 526 c 128,-1,12
 264 562 264 562 304.5 582 c 128,-1,13
 345 602 345 602 373 602 c 1,14,-1
 455 545 l 1,15,-1
 565 602 l 1,16,17
 584 602 584 602 606 595.5 c 128,-1,18
 628 589 628 589 651.5 574 c 128,-1,19
 675 559 675 559 690 529.5 c 128,-1,20
 705 500 705 500 705 461 c 0,21,22
 705 438.5 705 438.5 699 410 c 2,23,-1
 612 0 l 1,24,-1
 494 0 l 1,25,-1
 580 405 l 2,26,27
 585 426 585 426 585 448 c 0,28,29
 585 503 585 503 537 503 c 1,30,-1
 436 456 l 1,31,-1
 350 502 l 1,32,33
 325 502 325 502 294 463 c 128,-1,34
 263 424 263 424 250 363 c 0,35,36
 237 303 237 303 237 203 c 0,37,38
 237 170 237 170 238 169 c 1,39,40
 239 174 239 174 249 201.5 c 128,-1,41
 259 229 259 229 275 266.5 c 128,-1,42
 291 304 291 304 303 320 c 0,43,44
 320 342 320 342 333 355 c 128,-1,45
 346 368 346 368 372.5 380.5 c 128,-1,46
 399 393 399 393 431 393 c 0,47,48
 462 393 462 393 488 374.5 c 128,-1,49
 514 356 514 356 514 316 c 0,50,51
 514 254 514 254 471 218 c 128,-1,52
 428 182 428 182 381 182 c 0,53,54
 368 182 368 182 355.5 185 c 128,-1,55
 343 188 343 188 337 191.5 c 2,56,-1
 331 195 l 1,0,1
396 250 m 0,57,58
 416 250 416 250 429 264.5 c 128,-1,59
 442 279 442 279 442 296 c 0,60,61
 442 308 442 308 434 316.5 c 128,-1,62
 426 325 426 325 412 325 c 0,63,64
 393 325 393 325 379.5 310.5 c 128,-1,65
 366 296 366 296 366 279 c 0,66,67
 366 250 366 250 396 250 c 0,57,58
EndSplineSet
EndChar

StartChar: uni0E06
Encoding: 3590 3590 134
Width: 767
Flags: W
HStem: -5 78<248.746 294.851> 203 78<271.74 319> 274 68<166.862 223.504> 421 68<194.5 231.087> 524 78<221.47 305.496 396.515 471.5> 575 20G<682.789 805>
VStem: 97 69<343.153 414.401> 162 84<76.0153 177.146> 232 72<348.905 420.406> 416 104<430.714 523.963>
DStem2: 274.744 -5 393.107 -5 0.207912 0.978148<79.5339 188.159 287.279 437.063> 560.392 -5 678.02 -5 0.207912 0.978148<137.604 613.212>
LayerCount: 3
Fore
SplineSet
97 359 m 0xbac0
 97 446 168 602 275 602 c 0
 321 602 347 558 353 549 c 1
 363 557 409 602 445 602 c 0xbac0
 498 602 520 542 520 498 c 0
 520 447 481 409 468 348 c 2
 449 258 l 1
 452 256 480 244 511 213 c 0
 564 159 581 130 587 130 c 0
 589 130 590 133 591 139 c 2
 687 595 l 1
 805 595 l 1
 698 89 l 2
 682 16 622 -5 588 -5 c 0
 540 -5 521 34 486 83 c 0
 447 138 429 150 427 155 c 1
 415 98 l 2
 397 11 324 -5 270 -5 c 0
 214 -5 162 29 162 98 c 0
 162 207 257 281 336 281 c 1xd540
 351 351 l 2
 361 397 416 440 416 493 c 0
 416 509 411 524 401 524 c 0
 375 524 335 470 329 464 c 1
 326 470 307 524 259 524 c 0
 228 524 215 497 213 487 c 1
 213 487 218 489 227 489 c 0
 266 489 304 465 304 410 c 0
 304 338 248 274 175 274 c 0
 141 274 97 291 97 359 c 0xbac0
305 203 m 0xd140
 269 203 246 143 246 111 c 0
 246 91 254 73 284 73 c 0
 291 73 292 78 296 95 c 2
 319 201 l 2
 318 201 313 203 305 203 c 0xd140
191 342 m 1xb2c0
 216 342 232 369 232 393 c 0
 232 409 224 421 207 421 c 0
 182 421 166 396 166 372 c 0
 166 356 174 343 191 342 c 1xb2c0
EndSplineSet
Validated: 1
Layer: 2
SplineSet
97 359 m 256,0,1
 97 405 97 405 118.5 460 c 128,-1,2
 140 515 140 515 182.5 558.5 c 128,-1,3
 225 602 225 602 275 602 c 0,4,5
 318 602 318 602 353 549 c 1,6,-1
 362.5 557 l 2,7,8
 372 565 372 565 380 571.5 c 128,-1,9
 388 578 388 578 399.5 585.5 c 128,-1,10
 411 593 411 593 423 597.5 c 128,-1,11
 435 602 435 602 445 602 c 0,12,13
 481 602 481 602 500.5 569.5 c 128,-1,14
 520 537 520 537 520 498 c 0,15,16
 520 470 520 470 497 422.5 c 128,-1,17
 474 375 474 375 468 348 c 2,18,-1
 449 258 l 1,19,-1
 453.5 256 l 2,20,21
 458 254 458 254 463.5 250.5 c 128,-1,22
 469 247 469 247 476.5 242 c 128,-1,23
 484 237 484 237 493 229.5 c 128,-1,24
 502 222 502 222 511 213 c 0,25,26
 533 190 533 190 551.5 168.5 c 128,-1,27
 570 147 570 147 577.5 138.5 c 128,-1,28
 585 130 585 130 587 130 c 0,29,30
 590 130 590 130 591 139 c 2,31,-1
 687 595 l 1,32,-1
 805 595 l 1,33,-1
 698 89 l 2,34,35
 687 40 687 40 654 17.5 c 128,-1,36
 621 -5 621 -5 588 -5 c 0,37,38
 576 -5 576 -5 565.5 -1.5 c 128,-1,39
 555 2 555 2 548 6 c 128,-1,40
 541 10 541 10 531.5 21 c 128,-1,41
 522 32 522 32 517.5 37.5 c 128,-1,42
 513 43 513 43 501.5 60 c 128,-1,43
 490 77 490 77 486 83 c 0,44,45
 469 107 469 107 454.5 124 c 128,-1,46
 440 141 440 141 434 147 c 128,-1,47
 428 153 428 153 427 155 c 2,48,-1
 415 98 l 2,49,50
 394 -5 394 -5 270 -5 c 0,51,52
 225 -5 225 -5 193.5 22 c 128,-1,53
 162 49 162 49 162 98 c 0,54,55
 162 176 162 176 217 228.5 c 128,-1,56
 272 281 272 281 336 281 c 1,57,-1
 351 351 l 2,58,59
 355 370 355 370 385.5 417 c 128,-1,60
 416 464 416 464 416 493 c 0,61,62
 416 524 416 524 401 524 c 0,63,64
 392 524 392 524 379.5 515 c 128,-1,65
 367 506 367 506 358 496.5 c 128,-1,66
 349 487 349 487 339 475.5 c 2,67,-1
 329 464 l 1,68,-1
 327 468 l 2,69,70
 325 472 325 472 323.5 476 c 128,-1,71
 322 480 322 480 318.5 485.5 c 128,-1,72
 315 491 315 491 311 496 c 128,-1,73
 307 501 307 501 301.5 506.5 c 128,-1,74
 296 512 296 512 290 515.5 c 128,-1,75
 284 519 284 519 276 521.5 c 128,-1,76
 268 524 268 524 259 524 c 0,77,78
 239 524 239 524 227 511.5 c 128,-1,79
 215 499 215 499 213 487 c 1,80,81
 218 489 218 489 227 489 c 0,82,83
 259 489 259 489 281.5 469 c 128,-1,84
 304 449 304 449 304 410 c 0,85,86
 304 355 304 355 266.5 314.5 c 128,-1,87
 229 274 229 274 175 274 c 0,88,89
 144 274 144 274 120.5 293.5 c 128,-1,90
 97 313 97 313 97 359 c 256,0,1
305 203 m 0,91,92
 280 203 280 203 263 171 c 128,-1,93
 246 139 246 139 246 111 c 0,94,95
 246 73 246 73 284 73 c 0,96,97
 291 73 291 73 296 95 c 2,98,-1
 319 201 l 1,99,-1
 317 201.5 l 2,100,101
 315 202 315 202 312 202.5 c 128,-1,102
 309 203 309 203 305 203 c 0,91,92
191 342 m 0,103,104
 209 342 209 342 220.5 358 c 128,-1,105
 232 374 232 374 232 393 c 0,106,107
 232 421 232 421 207 421 c 0,108,109
 189 421 189 421 177.5 406 c 128,-1,110
 166 391 166 391 166 372 c 0,111,112
 166 343 166 343 191 342 c 0,103,104
EndSplineSet
EndChar

StartChar: uni0E07
Encoding: 3591 3591 135
Width: 510
Flags: W
HStem: -5 78<242.913 313.694> 388 68<352.226 390.163> 534 68<358.806 428.48>
VStem: 278 72<457.535 524.41> 431 91<465.536 532.99>
DStem2: 298.667 -5 417.054 -5 0.207912 0.978148<85.723 402.924>
LayerCount: 3
Fore
SplineSet
278 469 m 0
 278 542 341 602 415 602 c 0
 503 602 522 552 522 508 c 0
 522 493 519 478 517 467 c 2
 450 150 l 2
 424 26 329 -5 262 -5 c 0
 211 -5 158 14 142 72 c 0
 129 121 138 165 120 210 c 0
 108 241 90 234 69 240 c 1
 91 343 l 2
 92 343 100 344 112 344 c 0
 136 344 176 339 197 305 c 0
 238 235 211 73 272 73 c 0
 311 73 321 100 328 133 c 2
 383 389 l 1
 383 389 378 388 371 388 c 0
 315 388 278 419 278 469 c 0
383 456 m 0
 409 456 431 477 431 504 c 0
 431 522 420 534 400 534 c 0
 374 534 350 513 350 486 c 0
 350 468 363 456 383 456 c 0
EndSplineSet
Validated: 1
Layer: 2
SplineSet
278 469 m 0,0,1
 278 524 278 524 318.5 563 c 128,-1,2
 359 602 359 602 415 602 c 0,3,4
 522 602 522 602 522 508 c 0,5,6
 522 494 522 494 517 467 c 2,7,-1
 450 150 l 2,8,9
 432 66 432 66 378 30.5 c 128,-1,10
 324 -5 324 -5 262 -5 c 0,11,12
 163 -5 163 -5 142 72 c 0,13,14
 136 93 136 93 133 139 c 128,-1,15
 130 185 130 185 120 210 c 0,16,17
 115 224 115 224 108.5 229.5 c 128,-1,18
 102 235 102 235 87 237 c 128,-1,19
 72 239 72 239 69 240 c 2,20,-1
 91 343 l 1,21,-1
 94 343.5 l 2,22,23
 97 344 97 344 102 344 c 128,-1,24
 107 344 107 344 112 344 c 0,25,26
 173 344 173 344 197 305 c 0,27,28
 213 278 213 278 219.5 217 c 128,-1,29
 226 156 226 156 236 114.5 c 128,-1,30
 246 73 246 73 272 73 c 0,31,32
 299 73 299 73 310.5 88 c 128,-1,33
 322 103 322 103 328 133 c 2,34,-1
 383 389 l 1,35,36
 378 388 378 388 371 388 c 0,37,38
 329 388 329 388 303.5 410 c 128,-1,39
 278 432 278 432 278 469 c 0,0,1
383 456 m 0,40,41
 403 456 403 456 417 470 c 128,-1,42
 431 484 431 484 431 504 c 0,43,44
 431 534 431 534 400 534 c 0,45,46
 380 534 380 534 365 520 c 128,-1,47
 350 506 350 506 350 486 c 0,48,49
 350 472 350 472 359 464 c 128,-1,50
 368 456 368 456 383 456 c 0,40,41
EndSplineSet
EndChar

StartChar: uni0E08
Encoding: 3592 3592 136
Width: 606
Flags: W
HStem: -5 78<340.461 419.609> 335 68<218.262 285.933> 524 78<268.633 462.795>
VStem: 138 71<261.598 326.203> 221 115<76.972 192.898> 288 85<268.428 333.32> 494 121<329.836 495.226>
DStem2: 404.155 -5 522.228 -5 0.207912 0.978148<92.2572 450.423>
LayerCount: 3
Fore
SplineSet
138 273 m 0xfa
 138 335 193 403 276 403 c 0
 339 403 373 362 373 316 c 0xf6
 373 309 372 303 371 296 c 2
 345 173 l 2
 340 152 336 132 336 115 c 0
 336 90 346 73 379 73 c 0
 411 73 424 89 432 126 c 2
 489 393 l 2
 492 409 494 424 494 437 c 0
 494 501 451 524 372 524 c 0
 275 524 214 472 178 448 c 1
 119 490 l 1
 133 522 224 602 395 602 c 0
 533 602 615 550 615 452 c 0
 615 438 613 424 610 408 c 2
 559 168 l 2
 533 44 457 -5 356 -5 c 0
 250 -5 221 58 221 121 c 0
 221 138 223 154 226 170 c 2
 231 192 l 1
 158 192 138 235 138 273 c 0xfa
240 260 m 0
 263 260 288 278 288 306 c 0
 288 322 277 335 256 335 c 0
 228 335 209 310 209 289 c 0
 209 274 218 260 240 260 c 0
EndSplineSet
Validated: 1
Layer: 2
SplineSet
138 273 m 0,0,1
 138 322 138 322 177.5 362.5 c 128,-1,2
 217 403 217 403 276 403 c 0,3,4
 321 403 321 403 347 377.5 c 128,-1,5
 373 352 373 352 373 316 c 0,6,7
 373 310 373 310 371 296 c 2,8,-1
 345 173 l 2,9,10
 336 135 336 135 336 115 c 0,11,12
 336 73 336 73 379 73 c 0,13,14
 402 73 402 73 414 85 c 128,-1,15
 426 97 426 97 432 126 c 2,16,-1
 489 393 l 2,17,18
 494 420 494 420 494 437 c 0,19,20
 494 484 494 484 463.5 504 c 128,-1,21
 433 524 433 524 372 524 c 0,22,23
 349 524 349 524 326 519.5 c 128,-1,24
 303 515 303 515 287 510 c 128,-1,25
 271 505 271 505 251.5 494.5 c 128,-1,26
 232 484 232 484 223.5 478.5 c 128,-1,27
 215 473 215 473 197.5 461.5 c 128,-1,28
 180 450 180 450 178 448 c 2,29,-1
 119 490 l 1,30,31
 134 525 134 525 208 563.5 c 128,-1,32
 282 602 282 602 395 602 c 0,33,34
 500 602 500 602 557.5 563.5 c 128,-1,35
 615 525 615 525 615 452 c 0,36,37
 615 435 615 435 610 408 c 2,38,-1
 559 168 l 2,39,40
 523 -5 523 -5 356 -5 c 0,41,42
 283 -5 283 -5 252 30.5 c 128,-1,43
 221 66 221 66 221 121 c 0,44,45
 221 143 221 143 226 170 c 2,46,-1
 231 192 l 1,47,48
 181 192 181 192 159.5 215.5 c 128,-1,49
 138 239 138 239 138 273 c 0,0,1
240 260 m 0,50,51
 258 260 258 260 273 273 c 128,-1,52
 288 286 288 286 288 306 c 0,53,54
 288 319 288 319 279.5 327 c 128,-1,55
 271 335 271 335 256 335 c 0,56,57
 236 335 236 335 222.5 320.5 c 128,-1,58
 209 306 209 306 209 289 c 0,59,60
 209 260 209 260 240 260 c 0,50,51
EndSplineSet
EndChar

StartChar: uni0E09
Encoding: 3593 3593 137
Width: 711
Flags: W
HStem: -5 116<221.5 337.83> -5 78<550.5 631.079> 317 68<190.11 276.855> 524 78<283.42 502.577>
VStem: 111 72<245.44 311.196> 249 88<250.269 316.774> 462 120<41.5 158.969> 535 121<334.828 493.466> 651 78<93.8887 209.572>
DStem2: 444.382 -5 561.469 -5 0.207912 0.978148<115.852 168.592 331.205 452.679>
AnchorPoint: "AboveBase" 690 613 basechar 0
LayerCount: 3
Fore
SplineSet
729 192 m 0xbc80
 729 137 697 -5 568 -5 c 0
 533 -5 462 11 462 72 c 0x7e80
 462 78 463 85 465 92 c 2
 479 160 l 1
 476 157 441 127 385 59 c 1
 343 10 309 -5 257 -5 c 0
 186 -5 172 30 172 56 c 0
 172 62 172 67 173 72 c 2
 196 177 l 1
 142 177 111 211 111 256 c 0
 111 318 165 385 247 385 c 0
 305 385 337 348 337 299 c 0
 337 291 336 282 334 274 c 2
 302 122 l 2
 300 114 300 111 309 111 c 0
 340 111 399 217 503 272 c 1
 532 407 l 2
 534 419 535 429 535 439 c 0
 535 507 476 524 401 524 c 0
 247 524 199 439 196 434 c 1
 126 473 l 1
 129 486 222 602 423 602 c 0
 564 602 656 553 656 454 c 0xbd
 656 442 654 429 651 415 c 2
 626 295 l 1
 679 287 729 267 729 192 c 0xbc80
600 73 m 0
 637 73 651 143 651 165 c 0
 651 205 623 217 609 217 c 1
 584 101 l 2
 582 94 582 88 582 84 c 0
 582 75 587 73 600 73 c 0
209 245 m 0
 234 245 249 270 249 291 c 0
 249 305 241 317 223 317 c 0
 198 317 183 292 183 272 c 0
 183 257 191 245 209 245 c 0
EndSplineSet
Validated: 1
Layer: 2
SplineSet
729 192 m 0,0,1
 729 167 729 167 721.5 137 c 128,-1,2
 714 107 714 107 697.5 73.5 c 128,-1,3
 681 40 681 40 647 17.5 c 128,-1,4
 613 -5 613 -5 568 -5 c 0,5,6
 532 -5 532 -5 497 13.5 c 128,-1,7
 462 32 462 32 462 72 c 0,8,9
 462 82 462 82 465 92 c 2,10,-1
 479 160 l 1,11,12
 418 99 418 99 385 59 c 0,13,14
 354 23 354 23 325.5 9 c 128,-1,15
 297 -5 297 -5 257 -5 c 0,16,17
 172 -5 172 -5 172 56 c 0,18,19
 172 67 172 67 173 72 c 2,20,-1
 196 177 l 1,21,22
 156 177 156 177 133.5 199 c 128,-1,23
 111 221 111 221 111 256 c 0,24,25
 111 305 111 305 149.5 345 c 128,-1,26
 188 385 188 385 247 385 c 0,27,28
 289 385 289 385 313 361 c 128,-1,29
 337 337 337 337 337 299 c 0,30,31
 337 286 337 286 334 274 c 2,32,-1
 302 122 l 2,33,34
 299 111 299 111 309 111 c 128,-1,35
 319 111 319 111 338 129 c 128,-1,36
 357 147 357 147 378 170.5 c 128,-1,37
 399 194 399 194 433.5 224 c 128,-1,38
 468 254 468 254 503 272 c 1,39,-1
 532 407 l 2,40,41
 535 425 535 425 535 439 c 0,42,43
 535 524 535 524 401 524 c 0,44,45
 358 524 358 524 321 514.5 c 128,-1,46
 284 505 284 505 263 494 c 128,-1,47
 242 483 242 483 225 467.5 c 128,-1,48
 208 452 208 452 204 446 c 128,-1,49
 200 440 200 440 196 434 c 1,50,-1
 126 473 l 1,51,52
 127 478 127 478 138 491.5 c 128,-1,53
 149 505 149 505 174 524 c 128,-1,54
 199 543 199 543 232 560.5 c 128,-1,55
 265 578 265 578 315.5 590 c 128,-1,56
 366 602 366 602 423 602 c 0,57,58
 532 602 532 602 594 564.5 c 128,-1,59
 656 527 656 527 656 454 c 0,60,61
 656 438 656 438 651 415 c 2,62,-1
 626 295 l 1,63,64
 673 288 673 288 701 265.5 c 128,-1,65
 729 243 729 243 729 192 c 0,0,1
600 73 m 0,66,67
 624 73 624 73 637.5 106.5 c 128,-1,68
 651 140 651 140 651 165 c 0,69,70
 651 192 651 192 637 204.5 c 128,-1,71
 623 217 623 217 609 217 c 1,72,-1
 584 101 l 2,73,74
 582 94 582 94 582 84 c 0,75,76
 582 73 582 73 600 73 c 0,66,67
209 245 m 0,77,78
 227 245 227 245 238 259.5 c 128,-1,79
 249 274 249 274 249 291 c 0,80,81
 249 317 249 317 223 317 c 0,82,83
 205 317 205 317 194 302.5 c 128,-1,84
 183 288 183 288 183 272 c 0,85,86
 183 245 183 245 209 245 c 0,77,78
EndSplineSet
EndChar

StartChar: uni0E0A
Encoding: 3594 3594 138
Width: 656
Flags: W
HStem: 0 78<121 192 310 457.688> 341 68<182.425 246.315> 524 78<298.02 357.674>
VStem: 110 71<410.7 478.202> 255 72<416.684 485.863> 521 115<294.773 408.382>
DStem2: 175.421 0 293.421 0 0.207912 0.978148<104.276 296.213> 448.305 0 565.73 0 0.207912 0.978148<82.8604 362.92>
LayerCount: 3
Fore
SplineSet
110 426 m 0
 110 492 172 602 318 602 c 0
 451 602 470 519 470 487 c 1
 478 491 657 577 724 670 c 1
 728 561 l 1
 726 552 614 479 557 468 c 1
 603 448 636 414 636 351 c 0
 636 336 634 319 630 300 c 2
 594 133 l 2
 582 76 540 0 434 0 c 2
 104 0 l 1
 121 78 l 1
 192 78 l 1
 223 225 l 2
 241 308 371 357 371 460 c 0
 371 491 357 524 305 524 c 2
 292 524 l 1
 298 521 327 510 327 470 c 0
 327 407 267 341 194 341 c 0
 147 341 110 373 110 426 c 0
412 78 m 2
 440 78 467 89 477 135 c 2
 517 325 l 2
 519 336 521 347 521 356 c 0
 521 397 499 421 461 423 c 1
 459 425 l 1
 429 336 357 300 343 233 c 2
 310 78 l 1
 412 78 l 2
227 487 m 0
 200 487 181 460 181 438 c 0
 181 422 190 409 211 409 c 0
 238 409 255 435 255 457 c 0
 255 473 247 487 227 487 c 0
EndSplineSet
Validated: 1
Layer: 2
SplineSet
110 426 m 0,0,1
 110 463 110 463 130.5 501.5 c 128,-1,2
 151 540 151 540 200.5 571 c 128,-1,3
 250 602 250 602 318 602 c 0,4,5
 365 602 365 602 397.5 589 c 128,-1,6
 430 576 430 576 444.5 556 c 128,-1,7
 459 536 459 536 464.5 519 c 128,-1,8
 470 502 470 502 470 487 c 1,9,10
 661 582 661 582 724 670 c 1,11,-1
 728 561 l 2,12,13
 726 552 726 552 660.5 513.5 c 128,-1,14
 595 475 595 475 557 468 c 1,15,16
 636 434 636 434 636 351 c 0,17,18
 636 328.5 636 328.5 630 300 c 2,19,-1
 594 133 l 2,20,21
 583 80 583 80 544.5 40 c 128,-1,22
 506 0 506 0 434 0 c 2,23,-1
 104 0 l 1,24,-1
 121 78 l 1,25,-1
 192 78 l 1,26,-1
 223 225 l 2,27,28
 229 252 229 252 253.5 282 c 128,-1,29
 278 312 278 312 304 335 c 128,-1,30
 330 358 330 358 350.5 391.5 c 128,-1,31
 371 425 371 425 371 460 c 0,32,33
 371 524 371 524 305 524 c 2,34,-1
 292 524 l 1,35,36
 327 506 327 506 327 470 c 0,37,38
 327 421 327 421 287 381 c 128,-1,39
 247 341 247 341 194 341 c 0,40,41
 158 341 158 341 134 364 c 128,-1,42
 110 387 110 387 110 426 c 0,0,1
412 78 m 2,43,44
 465 78 465 78 477 135 c 2,45,-1
 517 325 l 2,46,47
 521 347 521 347 521 356 c 0,48,49
 521 387 521 387 505.5 404 c 128,-1,50
 490 421 490 421 461 423 c 1,51,-1
 459 425 l 1,52,53
 444 380 444 380 397 323 c 128,-1,54
 350 266 350 266 343 233 c 2,55,-1
 310 78 l 1,56,-1
 412 78 l 2,43,44
227 487 m 0,57,58
 208 487 208 487 194.5 471.5 c 128,-1,59
 181 456 181 456 181 438 c 0,60,61
 181 409 181 409 211 409 c 0,62,63
 230 409 230 409 242.5 424 c 128,-1,64
 255 439 255 439 255 457 c 0,65,66
 255 487 255 487 227 487 c 0,57,58
EndSplineSet
EndChar

StartChar: uni0E0B
Encoding: 3595 3595 139
Width: 694
Flags: W
HStem: 0 78<164 236 354 505.153> 295 64<175.82 235.375> 432 57<207 242.474> 524 78<226.842 312.677 401.401 474>
VStem: 106 69<360.278 424.355> 243 59<365.707 431.267> 417 95<456.055 523.545> 563 115<292.395 406.75>
DStem2: 219.421 0 337.421 0 0.207912 0.978148<104.276 355.294> 491.305 0 608.73 0 0.207912 0.978148<83.7009 359.779>
LayerCount: 3
Fore
SplineSet
106 382 m 0
 106 474 183 602 281 602 c 0
 329 602 353 556 359 549 c 1
 365 555 413 602 450 602 c 0
 498 602 512 554 512 508 c 0
 512 500 512 492 511 484 c 1
 676 559 739 634 769 668 c 1
 770 558 l 1
 768 549 657 475 600 464 c 1
 646 444 678 411 678 348 c 0
 678 333 676 316 672 297 c 2
 637 133 l 2
 625 78 583 0 477 0 c 2
 147 0 l 1
 164 78 l 1
 236 78 l 1
 278 276 l 2
 299 377 417 385 417 493 c 0
 417 509 414 524 406 524 c 0
 379 524 341 472 335 464 c 1
 333 472 313 524 265 524 c 0
 232 524 222 499 219 487 c 1
 219 487 224 489 233 489 c 0
 266 489 302 466 302 418 c 0
 302 360 256 295 188 295 c 0
 153 295 106 314 106 382 c 0
456 78 m 2
 504 78 515 110 520 135 c 2
 560 323 l 2
 562 334 563 344 563 353 c 0
 563 403 530 423 491 423 c 1
 492 428 l 1
 454 369 412 350 399 291 c 2
 354 78 l 1
 456 78 l 2
200 359 m 0
 226 359 243 382 243 405 c 0
 243 420 235 432 216 432 c 0
 198 432 175 415 175 387 c 0
 175 372 183 359 200 359 c 0
EndSplineSet
Validated: 1
Layer: 2
SplineSet
106 382 m 0,0,1
 106 456 106 456 158.5 529 c 128,-1,2
 211 602 211 602 281 602 c 0,3,4
 295 602 295 602 307 597.5 c 128,-1,5
 319 593 319 593 328 585 c 128,-1,6
 337 577 337 577 342.5 570.5 c 128,-1,7
 348 564 348 564 353.5 556.5 c 2,8,-1
 359 549 l 1,9,10
 412 602 412 602 450 602 c 0,11,12
 512 602 512 602 512 508 c 0,13,14
 512 492 512 492 511 484 c 1,15,16
 569 510 569 510 615 537.5 c 128,-1,17
 661 565 661 565 693 593 c 128,-1,18
 725 621 725 621 737.5 633.5 c 128,-1,19
 750 646 750 646 769 668 c 1,20,-1
 770 558 l 2,21,22
 768 549 768 549 703 510 c 128,-1,23
 638 471 638 471 600 464 c 1,24,25
 678 430 678 430 678 348 c 0,26,27
 678 325.5 678 325.5 672 297 c 2,28,-1
 637 133 l 2,29,30
 626 81 626 81 587 40.5 c 128,-1,31
 548 0 548 0 477 0 c 2,32,-1
 147 0 l 1,33,-1
 164 78 l 1,34,-1
 236 78 l 1,35,-1
 278 276 l 2,36,37
 285 309 285 309 308.5 337 c 128,-1,38
 332 365 332 365 355.5 382 c 128,-1,39
 379 399 379 399 398 428 c 128,-1,40
 417 457 417 457 417 493 c 0,41,42
 417 524 417 524 406 524 c 0,43,44
 380 524 380 524 335 464 c 1,45,46
 333 472 333 472 327 483.5 c 128,-1,47
 321 495 321 495 304 509.5 c 128,-1,48
 287 524 287 524 265 524 c 0,49,50
 228 524 228 524 219 487 c 1,51,52
 224 489 224 489 233 489 c 0,53,54
 260 489 260 489 281 470.5 c 128,-1,55
 302 452 302 452 302 418 c 0,56,57
 302 372 302 372 269.5 333.5 c 128,-1,58
 237 295 237 295 188 295 c 0,59,60
 156 295 156 295 131 315.5 c 128,-1,61
 106 336 106 336 106 382 c 0,0,1
456 78 m 2,62,63
 509 78 509 78 520 135 c 2,64,-1
 560 323 l 2,65,66
 563 339.5 563 339.5 563 353 c 0,67,68
 563 388 563 388 543 405.5 c 128,-1,69
 523 423 523 423 491 423 c 1,70,-1
 492 428 l 1,71,72
 478 406 478 406 455.5 381.5 c 128,-1,73
 433 357 433 357 419 337 c 128,-1,74
 405 317 405 317 399 291 c 2,75,-1
 354 78 l 1,76,-1
 456 78 l 2,62,63
200 359 m 0,77,78
 219 359 219 359 231 373 c 128,-1,79
 243 387 243 387 243 405 c 0,80,81
 243 432 243 432 216 432 c 0,82,83
 201 432 201 432 188 419.5 c 128,-1,84
 175 407 175 407 175 387 c 0,85,86
 175 359 175 359 200 359 c 0,77,78
EndSplineSet
EndChar

StartChar: uni0E0C
Encoding: 3596 3596 140
Width: 882
Flags: W
HStem: -5 68<214.161 275.617 451.979 511.397> 524 78<339.443 514.081> 575 20G<797.753 920>
VStem: 128 85<63.4523 134.48> 284 73<70.6055 141.05> 378 72<63.5602 153.29> 528 73<77.5811 165.499> 535 119<334.656 503.566>
DStem2: 441.774 -5 560.073 -5 0.207912 0.978148<279.159 464.868> 674.566 -5 793.058 -5 0.207912 0.978148<165.619 613.384>
LayerCount: 3
Fore
SplineSet
256 142 m 0x9c
 230 142 213 114 213 92 c 0
 213 76 221 63 239 63 c 0
 267 63 284 90 284 113 c 0
 284 129 276 142 256 142 c 0x9c
601 153 m 0xbe
 601 82 555 -5 463 -5 c 0
 416 -5 378 30 378 86 c 0
 378 95 380 106 382 116 c 0
 406 227 493 236 493 236 c 1
 531 412 l 2
 534 427 535 439 535 451 c 0
 535 501 505 524 433 524 c 0
 359 524 310 486 310 486 c 1
 356 458 382 425 398 405 c 1
 376 395 301 364 283 279 c 2
 269 210 l 1
 287 210 357 206 357 134 c 0
 357 50 285 -5 223 -5 c 0
 163 -5 128 28 128 87 c 0
 128 99 130 113 133 127 c 2
 165 279 l 2
 185 371 248 392 264 400 c 1
 232 445 155 480 148 481 c 1
 179 515 287 602 456 602 c 0
 604 602 654 535 654 458 c 0xdd
 654 444 652 429 649 414 c 2
 613 244 l 1
 630 244 695 214 709 157 c 1
 802 595 l 1
 920 595 l 1
 809 70 l 2
 795 6 743 -5 719 -5 c 0
 657 -5 683 52 646 126 c 0
 626 165 601 173 598 175 c 1
 599 174 601 166 601 153 c 0xbe
501 166 m 0
 471 166 450 132 450 100 c 0
 450 81 457 63 477 63 c 0
 507 63 528 102 528 131 c 0x9e
 528 150 520 166 501 166 c 0
EndSplineSet
Validated: 1
Layer: 2
SplineSet
256 142 m 0,0,1
 238 142 238 142 225.5 126 c 128,-1,2
 213 110 213 110 213 92 c 0,3,4
 213 63 213 63 239 63 c 0,5,6
 259 63 259 63 271.5 78.5 c 128,-1,7
 284 94 284 94 284 113 c 0,8,9
 284 142 284 142 256 142 c 0,0,1
601 153 m 0,10,11
 601 93 601 93 564 44 c 128,-1,12
 527 -5 527 -5 463 -5 c 0,13,14
 427 -5 427 -5 402.5 20 c 128,-1,15
 378 45 378 45 378 86 c 0,16,17
 378 96 378 96 382 116 c 0,18,19
 393 165 393 165 420.5 195 c 128,-1,20
 448 225 448 225 470.5 230.5 c 2,21,-1
 493 236 l 1,22,-1
 531 412 l 2,23,24
 535 432 535 432 535 451 c 0,25,26
 535 489 535 489 511 506.5 c 128,-1,27
 487 524 487 524 433 524 c 0,28,29
 400 524 400 524 369.5 514.5 c 128,-1,30
 339 505 339 505 324.5 495.5 c 2,31,-1
 310 486 l 1,32,33
 355 458 355 458 398 405 c 1,34,35
 300 361 300 361 283 279 c 2,36,-1
 269 210 l 1,37,38
 285 210 285 210 301 207 c 128,-1,39
 317 204 317 204 337 185.5 c 128,-1,40
 357 167 357 167 357 134 c 0,41,42
 357 74 357 74 315 34.5 c 128,-1,43
 273 -5 273 -5 223 -5 c 0,44,45
 178 -5 178 -5 153 19 c 128,-1,46
 128 43 128 43 128 87 c 0,47,48
 128 104 128 104 133 127 c 2,49,-1
 165 279 l 2,50,51
 169 296 169 296 174.5 310.5 c 128,-1,52
 180 325 180 325 186.5 335.5 c 128,-1,53
 193 346 193 346 201.5 355.5 c 128,-1,54
 210 365 210 365 216 371 c 128,-1,55
 222 377 222 377 231 382.5 c 128,-1,56
 240 388 240 388 244.5 390.5 c 128,-1,57
 249 393 249 393 256.5 396.5 c 2,58,-1
 264 400 l 1,59,60
 250 420 250 420 222 440 c 128,-1,61
 194 460 194 460 173.5 470 c 128,-1,62
 153 480 153 480 148 481 c 1,63,64
 185 522 185 522 265.5 562 c 128,-1,65
 346 602 346 602 456 602 c 0,66,67
 560 602 560 602 607 562 c 128,-1,68
 654 522 654 522 654 458 c 0,69,70
 654 439 654 439 649 414 c 2,71,-1
 613 244 l 1,72,73
 632 244 632 244 666 219.5 c 128,-1,74
 700 195 700 195 709 157 c 1,75,-1
 802 595 l 1,76,-1
 920 595 l 1,77,-1
 809 70 l 2,78,79
 800 28 800 28 772.5 11.5 c 128,-1,80
 745 -5 745 -5 719 -5 c 0,81,82
 691 -5 691 -5 682 10 c 128,-1,83
 673 25 673 25 666.5 62 c 128,-1,84
 660 99 660 99 646 126 c 0,85,86
 641 135 641 135 635.5 143 c 128,-1,87
 630 151 630 151 625.5 155.5 c 128,-1,88
 621 160 621 160 616 164 c 128,-1,89
 611 168 611 168 607.5 170 c 128,-1,90
 604 172 604 172 601 173.5 c 2,91,-1
 598 175 l 2,92,93
 601 172 601 172 601 153 c 0,10,11
501 166 m 0,94,95
 479 166 479 166 464.5 145.5 c 128,-1,96
 450 125 450 125 450 100 c 0,97,98
 450 63 450 63 477 63 c 0,99,100
 498 63 498 63 513 85 c 128,-1,101
 528 107 528 107 528 131 c 0,102,103
 528 166 528 166 501 166 c 0,94,95
EndSplineSet
EndChar

StartChar: uni0E0D
Encoding: 3597 3597 141
Width: 882
Flags: W
HStem: -288 64<473.893 584.548> -124 57<405.936 471.635> -5 68<219.964 280.877> 0 78<424 463 581 698.088> 524 78<341.936 511.29> 575 20G<800.776 923>
VStem: 131 88<63.4436 134.364> 290 72<71.3143 140.551> 335 64<-193.03 -130.289> 472 55<-188.302 -124.913> 536 121<383.053 499.882>
DStem2: 385.204 -288 503.204 -288 0.207912 0.978148<398.71 745.782> 620.3 -288 727.3 -288 0.207912 0.978148<134.084 219.803 373.707 902.106>
LayerCount: 3
Fore
SplineSet
362 133 m 0xdb60
 362 47 284 -5 226 -5 c 0
 166 -5 131 28 131 87 c 0
 131 99 133 112 136 127 c 2
 168 279 l 2
 188 371 252 392 268 400 c 1
 235 444 157 483 152 484 c 1
 178 512 290 602 458 602 c 0xeb60
 607 602 657 535 657 458 c 0
 657 444 655 429 652 414 c 2
 581 78 l 1
 656 78 l 2
 688 78 700 98 703 112 c 2
 805 595 l 1
 923 595 l 1xd760
 825 130 l 2
 810 58 756 0 699 0 c 2
 407 0 l 1
 424 78 l 1
 463 78 l 1
 531 402 l 2
 534 417 536 430 536 443 c 0
 536 494 508 524 438 524 c 0
 363 524 312 486 312 486 c 1
 358 458 383 425 399 405 c 1xdae0
 377 395 304 364 286 279 c 2
 272 210 l 1
 289 210 362 205 362 133 c 0xdb60
245 63 m 0
 273 63 290 90 290 113 c 0
 290 129 282 142 262 142 c 0
 236 142 219 113 219 91 c 0
 219 75 227 63 245 63 c 0
527 -136 m 0
 527 -191 485 -224 470 -224 c 1
 471 -224 482 -226 500 -226 c 0
 618 -226 652 -141 666 -73 c 1
 773 -73 l 1
 754 -163 683 -288 487 -288 c 0
 392 -288 335 -248 335 -186 c 0xc2e0
 335 -151 359 -67 457 -67 c 0
 504 -67 527 -98 527 -136 c 0
445 -124 m 0
 410 -124 399 -154 399 -168 c 0
 399 -183 409 -195 428 -195 c 0
 455 -195 472 -170 472 -150 c 0
 472 -136 464 -124 445 -124 c 0
EndSplineSet
Validated: 1
Layer: 2
SplineSet
362 133 m 0,0,1
 362 73 362 73 318 34 c 128,-1,2
 274 -5 274 -5 226 -5 c 0,3,4
 181 -5 181 -5 156 19 c 128,-1,5
 131 43 131 43 131 87 c 0,6,7
 131 102 131 102 136 127 c 2,8,-1
 168 279 l 2,9,10
 172 296 172 296 177.5 310.5 c 128,-1,11
 183 325 183 325 189.5 335.5 c 128,-1,12
 196 346 196 346 204.5 355.5 c 128,-1,13
 213 365 213 365 219.5 371 c 128,-1,14
 226 377 226 377 235 382.5 c 128,-1,15
 244 388 244 388 248.5 390.5 c 128,-1,16
 253 393 253 393 260 396.5 c 128,-1,17
 267 400 267 400 268 400 c 1,18,19
 253 420 253 420 225 440.5 c 128,-1,20
 197 461 197 461 176.5 472 c 128,-1,21
 156 483 156 483 152 484 c 1,22,23
 165 498 165 498 188.5 515 c 128,-1,24
 212 532 212 532 250.5 553 c 128,-1,25
 289 574 289 574 344 588 c 128,-1,26
 399 602 399 602 458 602 c 0,27,28
 562 602 562 602 609.5 562 c 128,-1,29
 657 522 657 522 657 458 c 0,30,31
 657 439 657 439 652 414 c 2,32,-1
 581 78 l 1,33,-1
 656 78 l 2,34,35
 696 78 696 78 703 112 c 2,36,-1
 805 595 l 1,37,-1
 923 595 l 1,38,-1
 825 130 l 2,39,40
 814 75 814 75 777.5 37.5 c 128,-1,41
 741 0 741 0 699 0 c 2,42,-1
 407 0 l 1,43,-1
 424 78 l 1,44,-1
 463 78 l 1,45,-1
 531 402 l 2,46,47
 536 427 536 427 536 443 c 0,48,49
 536 524 536 524 438 524 c 0,50,51
 405 524 405 524 373.5 514.5 c 128,-1,52
 342 505 342 505 327 495.5 c 2,53,-1
 312 486 l 1,54,55
 355 460 355 460 399 405 c 1,56,57
 303 362 303 362 286 279 c 2,58,-1
 272 210 l 1,59,60
 282 210 282 210 294 208 c 128,-1,61
 306 206 306 206 323 199 c 128,-1,62
 340 192 340 192 351 175 c 128,-1,63
 362 158 362 158 362 133 c 0,0,1
245 63 m 0,64,65
 265 63 265 63 277.5 78.5 c 128,-1,66
 290 94 290 94 290 113 c 0,67,68
 290 142 290 142 262 142 c 0,69,70
 244 142 244 142 231.5 125.5 c 128,-1,71
 219 109 219 109 219 91 c 0,72,73
 219 63 219 63 245 63 c 0,64,65
527 -136 m 0,74,75
 527 -173 527 -173 506 -198.5 c 128,-1,76
 485 -224 485 -224 470 -224 c 2,77,-1
 471.5 -224 l 2,78,79
 473 -224 473 -224 475.5 -224.5 c 128,-1,80
 478 -225 478 -225 481.5 -225.5 c 128,-1,81
 485 -226 485 -226 490 -226 c 128,-1,82
 495 -226 495 -226 500 -226 c 0,83,84
 542 -226 542 -226 573 -212.5 c 128,-1,85
 604 -199 604 -199 622.5 -174.5 c 128,-1,86
 641 -150 641 -150 650.5 -126.5 c 128,-1,87
 660 -103 660 -103 666 -73 c 1,88,-1
 773 -73 l 1,89,90
 765 -111 765 -111 747 -145.5 c 128,-1,91
 729 -180 729 -180 697 -213.5 c 128,-1,92
 665 -247 665 -247 611 -267.5 c 128,-1,93
 557 -288 557 -288 487 -288 c 0,94,95
 416 -288 416 -288 375.5 -260.5 c 128,-1,96
 335 -233 335 -233 335 -186 c 0,97,98
 335 -147 335 -147 364 -107 c 128,-1,99
 393 -67 393 -67 457 -67 c 0,100,101
 491 -67 491 -67 509 -86.5 c 128,-1,102
 527 -106 527 -106 527 -136 c 0,74,75
445 -124 m 0,103,104
 422 -124 422 -124 410.5 -139 c 128,-1,105
 399 -154 399 -154 399 -168 c 0,106,107
 399 -195 399 -195 428 -195 c 0,108,109
 447 -195 447 -195 459.5 -180.5 c 128,-1,110
 472 -166 472 -166 472 -150 c 0,111,112
 472 -124 472 -124 445 -124 c 0,103,104
EndSplineSet
Substitution2: "'ccmp' Pali-Sanskrit Descender Removal" uni0E0D.descless
Substitution2: "Thai Descender Removal Single Substitution" uni0E0D.descless
EndChar

StartChar: uni0E0E
Encoding: 3598 3598 142
Width: 680
Flags: W
HStem: -306 68<85.3835 172.656> -147 68<105.736 206.699> -5 68<132.353 190.158> 137 68<138.297 179> 524 78<372.691 547.753>
VStem: 12 71<-233.578 -168.718> 59 72<63.7326 129.926> 567 118<333.641 503.195>
DStem2: 68.258 -316 186.167 -316 0.207912 0.978148<525.402 690.174> 408.102 -316 526.102 -316 0.207912 0.978148<160.041 781.746>
AnchorPoint: "BelowBase" 527 -309 basechar 0
LayerCount: 3
Fore
SplineSet
12 -220 m 0xfd
 12 -172 49 -79 164 -79 c 0
 206 -79 240 -90 240 -90 c 1
 263 -35 l 1
 349 -35 l 1
 331 -97 311 -124 311 -124 c 1
 349 -148 382 -190 382 -190 c 1
 429 -167 445 -136 447 -133 c 1
 562 409 l 2
 565 424 567 438 567 450 c 0
 567 500 538 524 467 524 c 0
 387 524 338 483 338 483 c 1
 384 455 408 422 424 402 c 1
 402 392 330 361 312 276 c 2
 276 110 l 2
 262 46 218 -5 148 -5 c 0
 94 -5 59 28 59 75 c 0xfb
 59 130 107 205 179 205 c 1
 194 276 l 2
 214 368 278 389 294 397 c 1
 256 445 184 477 177 478 c 1
 203 506 315 602 484 602 c 0
 635 602 685 534 685 456 c 0
 685 441 683 426 680 411 c 2
 565 -133 l 1
 512 -235 355 -316 355 -316 c 1
 323 -261 273 -210 269 -210 c 1
 267 -220 211 -306 109 -306 c 0
 41 -306 12 -267 12 -220 c 0xfd
161 -147 m 0
 117 -147 83 -182 83 -205 c 0xfd
 83 -224 101 -238 125 -238 c 0
 181 -238 207 -162 207 -159 c 1
 205 -157 186 -147 161 -147 c 0
157 63 m 0
 181 63 197 89 197 110 c 0
 197 124 190 137 173 137 c 0
 148 137 131 111 131 90 c 0xfb
 131 75 139 63 157 63 c 0
EndSplineSet
Validated: 1
Layer: 2
SplineSet
12 -220 m 0,0,1
 12 -200 12 -200 20 -177.5 c 128,-1,2
 28 -155 28 -155 44.5 -132 c 128,-1,3
 61 -109 61 -109 92 -94 c 128,-1,4
 123 -79 123 -79 164 -79 c 0,5,6
 183 -79 183 -79 202 -81.5 c 128,-1,7
 221 -84 221 -84 230.5 -87 c 2,8,-1
 240 -90 l 1,9,-1
 263 -35 l 1,10,-1
 349 -35 l 1,11,12
 341 -63 341 -63 331.5 -85 c 128,-1,13
 322 -107 322 -107 316.5 -115.5 c 2,14,-1
 311 -124 l 1,15,16
 328 -135 328 -135 345.5 -151.5 c 128,-1,17
 363 -168 363 -168 372.5 -179 c 2,18,-1
 382 -190 l 1,19,20
 422 -170 422 -170 447 -133 c 1,21,-1
 562 409 l 2,22,23
 567 434 567 434 567 450 c 0,24,25
 567 488 567 488 543.5 506 c 128,-1,26
 520 524 520 524 467 524 c 0,27,28
 431 524 431 524 399 513.5 c 128,-1,29
 367 503 367 503 352.5 493 c 2,30,-1
 338 483 l 1,31,32
 379 458 379 458 424 402 c 1,33,34
 330 359 330 359 312 276 c 2,35,-1
 276 110 l 2,36,37
 265 59 265 59 231.5 27 c 128,-1,38
 198 -5 198 -5 148 -5 c 0,39,40
 108 -5 108 -5 83.5 17 c 128,-1,41
 59 39 59 39 59 75 c 0,42,43
 59 120 59 120 93.5 162.5 c 128,-1,44
 128 205 128 205 179 205 c 1,45,-1
 194 276 l 2,46,47
 198 293 198 293 203.5 307.5 c 128,-1,48
 209 322 209 322 215.5 332.5 c 128,-1,49
 222 343 222 343 230.5 352.5 c 128,-1,50
 239 362 239 362 245.5 368 c 128,-1,51
 252 374 252 374 261 379.5 c 128,-1,52
 270 385 270 385 274.5 387.5 c 128,-1,53
 279 390 279 390 286 393.5 c 128,-1,54
 293 397 293 397 294 397 c 1,55,56
 277 419 277 419 249 438.5 c 128,-1,57
 221 458 221 458 201.5 467.5 c 128,-1,58
 182 477 182 477 177 478 c 1,59,60
 197 499 197 499 230.5 523.5 c 128,-1,61
 264 548 264 548 335.5 575 c 128,-1,62
 407 602 407 602 484 602 c 0,63,64
 590 602 590 602 637.5 561.5 c 128,-1,65
 685 521 685 521 685 456 c 0,66,67
 685 436 685 436 680 411 c 2,68,-1
 565 -133 l 1,69,70
 541 -178 541 -178 488.5 -224 c 128,-1,71
 436 -270 436 -270 395.5 -293 c 2,72,-1
 355 -316 l 1,73,74
 340 -291 340 -291 319.5 -265 c 128,-1,75
 299 -239 299 -239 285 -224.5 c 128,-1,76
 271 -210 271 -210 269 -210 c 0,77,78
 268 -215 268 -215 257 -229.5 c 128,-1,79
 246 -244 246 -244 227 -261.5 c 128,-1,80
 208 -279 208 -279 176 -292.5 c 128,-1,81
 144 -306 144 -306 109 -306 c 0,82,83
 61 -306 61 -306 36.5 -282 c 128,-1,84
 12 -258 12 -258 12 -220 c 0,0,1
161 -147 m 0,85,86
 130 -147 130 -147 106.5 -166.5 c 128,-1,87
 83 -186 83 -186 83 -205 c 0,88,89
 83 -219 83 -219 95 -228.5 c 128,-1,90
 107 -238 107 -238 125 -238 c 0,91,92
 150 -238 150 -238 170.5 -218 c 128,-1,93
 191 -198 191 -198 199 -180.5 c 128,-1,94
 207 -163 207 -163 207 -159 c 0,95,96
 195 -147 195 -147 161 -147 c 0,85,86
157 63 m 0,97,98
 174 63 174 63 185.5 78 c 128,-1,99
 197 93 197 93 197 110 c 0,100,101
 197 137 197 137 173 137 c 0,102,103
 155 137 155 137 143 122 c 128,-1,104
 131 107 131 107 131 90 c 0,105,106
 131 63 131 63 157 63 c 0,97,98
EndSplineSet
EndChar

StartChar: uni0E0F
Encoding: 3599 3599 143
Width: 689
Flags: W
HStem: -301 68<59.6298 113.786> -142 68<72.0242 132.633> -5 68<139.955 199.851> 137 68<146.404 187> 524 78<378.434 555.661>
VStem: -12 71<-231.933 -153.421> 68 71<64.1565 130.938> 575 119<380.471 502.7>
DStem2: 77.3208 -311 195.229 -311 0.207912 0.978148<520.52 685.062> 417.165 -311 535.165 -311 0.207912 0.978148<147.385 777.612>
AnchorPoint: "BelowBase" 536 -309 basechar 0
LayerCount: 3
Fore
SplineSet
68 78 m 0
 68 137 115 205 187 205 c 1
 202 276 l 2
 222 368 286 389 302 397 c 1
 266 443 192 476 185 478 c 1
 211 506 332 602 491 602 c 0
 643 602 694 535 694 457 c 0
 694 442 692 427 689 412 c 2
 573 -133 l 1
 522 -245 391 -311 386 -311 c 1
 327 -193 l 1
 232 -307 l 1
 184 -219 l 1
 183 -222 143 -301 69 -301 c 0
 20 -301 -12 -265 -12 -215 c 0
 -12 -156 33 -74 109 -74 c 0
 139 -74 162 -86 163 -86 c 2
 174 -35 l 1
 255 -35 l 1
 247 -71 258 -36 232 -124 c 1
 254 -175 l 1
 349 -66 l 1
 411 -178 l 1
 424 -173 447 -152 455 -133 c 1
 570 409 l 2
 573 425 575 439 575 451 c 0
 575 503 544 524 471 524 c 0
 394 524 345 483 345 483 c 1
 391 455 415 422 431 402 c 1
 409 392 338 361 320 276 c 2
 284 110 l 2
 270 46 224 -5 155 -5 c 0
 101 -5 68 30 68 78 c 0
107 -142 m 0
 85 -142 59 -167 59 -206 c 0
 59 -221 64 -233 79 -233 c 0
 112 -233 126 -195 133 -162 c 1
 132 -159 124 -142 107 -142 c 0
166 63 m 0
 191 63 207 88 207 110 c 0
 207 125 200 137 182 137 c 0
 157 137 139 114 139 91 c 0
 139 76 148 63 166 63 c 0
EndSplineSet
Validated: 1
Layer: 2
SplineSet
68 78 m 0,0,1
 68 125 68 125 102 165 c 128,-1,2
 136 205 136 205 187 205 c 1,3,-1
 202 276 l 2,4,5
 206 293 206 293 211.5 307.5 c 128,-1,6
 217 322 217 322 223.5 332.5 c 128,-1,7
 230 343 230 343 238.5 352.5 c 128,-1,8
 247 362 247 362 253.5 368 c 128,-1,9
 260 374 260 374 269 379.5 c 128,-1,10
 278 385 278 385 282.5 387.5 c 128,-1,11
 287 390 287 390 294 393.5 c 128,-1,12
 301 397 301 397 302 397 c 1,13,14
 286 418 286 418 257.5 437.5 c 128,-1,15
 229 457 229 457 210 466.5 c 128,-1,16
 191 476 191 476 185 478 c 1,17,18
 219 515 219 515 303.5 558.5 c 128,-1,19
 388 602 388 602 491 602 c 0,20,21
 598 602 598 602 646 562 c 128,-1,22
 694 522 694 522 694 457 c 0,23,24
 694 437 694 437 689 412 c 2,25,-1
 573 -133 l 1,26,27
 550 -183 550 -183 503.5 -227.5 c 128,-1,28
 457 -272 457 -272 424.5 -291.5 c 128,-1,29
 392 -311 392 -311 386 -311 c 1,30,-1
 327 -193 l 1,31,-1
 232 -307 l 1,32,-1
 184 -219 l 2,33,34
 183 -221 183 -221 179 -228.5 c 128,-1,35
 175 -236 175 -236 164.5 -249 c 128,-1,36
 154 -262 154 -262 141.5 -273 c 128,-1,37
 129 -284 129 -284 109.5 -292.5 c 128,-1,38
 90 -301 90 -301 69 -301 c 0,39,40
 33 -301 33 -301 10.5 -277 c 128,-1,41
 -12 -253 -12 -253 -12 -215 c 0,42,43
 -12 -165 -12 -165 22 -119.5 c 128,-1,44
 56 -74 56 -74 109 -74 c 0,45,46
 117 -74 117 -74 125.5 -75 c 128,-1,47
 134 -76 134 -76 140.5 -78 c 128,-1,48
 147 -80 147 -80 152 -82 c 128,-1,49
 157 -84 157 -84 160 -85 c 2,50,-1
 163 -86 l 1,51,-1
 174 -35 l 1,52,-1
 255 -35 l 1,53,54
 245 -80 245 -80 232 -124 c 1,55,-1
 254 -175 l 1,56,-1
 349 -66 l 1,57,-1
 411 -178 l 1,58,59
 421 -174 421 -174 435 -160.5 c 128,-1,60
 449 -147 449 -147 455 -133 c 2,61,-1
 570 409 l 2,62,63
 575 436 575 436 575 451 c 0,64,65
 575 490 575 490 550.5 507 c 128,-1,66
 526 524 526 524 471 524 c 0,67,68
 437 524 437 524 405.5 513.5 c 128,-1,69
 374 503 374 503 359.5 493 c 2,70,-1
 345 483 l 1,71,72
 386 458 386 458 431 402 c 1,73,74
 338 360 338 360 320 276 c 2,75,-1
 284 110 l 2,76,77
 273 60 273 60 239 27.5 c 128,-1,78
 205 -5 205 -5 155 -5 c 0,79,80
 115 -5 115 -5 91.5 18 c 128,-1,81
 68 41 68 41 68 78 c 0,0,1
107 -142 m 0,82,83
 89 -142 89 -142 74 -160 c 128,-1,84
 59 -178 59 -178 59 -206 c 0,85,86
 59 -233 59 -233 79 -233 c 0,87,88
 118 -233 118 -233 133 -162 c 1,89,90
 126 -142 126 -142 107 -142 c 0,82,83
166 63 m 0,91,92
 184 63 184 63 195.5 77.5 c 128,-1,93
 207 92 207 92 207 110 c 0,94,95
 207 137 207 137 182 137 c 0,96,97
 164 137 164 137 151.5 123 c 128,-1,98
 139 109 139 109 139 91 c 0,99,100
 139 63 139 63 166 63 c 0,91,92
EndSplineSet
EndChar

StartChar: uni0E10
Encoding: 3600 3600 144
Width: 613
Flags: W
HStem: -343 68<12.6934 71.8927 292.167 379.947> -188 68<23.8704 86.9772> -111 57<383.169 445.743> -5 78<334.516 419.241> 306 68<211.762 280.84> 494 78<492.43 678.293> 526 78<314.398 513.933>
VStem: -51 63<-274.698 -196.302> 131 72<232.598 297.203> 166 79<-123.135 -60> 215 117<75.4346 163.898> 282 85<239.428 304.32> 314 62<-178.072 -117.273> 447 63<-173.621 -111.817> 468 122<211.93 362.121>
DStem2: 332.311 -343 450.548 -343 0.207912 0.978148<426.912 664.664>
LayerCount: 3
Fore
SplineSet
131 244 m 0xfba2
 131 306 186 374 269 374 c 0
 332 374 367 333 367 287 c 0xfb90
 367 280 366 274 365 267 c 2
 339 144 l 2
 335 126 332 112 332 101 c 0
 332 81 343 73 379 73 c 0
 411 73 424 89 432 126 c 2
 466 286 l 2
 468 294 468 301 468 308 c 0
 468 352 436 396 307 419 c 0
 224 434 161 441 160 441 c 1
 167 472 238 604 406 604 c 0xfb22
 496 604 544 572 606 572 c 0
 665 572 682 598 682 598 c 1
 703 532 l 1
 700 530 663 494 594 494 c 0xfd22
 508 494 474 526 399 526 c 0
 326 526 306 498 299 491 c 1
 401 491 505 454 542 425 c 0
 568 404 590 366 590 325 c 0
 590 317 589 310 587 302 c 2
 553 139 l 2
 527 15 457 -5 356 -5 c 0
 248 -5 215 42 215 99 c 0
 215 112 217 127 220 141 c 2
 225 163 l 1
 152 163 131 206 131 244 c 0xfba2
234 231 m 0
 257 231 282 249 282 277 c 0
 282 293 271 306 250 306 c 0
 222 306 203 281 203 260 c 0
 203 245 212 231 234 231 c 0
-51 -260 m 0
 -51 -202 -7 -120 71 -120 c 0
 110 -120 134 -141 134 -141 c 1
 134 -139 145 -127 153 -104 c 0
 162 -77 166 -61 166 -60 c 1
 245 -60 l 1
 245 -61 235 -98 219 -133 c 1
 203 -172 186 -192 186 -193 c 2
 204 -238 l 1
 255 -196 l 1
 255 -196 283 -275 339 -275 c 0
 380 -275 388 -236 388 -236 c 1
 370 -236 314 -223 314 -168 c 0
 314 -114 360 -54 428 -54 c 0
 492 -54 510 -86 510 -127 c 0xf94c
 510 -143 508 -159 504 -176 c 2
 496 -213 l 2
 481 -282 433 -343 339 -343 c 0
 257 -343 233 -284 233 -284 c 1
 165 -343 l 1
 134 -271 l 1
 134 -271 85 -343 24 -343 c 0
 -26 -343 -51 -305 -51 -260 c 0
54 -188 m 0
 29 -188 12 -222 12 -246 c 0
 12 -263 21 -275 36 -275 c 0
 71 -275 91 -222 92 -216 c 1
 92 -216 75 -188 54 -188 c 0
405 -179 m 0
 431 -179 447 -156 447 -137 c 0
 447 -123 438 -111 419 -111 c 0
 393 -111 376 -134 376 -153 c 0
 376 -167 385 -179 405 -179 c 0
EndSplineSet
Validated: 1
Layer: 2
SplineSet
131 244 m 0,0,1
 131 293 131 293 170.5 333.5 c 128,-1,2
 210 374 210 374 269 374 c 0,3,4
 314 374 314 374 340.5 348.5 c 128,-1,5
 367 323 367 323 367 287 c 0,6,7
 367 281 367 281 365 267 c 2,8,-1
 339 144 l 2,9,10
 332 112 332 112 332 101 c 0,11,12
 332 86 332 86 342 79.5 c 128,-1,13
 352 73 352 73 379 73 c 0,14,15
 402 73 402 73 414 85 c 128,-1,16
 426 97 426 97 432 126 c 2,17,-1
 466 286 l 2,18,19
 468 294 468 294 468 308 c 0,20,21
 468 390 468 390 307 419 c 0,22,23
 185 441 185 441 160 441 c 1,24,25
 163 456 163 456 178.5 480 c 128,-1,26
 194 504 194 504 222 533.5 c 128,-1,27
 250 563 250 563 299 583.5 c 128,-1,28
 348 604 348 604 406 604 c 0,29,30
 454 604 454 604 516 588 c 128,-1,31
 578 572 578 572 606 572 c 0,32,33
 632 572 632 572 651 578.5 c 128,-1,34
 670 585 670 585 676 591.5 c 2,35,-1
 682 598 l 1,36,-1
 703 532 l 1,37,-1
 700.5 530 l 2,38,39
 698 528 698 528 694.5 525.5 c 128,-1,40
 691 523 691 523 685.5 519.5 c 128,-1,41
 680 516 680 516 673.5 512.5 c 128,-1,42
 667 509 667 509 658 505.5 c 128,-1,43
 649 502 649 502 639.5 499.5 c 128,-1,44
 630 497 630 497 618 495.5 c 128,-1,45
 606 494 606 494 594 494 c 0,46,47
 550 494 550 494 492.5 510 c 128,-1,48
 435 526 435 526 399 526 c 0,49,50
 334 526 334 526 299 491 c 1,51,52
 370 491 370 491 440.5 470 c 128,-1,53
 511 449 511 449 542 425 c 0,54,55
 590 386 590 386 590 325 c 0,56,57
 590 314 590 314 587 302 c 2,58,-1
 553 139 l 2,59,60
 535 53 535 53 488 24 c 128,-1,61
 441 -5 441 -5 356 -5 c 0,62,63
 215 -5 215 -5 215 99 c 0,64,65
 215 118 215 118 220 141 c 2,66,-1
 225 163 l 1,67,68
 175 163 175 163 153 186.5 c 128,-1,69
 131 210 131 210 131 244 c 0,0,1
234 231 m 0,70,71
 252 231 252 231 267 244 c 128,-1,72
 282 257 282 257 282 277 c 0,73,74
 282 290 282 290 273.5 298 c 128,-1,75
 265 306 265 306 250 306 c 0,76,77
 230 306 230 306 216.5 291.5 c 128,-1,78
 203 277 203 277 203 260 c 0,79,80
 203 231 203 231 234 231 c 0,70,71
-51 -260 m 0,81,82
 -51 -211 -51 -211 -17 -165.5 c 128,-1,83
 17 -120 17 -120 71 -120 c 0,84,85
 88 -120 88 -120 104 -125 c 128,-1,86
 120 -130 120 -130 127 -135.5 c 2,87,-1
 134 -141 l 2,88,89
 134 -140 134 -140 137 -136 c 128,-1,90
 140 -132 140 -132 144.5 -123 c 128,-1,91
 149 -114 149 -114 153 -104 c 0,92,93
 166 -65 166 -65 166 -60 c 1,94,-1
 245 -60 l 1,95,96
 245 -76 245 -76 219 -133 c 0,97,98
 212 -150 212 -150 203.5 -165 c 128,-1,99
 195 -180 195 -180 190.5 -186.5 c 2,100,-1
 186 -193 l 1,101,-1
 204 -238 l 1,102,-1
 255 -196 l 2,103,104
 256 -199 256 -199 258.5 -204.5 c 128,-1,105
 261 -210 261 -210 268.5 -223.5 c 128,-1,106
 276 -237 276 -237 285 -247.5 c 128,-1,107
 294 -258 294 -258 308.5 -266.5 c 128,-1,108
 323 -275 323 -275 339 -275 c 0,109,110
 357 -275 357 -275 369.5 -265.5 c 128,-1,111
 382 -256 382 -256 385 -246 c 2,112,-1
 388 -236 l 1,113,114
 366 -236 366 -236 340 -220 c 128,-1,115
 314 -204 314 -204 314 -168 c 0,116,117
 314 -125 314 -125 346.5 -89.5 c 128,-1,118
 379 -54 379 -54 428 -54 c 0,119,120
 510 -54 510 -54 510 -127 c 0,121,122
 510 -150 510 -150 504 -176 c 2,123,-1
 496 -213 l 2,124,125
 484 -270 484 -270 444.5 -306.5 c 128,-1,126
 405 -343 405 -343 339 -343 c 0,127,128
 303 -343 303 -343 276.5 -328.5 c 128,-1,129
 250 -314 250 -314 241.5 -299 c 2,130,-1
 233 -284 l 1,131,-1
 165 -343 l 1,132,-1
 134 -271 l 1,133,134
 128 -279 128 -279 118.5 -291 c 128,-1,135
 109 -303 109 -303 80 -323 c 128,-1,136
 51 -343 51 -343 24 -343 c 0,137,138
 -12 -343 -12 -343 -31.5 -319.5 c 128,-1,139
 -51 -296 -51 -296 -51 -260 c 0,81,82
54 -188 m 0,140,141
 36 -188 36 -188 24 -207 c 128,-1,142
 12 -226 12 -226 12 -246 c 0,143,144
 12 -275 12 -275 36 -275 c 0,145,146
 58 -275 58 -275 74 -251.5 c 128,-1,147
 90 -228 90 -228 92 -216 c 1,148,149
 75 -188 75 -188 54 -188 c 0,140,141
405 -179 m 0,150,151
 423 -179 423 -179 435 -166 c 128,-1,152
 447 -153 447 -153 447 -137 c 0,153,154
 447 -111 447 -111 419 -111 c 0,155,156
 401 -111 401 -111 388.5 -124.5 c 128,-1,157
 376 -138 376 -138 376 -153 c 0,158,159
 376 -179 376 -179 405 -179 c 0,150,151
EndSplineSet
Substitution2: "'ccmp' Pali-Sanskrit Descender Removal" uni0E10.descless
Substitution2: "Thai Descender Removal Single Substitution" uni0E10.descless
EndChar

StartChar: uni0E11
Encoding: 3601 3601 145
Width: 832
Flags: W
HStem: 0 21G<269 391.5 628 750.237> 257 68<171.939 229.637> 401 66<211 236.057> 502 100<684.058 773.871> 526 76<228.737 297.561 386.887 453.385>
VStem: 102 69<325.813 393.29> 237 73<330.907 400.239> 417 103<446.387 525.203> 727 123<389.227 528.5>
DStem2: 269.344 0 386.996 0 0.207912 0.978148<25.2936 136.955 317.873 435.966> 628 0 746 0 0.207912 0.978148<24.5336 484.882>
LayerCount: 3
Fore
SplineSet
448 287 m 2xef80
 450 294 610 602 753 602 c 0
 821 602 850 554 850 503 c 0
 850 493 848 482 846 472 c 2
 746 0 l 1
 628 0 l 1
 724 451 l 2
 726 460 727 468 727 475 c 0
 727 493 720 502 701 502 c 0xf780
 657 502 573 357 500 241 c 1
 442 146 392 6 391 0 c 1
 269 0 l 1
 338 323 l 2
 356 410 417 455 417 500 c 0
 417 516 408 526 400 526 c 0
 374 526 324 457 322 457 c 1
 321 471 297 524 263 524 c 0
 235 524 217 494 211 467 c 1
 211 467 219 469 231 469 c 0
 279 469 310 441 310 393 c 0
 310 330 262 257 182 257 c 0
 149 257 102 271 102 346 c 0
 102 449 180 602 278 602 c 0
 324 602 343 556 347 546 c 1
 356 555 400 602 444 602 c 0
 490 602 520 564 520 518 c 0
 520 462 476 422 467 378 c 2
 448 287 l 2xef80
196 325 m 0
 219 325 237 348 237 374 c 0
 237 389 230 401 212 401 c 0
 187 401 171 374 171 353 c 0
 171 338 179 325 196 325 c 0
EndSplineSet
Validated: 1
Layer: 2
SplineSet
448 287 m 2,0,1
 449 292 449 292 466.5 322.5 c 128,-1,2
 484 353 484 353 515.5 400.5 c 128,-1,3
 547 448 547 448 584 493 c 128,-1,4
 621 538 621 538 667 570 c 128,-1,5
 713 602 713 602 753 602 c 0,6,7
 801 602 801 602 825.5 573.5 c 128,-1,8
 850 545 850 545 850 503 c 0,9,10
 850 492 850 492 846 472 c 2,11,-1
 746 0 l 1,12,-1
 628 0 l 1,13,-1
 724 451 l 2,14,15
 727 464.5 727 464.5 727 475 c 0,16,17
 727 502 727 502 701 502 c 0,18,19
 692 502 692 502 680.5 494.5 c 128,-1,20
 669 487 669 487 654 469.5 c 128,-1,21
 639 452 639 452 627 437 c 128,-1,22
 615 422 615 422 595 391.5 c 128,-1,23
 575 361 575 361 564.5 344.5 c 128,-1,24
 554 328 554 328 531 291 c 128,-1,25
 508 254 508 254 500 241 c 0,26,27
 474 198 474 198 447 139 c 128,-1,28
 420 80 420 80 406 42.5 c 128,-1,29
 392 5 392 5 391 0 c 1,30,-1
 269 0 l 1,31,-1
 338 323 l 2,32,33
 348 369 348 369 382.5 424 c 128,-1,34
 417 479 417 479 417 500 c 0,35,36
 417 511 417 511 411.5 518.5 c 128,-1,37
 406 526 406 526 400 526 c 0,38,39
 388 526 388 526 369.5 509 c 128,-1,40
 351 492 351 492 336.5 474.5 c 2,41,-1
 322 457 l 1,42,43
 321 473 321 473 303 498.5 c 128,-1,44
 285 524 285 524 263 524 c 0,45,46
 244 524 244 524 230 507 c 128,-1,47
 216 490 216 490 211 467 c 1,48,49
 219 469 219 469 231 469 c 0,50,51
 267 469 267 469 288.5 449 c 128,-1,52
 310 429 310 429 310 393 c 0,53,54
 310 342 310 342 274.5 299.5 c 128,-1,55
 239 257 239 257 182 257 c 0,56,57
 150 257 150 257 126 276.5 c 128,-1,58
 102 296 102 296 102 346 c 0,59,60
 102 430 102 430 155.5 516 c 128,-1,61
 209 602 209 602 278 602 c 0,62,63
 325 602 325 602 347 546 c 1,64,65
 403 602 403 602 444 602 c 0,66,67
 478 602 478 602 499 577.5 c 128,-1,68
 520 553 520 553 520 518 c 0,69,70
 520 486 520 486 495 440 c 128,-1,71
 470 394 470 394 467 378 c 2,72,-1
 448 287 l 2,0,1
196 325 m 0,73,74
 213 325 213 325 225 339.5 c 128,-1,75
 237 354 237 354 237 374 c 0,76,77
 237 401 237 401 212 401 c 0,78,79
 194 401 194 401 182.5 385.5 c 128,-1,80
 171 370 171 370 171 353 c 0,81,82
 171 325 171 325 196 325 c 0,73,74
EndSplineSet
EndChar

StartChar: uni0E12
Encoding: 3602 3602 146
Width: 924
Flags: W
HStem: -5 72<512.187 579.54> 177 78<662 689.141> 342 68<360.256 419.292> 502 100<316.672 368.571 553 573.935> 575 20G<836.75 959>
VStem: 127 115<112.373 400.032> 141 110<112 278.709> 280 72<266.184 334.485> 420 72<270.42 341.805> 439 71<69.5422 146.861> 580 119<327.469 497.007> 591 70<77.0688 161.852>
DStem2: 251 112 277 0 0.583474 0.812132<0 126.827> 488.837 -5 606.735 -5 0.207912 0.978148<290.321 459.362> 713.489 -5 831.595 -5 0.207912 0.978148<204.468 613.4>
LayerCount: 3
Fore
SplineSet
280 279 m 0xf3
 280 360 351 410 408 410 c 0
 455 410 492 381 492 333 c 0
 492 298 474 270 440 224 c 2
 440 224 278 7 277 0 c 1
 133 0 l 1
 139 27 141 54 141 82 c 0xf380
 141 154 127 227 127 295 c 0
 127 487 273 595 358 602 c 1
 451 551 l 1
 553 602 l 1
 595 602 699 568 699 453 c 0xf520
 699 438 698 422 694 405 c 2
 662 255 l 1
 681 255 735 241 756 195 c 1
 841 595 l 1
 959 595 l 1
 852 91 l 2
 841 38 829 0 778 0 c 2
 727 0 l 1
 727 1 728 9 728 20 c 0
 728 153 667 177 652 177 c 1
 653 172 661 155 661 129 c 0xe910
 661 71 613 -5 528 -5 c 0
 474 -5 439 24 439 81 c 0
 439 188 525 231 539 231 c 1
 573 389 l 2
 578 410 580 430 580 446 c 0
 580 481 568 502 535 502 c 1
 432 453 l 1
 358 502 l 1
 303 496 242 403 242 281 c 0xf560
 242 232 251 191 251 133 c 0
 251 126 251 119 251 112 c 1
 325 215 l 1
 325 215 280 223 280 279 c 0xf3
381 265 m 0
 412 265 420 302 420 316 c 0
 420 333 411 342 395 342 c 0
 369 342 352 316 352 295 c 0
 352 279 360 265 381 265 c 0
543 67 m 0
 567 67 591 88 591 124 c 0
 591 147 580 163 562 163 c 0
 534 163 510 126 510 98 c 0xe150
 510 79 522 67 543 67 c 0
EndSplineSet
Validated: 1
Layer: 2
SplineSet
280 279 m 0,0,1
 280 336 280 336 320.5 373 c 128,-1,2
 361 410 361 410 408 410 c 0,3,4
 444 410 444 410 468 389 c 128,-1,5
 492 368 492 368 492 333 c 0,6,7
 492 309 492 309 480 286 c 128,-1,8
 468 263 468 263 440 224 c 0,9,10
 278 7 278 7 277 0 c 1,11,-1
 133 0 l 1,12,13
 141 36 141 36 141 82 c 0,14,15
 141 119 141 119 134 190.5 c 128,-1,16
 127 262 127 262 127 295 c 0,17,18
 127 363 127 363 151 422.5 c 128,-1,19
 175 482 175 482 211 519 c 128,-1,20
 247 556 247 556 286 577.5 c 128,-1,21
 325 599 325 599 358 602 c 1,22,-1
 451 551 l 1,23,-1
 553 602 l 1,24,25
 579 602 579 602 610 590 c 128,-1,26
 641 578 641 578 670 542 c 128,-1,27
 699 506 699 506 699 453 c 0,28,29
 699 426 699 426 694 405 c 2,30,-1
 662 255 l 1,31,32
 683 255 683 255 712.5 240 c 128,-1,33
 742 225 742 225 756 195 c 1,34,-1
 841 595 l 1,35,-1
 959 595 l 1,36,-1
 852 91 l 2,37,38
 842 44 842 44 827.5 22 c 128,-1,39
 813 0 813 0 778 0 c 2,40,-1
 727 0 l 1,41,-1
 727.5 3 l 2,42,43
 728 6 728 6 728 10.5 c 128,-1,44
 728 15 728 15 728 20 c 0,45,46
 728 58 728 58 721.5 87.5 c 128,-1,47
 715 117 715 117 705.5 133 c 128,-1,48
 696 149 696 149 685 159.5 c 128,-1,49
 674 170 674 170 666 173.5 c 128,-1,50
 658 177 658 177 652 177 c 1,51,-1
 654.5 169 l 2,52,53
 657 161 657 161 659 151 c 128,-1,54
 661 141 661 141 661 129 c 0,55,56
 661 80 661 80 624 37.5 c 128,-1,57
 587 -5 587 -5 528 -5 c 0,58,59
 487 -5 487 -5 463 17 c 128,-1,60
 439 39 439 39 439 81 c 0,61,62
 439 118 439 118 452.5 149 c 128,-1,63
 466 180 466 180 484 196.5 c 128,-1,64
 502 213 502 213 517 222 c 128,-1,65
 532 231 532 231 539 231 c 1,66,-1
 573 389 l 2,67,68
 580 418 580 418 580 446 c 0,69,70
 580 502 580 502 535 502 c 1,71,-1
 432 453 l 1,72,-1
 358 502 l 1,73,74
 314 497 314 497 278 433 c 128,-1,75
 242 369 242 369 242 281 c 0,76,77
 242 258 242 258 246.5 210.5 c 128,-1,78
 251 163 251 163 251 133 c 2,79,-1
 251 112 l 1,80,-1
 325 215 l 2,81,82
 323 215 323 215 320 216 c 128,-1,83
 317 217 317 217 309.5 221.5 c 128,-1,84
 302 226 302 226 296 232.5 c 128,-1,85
 290 239 290 239 285 251 c 128,-1,86
 280 263 280 263 280 279 c 0,0,1
381 265 m 0,87,88
 401 265 401 265 410.5 282.5 c 128,-1,89
 420 300 420 300 420 316 c 0,90,91
 420 342 420 342 395 342 c 0,92,93
 377 342 377 342 364.5 327 c 128,-1,94
 352 312 352 312 352 295 c 0,95,96
 352 265 352 265 381 265 c 0,87,88
543 67 m 0,97,98
 562 67 562 67 576.5 82.5 c 128,-1,99
 591 98 591 98 591 124 c 0,100,101
 591 141 591 141 583 152 c 128,-1,102
 575 163 575 163 562 163 c 0,103,104
 542 163 542 163 526 141.5 c 128,-1,105
 510 120 510 120 510 98 c 0,106,107
 510 67 510 67 543 67 c 0,97,98
EndSplineSet
EndChar

StartChar: uni0E13
Encoding: 3603 3603 147
Width: 958
Flags: W
HStem: -5 78<772.099 877.024> -5 68<211.68 272.334> 233 78<860 888.623> 524 78<343.062 510.269> 575 20G<797.779 920>
VStem: 128 83<64.3267 134.293> 282 72<70.8288 140.623> 534 119<380.582 499.902> 695 121<73.8819 173.914> 901 78<97.8748 221.354>
DStem2: 441.937 -5 560.378 -5 0.207912 0.978148<31.3086 70.0111 205.579 457.777> 675.406 -5 793.343 -5 0.207912 0.978148<131.141 183.883 347.474 613.209>
AnchorPoint: "AboveBase" 921 613 basechar 0
LayerCount: 3
Fore
SplineSet
354 130 m 0xb7c0
 354 47 283 -5 223 -5 c 0
 162 -5 128 28 128 86 c 0
 128 99 130 112 133 127 c 2
 165 276 l 2
 185 368 247 389 263 397 c 1
 231 442 155 477 148 478 c 1
 174 506 280 602 445 602 c 0x77c0
 599 602 653 533 653 453 c 0
 653 439 651 425 648 411 c 2
 598 172 l 1
 643 234 728 280 737 287 c 1
 802 595 l 1
 920 595 l 1x2fc0
 860 311 l 1
 908 311 979 280 979 191 c 0
 979 113 928 -5 796 -5 c 0
 728 -5 695 27 695 77 c 0
 695 86 697 96 699 106 c 2
 713 175 l 1
 652 148 584 20 569 0 c 1
 443 0 l 1
 529 403 l 2
 532 418 534 432 534 444 c 0
 534 495 505 524 433 524 c 0
 359 524 308 483 308 483 c 1
 354 455 381 417 397 397 c 1
 351 390 302 366 284 281 c 2
 269 210 l 1
 281 210 354 203 354 130 c 0xb7c0
840 73 m 0xa7c0
 883 73 901 133 901 168 c 0
 901 207 880 233 844 233 c 1
 818 111 l 2
 817 106 816 103 816 99 c 0
 816 81 827 73 840 73 c 0xa7c0
237 63 m 0x67c0
 264 63 282 91 282 113 c 0
 282 129 273 142 254 142 c 0
 228 142 211 113 211 91 c 0
 211 75 219 63 237 63 c 0x67c0
EndSplineSet
Validated: 1
Layer: 2
SplineSet
354 130 m 0,0,1
 354 71 354 71 313 33 c 128,-1,2
 272 -5 272 -5 223 -5 c 0,3,4
 177 -5 177 -5 152.5 18.5 c 128,-1,5
 128 42 128 42 128 86 c 0,6,7
 128 102 128 102 133 127 c 2,8,-1
 165 276 l 2,9,10
 169 293 169 293 174.5 307.5 c 128,-1,11
 180 322 180 322 186 332.5 c 128,-1,12
 192 343 192 343 200.5 352.5 c 128,-1,13
 209 362 209 362 215 368 c 128,-1,14
 221 374 221 374 230 379.5 c 128,-1,15
 239 385 239 385 243.5 387.5 c 128,-1,16
 248 390 248 390 255.5 393.5 c 2,17,-1
 263 397 l 1,18,19
 249 417 249 417 221 437 c 128,-1,20
 193 457 193 457 173 467 c 128,-1,21
 153 477 153 477 148 478 c 1,22,23
 162 493 162 493 183.5 510 c 128,-1,24
 205 527 205 527 243 550 c 128,-1,25
 281 573 281 573 334.5 587.5 c 128,-1,26
 388 602 388 602 445 602 c 0,27,28
 553 602 553 602 603 560.5 c 128,-1,29
 653 519 653 519 653 453 c 0,30,31
 653 434 653 434 648 411 c 2,32,-1
 598 172 l 1,33,34
 613 193 613 193 637.5 215 c 128,-1,35
 662 237 662 237 681 250 c 128,-1,36
 700 263 700 263 718 274.5 c 128,-1,37
 736 286 736 286 737 287 c 2,38,-1
 802 595 l 1,39,-1
 920 595 l 1,40,-1
 860 311 l 1,41,42
 904 311 904 311 941.5 281 c 128,-1,43
 979 251 979 251 979 191 c 0,44,45
 979 148 979 148 962 105.5 c 128,-1,46
 945 63 945 63 901.5 29 c 128,-1,47
 858 -5 858 -5 796 -5 c 0,48,49
 746 -5 746 -5 720.5 17 c 128,-1,50
 695 39 695 39 695 77 c 0,51,52
 695 86 695 86 699 106 c 2,53,-1
 713 175 l 1,54,55
 692 166 692 166 666.5 138.5 c 128,-1,56
 641 111 641 111 624 85.5 c 128,-1,57
 607 60 607 60 589.5 31.5 c 128,-1,58
 572 3 572 3 569 0 c 2,59,-1
 443 0 l 1,60,-1
 529 403 l 2,61,62
 534 428 534 428 534 444 c 0,63,64
 534 524 534 524 433 524 c 0,65,66
 400 524 400 524 369 513.5 c 128,-1,67
 338 503 338 503 323 493 c 2,68,-1
 308 483 l 1,69,70
 317 477 317 477 326 470.5 c 128,-1,71
 335 464 335 464 343 457 c 128,-1,72
 351 450 351 450 357 444 c 128,-1,73
 363 438 363 438 370 430 c 128,-1,74
 377 422 377 422 380 418 c 128,-1,75
 383 414 383 414 389.5 406 c 128,-1,76
 396 398 396 398 397 397 c 1,77,78
 306 383 306 383 284 281 c 2,79,-1
 269 210 l 1,80,81
 277 210 277 210 288 207.5 c 128,-1,82
 299 205 299 205 315.5 198 c 128,-1,83
 332 191 332 191 343 173 c 128,-1,84
 354 155 354 155 354 130 c 0,0,1
840 73 m 0,85,86
 869 73 869 73 885 104.5 c 128,-1,87
 901 136 901 136 901 168 c 0,88,89
 901 198 901 198 886 215.5 c 128,-1,90
 871 233 871 233 844 233 c 1,91,-1
 818 111 l 2,92,93
 816 101 816 101 816 99 c 0,94,95
 816 73 816 73 840 73 c 0,85,86
237 63 m 0,96,97
 256 63 256 63 269 79 c 128,-1,98
 282 95 282 95 282 113 c 0,99,100
 282 142 282 142 254 142 c 0,101,102
 236 142 236 142 223.5 125.5 c 128,-1,103
 211 109 211 109 211 91 c 0,104,105
 211 63 211 63 237 63 c 0,96,97
EndSplineSet
EndChar

